<svg width="39" height="37" viewBox="0 0 39 37" fill="none" xmlns="http://www.w3.org/2000/svg">
<path d="M10.2428 24.0674V16.2328H8.14331V14.6028C8.55248 14.5961 8.92811 14.5558 9.26349 14.4887C9.59218 14.4217 9.89404 14.3009 10.1556 14.1265C10.4172 13.9521 10.6453 13.7039 10.8331 13.3752H12.4027V24.0674H10.2428Z" fill="white"/>
<path d="M18.0038 24.1882C17.5007 24.1882 17.011 24.1278 16.5415 24.0138C16.0652 23.8997 15.6359 23.7119 15.2536 23.4503C14.8645 23.1954 14.556 22.8533 14.3279 22.4307C14.0999 22.0081 13.9926 21.4983 13.9926 20.9081C13.9926 20.5123 14.0529 20.1568 14.1669 19.8415C14.281 19.5263 14.4554 19.2445 14.6834 18.9964C14.9115 18.7482 15.1798 18.5536 15.5085 18.3994C15.2335 18.225 15.0121 18.0237 14.8444 17.789C14.67 17.5542 14.5493 17.2926 14.4688 17.0109C14.3883 16.7291 14.348 16.4407 14.348 16.1523C14.348 15.6156 14.4554 15.1662 14.6633 14.7973C14.8713 14.4284 15.153 14.1332 15.5085 13.9052C15.8573 13.6771 16.2598 13.5094 16.7025 13.4088C17.1452 13.3015 17.5946 13.2478 18.044 13.2478C18.5069 13.2478 18.9563 13.3015 19.3923 13.4088C19.8216 13.5161 20.2173 13.6838 20.5661 13.9186C20.9217 14.1534 21.2034 14.4619 21.4113 14.8375C21.6193 15.2132 21.7266 15.6693 21.7266 16.2059C21.7266 16.4742 21.6796 16.7493 21.5991 17.031C21.5186 17.306 21.3845 17.5609 21.2101 17.7957C21.0357 18.0304 20.8076 18.225 20.5393 18.3859C20.8613 18.5268 21.1363 18.7213 21.3711 18.9628C21.6059 19.2043 21.7802 19.4927 21.901 19.8214C22.0217 20.1568 22.0821 20.5257 22.0821 20.9416C22.0821 21.5319 21.9681 22.0417 21.7333 22.4508C21.5052 22.8667 21.1899 23.2021 20.7942 23.457C20.3984 23.7119 19.9692 23.8997 19.4862 24.0205C18.9965 24.1345 18.5069 24.1882 18.0038 24.1882ZM18.0172 22.2429C18.2386 22.2429 18.4599 22.2161 18.6813 22.1691C18.9026 22.1155 19.1038 22.035 19.2849 21.9209C19.4661 21.8069 19.6069 21.6593 19.7143 21.4849C19.8216 21.3105 19.8752 21.0892 19.8752 20.8276C19.8752 20.5056 19.7947 20.244 19.6338 20.0361C19.4728 19.8281 19.2514 19.6738 18.9764 19.5665C18.7014 19.4592 18.3794 19.4055 18.0172 19.4055C17.6617 19.4055 17.3464 19.4592 17.058 19.5665C16.7695 19.6738 16.5482 19.8281 16.3872 20.0361C16.2262 20.244 16.1457 20.5056 16.1457 20.8276C16.1457 21.0892 16.1994 21.3105 16.3134 21.4849C16.4274 21.6593 16.5683 21.8069 16.7427 21.9209C16.9171 22.035 17.1184 22.1155 17.3397 22.1691C17.5611 22.2161 17.7824 22.2429 18.0172 22.2429ZM18.0306 17.7554C18.3526 17.7554 18.6276 17.7018 18.8557 17.5944C19.0837 17.4871 19.2581 17.3395 19.3856 17.1383C19.513 16.9438 19.5734 16.7224 19.5734 16.4809C19.5734 16.1791 19.5063 15.9309 19.3789 15.7297C19.2447 15.5351 19.0636 15.3809 18.8288 15.2803C18.594 15.1729 18.3123 15.1193 17.9904 15.1193C17.6818 15.1193 17.4068 15.1729 17.1787 15.2803C16.9507 15.3876 16.7762 15.5351 16.6488 15.723C16.5214 15.9175 16.461 16.1456 16.461 16.4206C16.461 16.6956 16.5214 16.9304 16.6555 17.1316C16.783 17.3328 16.9708 17.4871 17.2056 17.5944C17.447 17.7085 17.722 17.7554 18.0306 17.7554Z" fill="white"/>
<path d="M25.7512 22.0752V19.6135H23.3633V17.7085H25.7512V15.2601H27.6361V17.7085H30.0241V19.6135H27.6361V22.0752H25.7512Z" fill="white"/>
<path d="M19.0165 37C15.126 37 8.61279 37 4.30641 32.8747C2.94263e-05 28.7427 0 22.3301 0 18.5C0 14.6699 2.94263e-05 8.25725 4.30641 4.12527C8.60608 9.59553e-07 15.1193 0 19.0098 0C22.9406 0 29.5209 6.39702e-07 33.7534 4.15881C38.0263 8.35116 38.0263 14.7034 38.0263 18.5C38.0263 22.3033 38.0196 28.6556 33.7534 32.8412C29.5209 37 22.9473 37 19.0165 37ZM19.0165 3.05874C15.5889 3.05874 9.8403 3.05874 6.43276 6.33212C3.06546 9.55856 3.06545 15.1528 3.06545 18.5C3.06545 21.8405 3.06546 27.4347 6.42604 30.6679C9.84029 33.9413 15.5821 33.9413 19.0098 33.9413C22.471 33.9413 28.2665 33.9413 31.607 30.6612C34.9541 27.3744 34.9541 21.8203 34.9608 18.5067C34.9608 15.1864 34.9608 9.63905 31.607 6.34554C28.2665 3.05874 22.4777 3.05874 19.0165 3.05874Z" fill="white"/>
</svg>
