<svg width="130" height="23" viewBox="0 0 130 23" fill="none" xmlns="http://www.w3.org/2000/svg">
<path d="M11.1226 22.2453C8.79304 22.2453 4.89327 22.2453 2.43807 19.8186C2.72263e-07 17.4091 0 13.4693 0 11.1226C0 8.7702 2.72263e-07 4.83617 2.43807 2.42665C4.89327 0 8.79304 0 11.1226 0C13.4751 0 17.4091 2.72263e-07 19.8186 2.43807C22.2453 4.89327 22.2453 8.79304 22.2453 11.1226C22.2453 13.4579 22.2453 17.3577 19.8186 19.8072C17.4091 22.2453 13.4751 22.2453 11.1226 22.2453Z" fill="white"/>
<path d="M20.4696 11.1169C20.4696 8.70739 20.4011 5.54989 18.5568 3.68279C16.7183 1.82141 13.5151 1.77002 11.1227 1.77002C8.71315 1.77002 5.55565 1.83854 3.68856 3.68279C2.72361 4.63632 2.2497 5.96099 2.00989 7.34275C5.33868 7.34846 9.68952 7.47408 12.2075 10.0263C14.737 12.5843 14.8854 16.8781 14.8911 20.224C16.2786 19.9899 17.6033 19.5103 18.5568 18.5453C20.4011 16.6839 20.4696 13.5264 20.4696 11.1169ZM15.2965 8.99288C13.9776 8.99288 13.2467 8.26203 13.2467 6.94307C13.2467 5.62411 13.9776 4.89326 15.2965 4.89326C16.6155 4.89326 17.3463 5.62411 17.3463 6.94307C17.3463 8.26203 16.6155 8.99288 15.2965 8.99288ZM7.82814 11.1226H1.78149C1.78149 13.515 1.83288 16.7125 3.69427 18.551C5.55565 20.3953 8.71315 20.4638 11.117 20.4638V14.4172C11.117 11.3053 10.94 11.1226 7.82814 11.1226ZM6.95455 17.3406C5.08745 17.3406 4.90474 17.1578 4.90474 15.2908C4.90474 13.4237 5.08745 13.2409 6.95455 13.2409C8.82164 13.2409 9.00435 13.4237 9.00435 15.2908C8.99864 17.1578 8.81593 17.3406 6.95455 17.3406Z" fill="#014593"/>
<path d="M62.0481 3.6771H73.3992V18.551H69.8363V6.62904H65.3655V10.3575C65.3655 16.0673 64.3092 18.3341 60.7577 18.591L59.73 15.3307H59.9355C61.4715 15.3307 62.0481 13.9318 62.0481 10.3347V3.6771ZM55.1279 6.22936L59.0163 18.551H55.5447L54.5455 15.3993H48.556L47.5568 18.551H44.285L48.1563 6.23507C48.7387 4.39082 49.6123 3.68281 51.6449 3.68281C53.6719 3.6771 54.5455 4.3794 55.1279 6.22936ZM53.6319 12.4873L52.0047 7.39987C51.9361 7.19432 51.7477 7.05157 51.525 7.05157C51.3081 7.05157 51.1139 7.19431 51.0454 7.40557L49.4638 12.493H53.6319V12.4873ZM75.0664 6.62904H79.874V18.551H83.4369V6.62904H88.2446V3.6771H75.0664V6.62904ZM116.822 3.6771V6.62904H121.63V18.551H125.192V6.62904H130V3.6771H116.822ZM107.966 12.3788H114.35V9.55816H107.96V6.60621H115.349V3.6771H104.397V14.2116C104.397 16.9352 106.013 18.551 108.748 18.551H115.463V15.6219H108.834C108.023 15.6219 107.966 15.5591 107.966 14.754V12.3788ZM43.3829 13.9204C43.3829 16.8039 41.63 18.551 38.7409 18.551H31.1526V3.67139H42.3494V6.62334H34.7155V9.28409H38.7409C41.6357 9.2898 43.3829 11.0313 43.3829 13.9204ZM39.8314 14.8397V13.0011C39.8314 12.1961 39.7686 12.1333 38.9636 12.1333H34.7155V15.7076H38.9636C39.7743 15.7076 39.8314 15.6448 39.8314 14.8397ZM102.142 13.9604C102.142 16.8438 100.389 18.591 97.5001 18.591H89.9118V3.71135H101.109V6.66331H93.4747V9.32977H97.5001C100.395 9.32977 102.142 11.0712 102.142 13.9604ZM98.5964 14.8797V13.0411C98.5964 12.236 98.5336 12.1732 97.7285 12.1732H93.4804V15.7475H97.7285C98.5336 15.7475 98.5964 15.6904 98.5964 14.8797Z" fill="white"/>
</svg>
