<svg width="173" height="152" viewBox="0 0 173 152" fill="none" xmlns="http://www.w3.org/2000/svg">
<path fill-rule="evenodd" clip-rule="evenodd" d="M129.016 71.1333C129.055 60.6463 125.024 49.7672 118.607 41.7059C110.623 52.624 96.1055 59.8258 80.8035 60.2541V71.1333H129.016ZM80.8452 57.3973C95.6382 56.8104 109.491 49.884 116.495 39.1606C107.416 29.2606 94.4254 23.038 80.8452 22.6458V57.3946V57.3973ZM29.0697 71.1333C29.0308 60.6463 33.0614 49.7672 39.4788 41.7059C47.4622 52.624 61.9798 59.8258 77.2819 60.2541V71.1333H29.0697ZM77.2429 57.3973C62.4499 56.8104 48.5971 49.884 41.5928 39.1606C50.6723 29.2606 63.6627 23.038 77.2429 22.6458V57.3946V57.3973ZM129.016 74.577C129.055 85.2225 125.024 96.2964 118.607 104.475C110.623 93.4007 96.1055 86.0821 80.8035 85.6509V74.577H129.016ZM80.8452 88.5494C95.6382 89.1364 109.491 96.1796 116.495 107.059C107.416 117.117 94.4254 123.457 80.8452 123.846V88.5494ZM29.0697 74.577C29.0308 85.2225 33.0614 96.2964 39.4788 104.475C47.4622 93.4007 61.9798 86.0821 77.2819 85.6509V74.577H29.0697ZM77.2429 88.5494C62.4499 89.1364 48.5971 96.1796 41.5928 107.059C50.6723 117.117 63.6627 123.457 77.2429 123.846V88.5494ZM79.0427 19.7917C108.47 19.7917 132.459 43.781 132.459 73.2084C132.459 102.636 108.47 126.625 79.0427 126.625C49.6152 126.625 25.626 102.597 25.626 73.2084C25.626 43.8199 49.5763 19.7917 79.0427 19.7917Z" fill="#1A1A18"/>
<path fill-rule="evenodd" clip-rule="evenodd" d="M20.9166 116.719C16.5939 119.76 5.66463 127.485 0.579712 131.885C9.10001 138.33 18.4715 145.371 26.9918 151.816C31.6901 146.417 36.992 140.211 42.2104 135.677C53.02 142.041 65.6016 145.702 79.0121 145.702C118.943 145.702 151.464 113.84 151.778 73.9817C166.065 67.62 175.754 57.464 170.616 49.9285C166.107 43.3164 153.753 47.8533 148.835 52.0815C139.856 22.0226 111.928 0 79.0121 0C38.8863 0 6.15977 32.7265 6.15977 72.8523C6.15977 89.3004 11.6619 104.502 20.9166 116.722M149.934 56.5377C154.921 53.0745 158.24 51.8951 160.246 54.7853C161.611 56.7547 158.12 60.5462 151.23 63.6255C151.063 61.2638 150.596 58.8994 149.934 56.5377Z" fill="white"/>
<path d="M8.00269 72.8523C8.00269 112.07 39.7944 143.862 79.0121 143.862C118.23 143.862 150.022 112.07 150.022 72.8523C150.022 33.6346 118.23 1.8429 79.0121 1.8429C39.7944 1.8429 8.00269 33.6346 8.00269 72.8523Z" fill="#B1B2B3" stroke="#260D63" stroke-width="2"/>
<path fill-rule="evenodd" clip-rule="evenodd" d="M79.0122 129.409C47.8935 129.409 22.6636 104.182 22.6636 73.0609C22.6636 41.9394 47.8935 16.7151 79.0122 16.7151C110.131 16.7151 135.361 41.9422 135.361 73.0637C135.361 104.185 110.134 129.412 79.0122 129.412" fill="white"/>
<path fill-rule="evenodd" clip-rule="evenodd" d="M79.0121 124.778C50.333 124.778 27.0864 101.529 27.0864 72.8523C27.0864 44.176 50.3357 20.9266 79.0121 20.9266C107.689 20.9266 130.938 44.176 130.938 72.8523C130.938 101.529 107.689 124.778 79.0121 124.778Z" fill="#EF7C00"/>
<path fill-rule="evenodd" clip-rule="evenodd" d="M125.886 107.156L129.233 101.551L131.75 100.956L134.103 102.36L134.298 103.048L135.03 102.914L137.653 104.48L138.284 107.061L134.985 112.589L132.559 111.178L132.946 110.53L128.632 107.954L128.262 108.578L125.886 107.159V107.156ZM127.127 106.797L127.964 107.298L128.326 106.689L134.231 110.213L133.853 110.847L134.674 111.337L137.219 107.073L136.718 105.031L134.871 103.929L133.658 104.188L133.372 103.034L131.692 102.029L129.689 102.505L127.127 106.794V106.797ZM132.265 107.551L133.555 105.387L134.426 105.145L135.953 106.057L136.162 106.978L134.888 109.114L132.265 107.548V107.551ZM133.528 107.151L134.587 107.782L135.224 106.717L134.165 106.085L133.528 107.151ZM130.273 105.209L131.171 105.746L131.808 104.68L130.91 104.144L130.273 105.209ZM128.982 105.59L130.306 103.373L131.144 103.184L132.59 104.046L132.785 104.814L131.447 107.056L128.985 105.587L128.982 105.59ZM124.212 113.114L127.956 116.466L128.907 115.404L125.163 112.052L124.212 113.114ZM123.352 112.711L124.698 111.206L125.577 111.159L129.772 114.914L129.82 115.793L128.434 117.343L127.575 117.368L123.38 113.612L123.349 112.711H123.352ZM122.262 112.464L122.356 114.405L126.86 118.436L128.726 118.4L130.882 115.991L130.799 114.127L126.251 110.055L124.342 110.138L122.259 112.466L122.262 112.464ZM121.299 112.219L123.972 109.231L126.598 109.081L131.722 113.668L131.867 116.299L129.171 119.309L126.559 119.434L121.391 114.806L121.296 112.219H121.299ZM113.641 120.427L114.965 122.052L115.622 121.518L114.918 120.653L116.576 119.304L120.915 124.631L120.367 125.076L120.952 125.791L123.057 124.074L122.473 123.359L121.933 123.799L117.594 118.472L119.274 117.103L119.978 117.966L120.604 117.454L119.28 115.829L113.641 120.422V120.427ZM112.381 120.319L119.43 114.578L121.883 117.59L119.939 119.173L119.232 118.305L118.857 118.611L122.034 122.511L122.612 122.041L124.381 124.213L120.79 127.137L119.021 124.964L119.63 124.469L116.454 120.569L116.07 120.884L116.776 121.752L114.835 123.332L112.381 120.319ZM109.466 127.938L110.081 127.582L109.235 126.789L109.466 127.941V127.938ZM108.979 129.051L108.097 125.009L108.264 124.912L111.291 127.707L108.979 129.051ZM108.314 134.981L106.907 132.558L107.669 132.116L106.003 124.069L108.587 122.567L114.593 128.091L115.422 127.61L116.829 130.033L112.965 132.277L111.622 129.966L112.214 129.621L111.75 129.209L110.033 130.208L110.153 130.82L110.72 130.492L112.064 132.803L108.317 134.981H108.314ZM108.682 133.677L110.718 132.494L110.253 131.696L109.574 132.091L109.104 129.921L111.911 128.291L113.563 129.774L112.918 130.149L113.383 130.948L115.524 129.704L115.06 128.906L114.504 129.229L108.409 123.688L107.032 124.486L108.726 132.583L108.214 132.881L108.679 133.679L108.682 133.677ZM99.132 130.01L99.6716 131.565L100.873 131.148L100.334 129.593L99.132 130.01ZM97.9303 129.465L100.367 128.617L101.129 129.012L101.889 131.193L101.516 131.921L99.0791 132.767L97.9303 129.462V129.465ZM96.7203 129.885L98.9762 136.378L98.3058 136.611L98.609 137.485L101.146 136.603L100.843 135.73L100.2 135.952L99.4129 133.685L102.239 132.703L103.074 131.04L102.158 128.408L100.517 127.532L95.73 129.195L96.0499 130.116L96.7175 129.882L96.7203 129.885ZM94.5533 128.672L100.634 126.558L102.921 127.729L104.089 131.092L102.921 133.429L100.601 134.236L100.782 134.756L101.455 134.522L102.375 137.173L98.0304 138.684L97.1097 136.033L97.794 135.796L96.1444 131.048L95.4602 131.284L94.5533 128.672ZM88.9037 135.031L89.6019 134.895L89.0623 133.869L88.9065 135.031H88.9037ZM88.0803 135.924L88.5616 131.816L88.7507 131.78L90.7035 135.41L88.0803 135.927V135.924ZM85.5212 141.312L84.9788 138.561L85.8439 138.392L86.8898 130.241L89.8217 129.663L93.7021 136.842L94.6423 136.656L95.1848 139.407L90.8008 140.272L90.2834 137.649L90.9538 137.515L90.6506 136.976L88.7007 137.36L88.6144 137.977L89.257 137.849L89.7744 140.472L85.524 141.312H85.5212ZM86.2945 140.202L88.6061 139.746L88.4281 138.839L87.6575 138.992L87.919 136.787L91.104 136.158L92.1861 138.1L91.4545 138.244L91.6326 139.148L94.0638 138.67L93.8857 137.766L93.2543 137.891L89.2959 130.667L87.7354 130.976L86.7006 139.184L86.1193 139.298L86.2973 140.205L86.2945 140.202ZM77.3709 130.814L81.1873 130.87L83.0121 132.753L82.9787 135.031L80.0162 134.987L80.0357 133.618L78.6699 133.599L78.5976 138.592L79.9634 138.611L79.9856 137.065L82.9481 137.109L82.912 139.629L80.9259 141.465L77.2179 141.413L75.382 139.49L75.4821 132.586L77.3736 130.817L77.3709 130.814ZM77.7992 131.702L76.4473 133.009L76.3583 139.076L77.6713 140.478L80.5253 140.52L81.944 139.173L81.9606 138.022L80.9119 138.005L80.898 138.942L80.236 139.588L78.2471 139.56L77.6017 138.895L77.6824 133.265L78.3472 132.684L80.3973 132.714L80.9815 133.282L80.9704 134.058L82.0191 134.074L82.033 133.087L80.7784 131.743L77.7992 131.699V131.702Z" fill="white"/>
<path fill-rule="evenodd" clip-rule="evenodd" d="M141.536 63.7282C146.919 54.7768 154.704 50.8323 159.005 51.5305C163.155 52.2037 166.154 56.2816 156.93 62.4542C136.14 76.3598 112.932 79.4781 90.9566 86.5547C58.2607 97.0834 30.7137 108.939 4.39337 131.32L27.053 148.456C43.3648 130.074 59.6766 119.195 80.7256 106.227C104.414 93.8177 129.731 83.6868 153.353 71.2638C168.905 63.0829 175.687 51.4888 162.919 49.0354C158.529 48.1925 146.582 52.4596 141.536 63.7282Z" fill="#1A1A18"/>
<path fill-rule="evenodd" clip-rule="evenodd" d="M86.8147 123.009C73.3819 107.668 70.2025 90.3686 65.9521 71.2278C63.9882 63.0051 61.468 52.1705 52.7112 48.6655C49.3565 53.0495 46.2299 59.1581 44.6332 64.4433C43.579 64.0956 42.4107 64.1567 41.3953 64.6213C43.2479 58.4905 46.1298 53.0467 49.6625 47.7365C42.547 46.3595 35.8014 52.4598 31.2756 57.1413C25.1197 75.3502 30.0099 95.7178 43.8683 109.248C41.718 104.016 39.8098 97.3673 39.2534 91.7316C40.2632 91.9875 41.3453 91.879 42.2855 91.4228C42.9865 98.5996 45.8933 107.22 49.0533 113.674C59.8796 121.724 73.5488 125.081 86.8147 123.012M125.271 53.158C118.501 46.0619 111.691 40.4985 102.286 37.4108C91.9469 34.568 81.1929 35.6194 71.151 31.3718C68.5529 32.9546 65.8742 34.9185 63.596 36.9352C79.6185 42.3817 92.99 52.9577 103.082 66.2096C102.056 66.5434 101.277 67.1943 100.67 68.1067C91.3627 55.3277 76.2971 43.5667 60.9283 39.2996C58.6946 41.2718 56.4526 43.7892 54.6334 46.1565C64.5807 50.1482 67.532 64.3153 69.5849 73.5561C73.3792 91.3088 76.9926 108.992 90.4114 122.316C101.583 119.721 111.349 113.395 118.32 104.73C115.371 94.2407 111.402 84.9304 105.961 76.0206C107.01 75.6423 107.875 74.8774 108.389 73.901C113.769 82.5131 117.892 91.943 120.618 101.64C130.409 87.3755 132.164 68.9691 125.269 53.1607L125.271 53.158ZM87.9607 23.597C83.1762 25.152 78.898 27.024 74.4612 29.3857C81.1707 31.8169 88.3863 31.9643 95.399 32.8544C105.165 34.3482 112.376 37.7113 120.064 43.9784C112.559 33.4831 101.135 25.967 87.9607 23.597ZM64.8032 24.8627C66.8589 25.8502 68.8478 26.9934 70.9118 27.9531C74.1163 26.0004 77.51 24.2173 81.0065 22.8487C75.5322 22.6373 70.0578 23.3105 64.8004 24.8654L64.8032 24.8627ZM47.4511 33.9866C51.682 34.0895 56.0771 34.7877 60.1522 35.9171C62.6391 33.7168 65.1899 31.7501 67.9187 29.8614C65.5098 28.6207 63.112 27.3245 60.5973 26.3064C55.8156 28.1979 51.3899 30.8016 47.4483 33.9838L47.4511 33.9866ZM34.2047 50.2261C39.1589 46.2288 45.1506 43.2357 51.6403 45.0549C53.4567 42.6877 55.415 40.5096 57.5208 38.4011C53.0589 37.4387 48.5916 36.8323 44.0129 37.027C40.0685 40.8462 36.7416 45.2997 34.2047 50.2233V50.2261ZM79.0427 19.7555C108.481 19.7555 132.493 43.767 132.493 73.2056C132.493 102.644 108.481 126.656 79.0427 126.656C49.6041 126.656 25.5926 102.644 25.5926 73.2056C25.5926 43.767 49.6041 19.7555 79.0427 19.7555Z" fill="#1A1A18"/>
<path fill-rule="evenodd" clip-rule="evenodd" d="M141.536 63.7283C146.919 54.7769 154.704 50.8324 159.005 51.5306C163.155 52.2038 166.154 56.2818 156.93 62.4543C136.14 76.36 112.932 79.4782 90.9566 86.5548C58.2607 97.0835 30.7137 108.939 4.39337 131.32L27.053 148.456C43.3648 130.074 59.6766 119.195 80.7256 106.227C104.414 93.8178 129.731 83.6869 153.353 71.2639C168.905 63.083 175.687 51.4889 162.919 49.0355C158.529 48.1926 147.291 53.0717 141.536 63.7283Z" fill="#1A1A18"/>
<path fill-rule="evenodd" clip-rule="evenodd" d="M96.9484 6.57859L101.099 8.01672L100.253 10.459L99.6606 10.2532L99.2127 11.5439L100.832 10.6593L100.662 10.6009L101.508 8.15858L105.73 9.62175L104.823 12.2421L103.772 11.8777L101.964 12.8346L102.331 16.6872L103.33 17.0322L102.412 19.6831L98.1056 18.1921L99.0041 15.5996L99.5576 15.7915L99.3963 14.256L98.1167 14.9069L97.9971 15.2491L98.5618 15.4438L97.6633 18.0363L93.4852 16.5899L94.4032 13.9389L95.1181 14.1865L96.7593 9.4465L96.0444 9.19893L96.9512 6.57859H96.9484ZM104.64 10.1753L102.095 9.29351L101.772 10.2226L102.651 10.5286L97.7913 13.1906L99.1348 9.3102L99.7579 9.52717L100.072 8.59531L97.5771 7.7302L97.2544 8.65929L97.9526 8.90129L95.705 15.391L95.0068 15.149L94.7036 16.0196L97.2071 16.8875L97.502 16.0141L96.8872 15.7999L97.3991 14.3228L100.042 12.9069L100.403 17.0155L99.6105 16.7401L99.3073 17.6107L101.825 18.4842L102.125 17.6135L101.458 17.3826L101.024 12.3701L103.772 10.8874L104.323 11.0766L104.634 10.1753H104.64ZM104.161 20.4703L108.15 22.8264L109.558 20.4453L109.135 20.1977L111.218 18.3229L110.595 21.06L110.142 20.793L108.734 23.1741L112.701 25.5163L114.106 23.1324L113.168 22.5788L115.021 14.5787L112.743 13.2352L106.542 18.665L105.572 18.0892L104.164 20.4703H104.161ZM105.449 20.2088L105.944 19.3688L106.695 19.8111L112.857 14.3923L113.928 15.0238L112.095 22.9961L112.929 23.4912L112.431 24.3313L109.964 22.8737L110.462 22.0336L111.138 22.4342L112.62 16.0113L107.658 20.3757L108.3 20.7541L107.803 21.5941L105.449 20.2033V20.2088ZM121.666 30.8349L119.018 30.9656L116.098 28.3592L115.983 25.7583L117.06 24.5538L119.174 26.4426L118.726 26.9461L119.933 28.0254L120.634 27.2409L118.685 25.4996L118.559 22.8876L119.959 21.3215L119.335 20.7624L121.182 18.6956L124.484 21.647L122.718 23.622L122.381 23.3188L121.525 24.2757L122.498 25.1435L123.355 24.1866L123.029 23.8974L124.796 21.9224L128.109 24.8821L126.262 26.9516L125.63 26.3897C124.306 27.8696 122.988 29.3522 121.664 30.8349H121.666ZM116.963 26.1227L117.043 27.9419L119.372 30.0254L121.205 29.9141L123.814 26.9934L125.525 25.0768L126.156 25.6415L126.81 24.9071L124.865 23.1686L124.209 23.9029L124.582 24.2339L122.579 26.476L120.676 24.7819L120.604 23.9224L122.217 22.1199L122.612 22.4731L123.266 21.7415L121.322 20.003L120.665 20.7374L121.271 21.2798L119.536 23.2103L119.594 25.0545L121.981 27.1936L121.689 27.5219L120.465 28.8933L119.522 28.9433L117.906 27.4969L117.886 26.4982L117.185 25.8724L116.96 26.1227H116.963ZM133.383 34.3064L132.813 34.7348L133.402 35.5164L134.729 34.5178L131.066 29.6527L130.301 30.2285L130.726 30.7931L125.235 34.9267L124.81 34.362L124.031 34.949L127.158 39.0993L129.007 39.2856L130.835 37.9087L131.069 36.0644L129.191 33.5721L131.505 31.8279C132.128 32.6569 132.751 33.4663 133.383 34.3036V34.3064ZM122.762 34.7292L126.712 39.9727L129.263 40.2759L131.708 38.4344L132.039 35.8447L130.484 33.7807L131.344 33.1353L131.372 33.1715L132.078 34.1117L131.519 34.5317L133.222 36.7905L136 34.6986C134.409 32.5846 132.815 30.4705 131.224 28.3536L128.982 30.0421L129.416 30.6207L125.402 33.6416L124.968 33.063L122.76 34.7264L122.762 34.7292ZM126.009 35.9532L127.639 38.1173L128.493 38.2147L129.939 37.1243L130.034 36.312L128.404 34.1479L126.009 35.9504V35.9532ZM127.311 36.1701L128.228 35.4803L129.071 36.6013L128.156 37.2912L127.313 36.1701H127.311ZM14.8637 51.3999L15.662 53.1023L21.3728 55.1496L23.1225 54.3624L24.085 51.6753L23.2727 49.8978L22.1879 49.5083L21.8346 50.493L22.7192 50.8101L23.117 51.6447L22.4466 53.5167L21.6093 53.9117L16.3102 52.0118L15.9736 51.1968L16.6662 49.2663L17.3922 48.8991L18.1238 49.1606L18.4771 48.1759L17.548 47.8421L15.8707 48.5931L14.8665 51.3943L14.8637 51.3999ZM13.8873 51.5195L15.1752 47.9283L17.548 46.8129L19.6927 47.5806L18.6941 50.3679L17.4062 49.9061L16.9444 51.1912L21.6454 52.8769L22.1072 51.5918L20.6524 51.0688L21.6538 48.2816L24.0238 49.1328L25.117 51.6057L23.8652 55.0939L21.4507 56.2094L14.9527 53.8783L13.8929 51.5195H13.8873ZM12.3657 74.6075L13.0779 74.5685L13.0222 73.5921L11.3643 73.6839L11.7009 79.7619L12.6578 79.7091L12.6189 79.0025L19.4813 78.6214L19.5202 79.328L20.4938 79.2723L20.2045 74.0845L18.772 72.8995L16.4882 73.0275L15.267 74.4294L15.4423 77.5449L12.5466 77.7063C12.4881 76.6715 12.4214 75.6506 12.363 74.6075H12.3657ZM21.4257 80.1625L21.0613 73.6088L19.1085 71.937L16.0543 72.1067L14.338 74.0734L14.4826 76.6548L13.4089 76.7132V76.6659L13.3421 75.492L14.0403 75.4531L13.8845 72.6269L10.4102 72.8216C10.5576 75.4614 10.7051 78.1068 10.8525 80.7494L13.6537 80.5937L13.6147 79.8704L18.6301 79.5895L18.669 80.3127L21.4312 80.1597L21.4257 80.1625ZM19.409 77.3391L19.2588 74.6353L18.6023 74.0789L16.7942 74.1791L16.2657 74.7994L16.4159 77.5032L19.409 77.3363V77.3391ZM18.4493 76.435L17.3032 76.499L17.2253 75.0998L18.3714 75.0358L18.4493 76.435ZM20.2407 68.1428L20.5801 65.8118L19.6677 65.6782L19.5536 66.4543L17.5591 65.4724L18.0265 62.2596L20.2157 61.8868L20.1099 62.624L21.0223 62.7575L21.3784 60.3068L20.466 60.1733L20.3742 60.8103L12.2461 62.1427L12.018 63.7172L19.4145 67.4224L19.3283 68.0065L20.2407 68.14V68.1428ZM21.0307 69.2416L18.2573 68.8382L18.3825 67.9676L11.0417 64.2707L11.47 61.3138L19.5314 60.0426L19.6677 59.094L22.441 59.4973L21.7984 63.9202L19.1531 63.5364L19.2504 62.8604L18.6384 62.9661L18.3519 64.9328L18.9055 65.2193L19.0001 64.5711L21.6454 64.955L21.0223 69.2444L21.0307 69.2416ZM16.7997 65.0357L13.0834 63.2165L13.1112 63.0245L17.1836 62.3903L16.7997 65.0357ZM16.2323 63.962L16.3352 63.2582L15.1892 63.4279L16.2351 63.962H16.2323ZM18.0014 41.3886L20.3464 37.675L22.5328 39.0548L22.1962 39.5861L23.3506 40.3149L22.8583 38.5374L22.7609 38.6904L20.5745 37.3106L22.9612 33.5303L25.3061 35.0102L24.7109 35.9532L25.231 37.931L29.067 38.4511L29.6317 37.5554L32.0044 39.052L29.5705 42.9074L27.2505 41.4414L27.5621 40.9463L26.0294 40.7544L26.3715 42.1508L26.6803 42.3455L26.9974 41.842L29.3173 43.3079L26.9557 47.0493L24.5829 45.5528L24.9862 44.913L20.7442 42.2342L20.3408 42.874L17.9959 41.3941L18.0014 41.3886ZM23.256 34.7153L21.8179 36.9935L22.6496 37.5193L23.1476 36.732L24.633 42.0701L21.1614 39.8781L21.5147 39.319L20.6774 38.8016L19.2671 41.0353L20.0988 41.561L20.4938 40.9352L26.302 44.6014L25.907 45.2273L26.6886 45.7197L28.1017 43.4804L27.3173 42.9936L26.9696 43.5444L25.6483 42.7099L24.8694 39.8142L28.9557 40.3983L28.5079 41.1076L29.2895 41.6L30.7109 39.3468L29.9293 38.8545L29.551 39.4525L24.569 38.7321L23.7484 35.7195L24.0599 35.2272L23.2533 34.7181L23.256 34.7153ZM26.021 29.2437L31.6873 23.4272L34.1129 25.7917L32.1352 27.8223L31.6901 27.3884L30.736 28.3675L31.5315 29.1436L33.2868 27.3411L35.2062 29.2132L33.4509 31.0157L34.3355 31.8752L35.2896 30.8961L34.7611 30.3815L36.7389 28.3508L39.2758 30.8237L33.6095 36.6402L31.6011 34.6819L32.1074 34.1646L28.5079 30.6568L28.0016 31.1742L26.021 29.2437ZM27.309 29.1826L28.0072 29.8641L28.5023 29.3578L33.4287 34.1562L32.9335 34.6625L33.5956 35.3078L37.9266 30.8627L36.7389 29.7055L36.0963 30.3648L36.6248 30.8794L34.3244 33.241L32.0934 31.0658L33.8709 29.241L33.2757 28.6624L31.4982 30.4872L29.398 28.4426L31.6762 26.1032L32.1213 26.5372L32.7861 25.8557L31.6428 24.7402L27.3117 29.1853L27.309 29.1826ZM34.889 20.003L42.3606 14.8235L44.5749 18.0169L42.5164 19.4439L41.8794 18.5231L41.4816 18.7985L44.3468 22.9293L44.9587 22.5037L46.5554 24.807L42.7501 27.4468L41.1534 25.1435L41.7987 24.6957L38.9336 20.5649L38.5275 20.8486L39.1645 21.7694L37.106 23.1964L34.8918 20.003H34.889ZM36.138 20.2061L37.3314 21.9279L38.0268 21.4467L37.3926 20.5315L39.1506 19.3131L43.0672 24.96L42.4886 25.3633L43.0143 26.1227L45.2453 24.5761L44.7195 23.8167L44.1465 24.2145L40.2299 18.5676L42.0102 17.3326L42.6444 18.2478L43.3092 17.786L42.1159 16.0641L36.1408 20.2088L36.138 20.2061ZM52.8671 11.5161L53.1647 12.1642L54.0521 11.7553L53.3566 10.2476L47.8267 12.7957L48.2272 13.6663L48.8698 13.3715L51.746 19.6136L51.1035 19.9112L51.5124 20.7958L56.2301 18.6205L56.8059 16.8513L55.849 14.7734L54.0938 14.1531L51.2593 15.4577L50.0464 12.8262C50.9894 12.3923 51.9129 11.9556 52.8643 11.5161H52.8671ZM51.0284 21.9836L56.9895 19.2353L57.8268 16.8068L56.5472 14.0279L54.0854 13.1545L51.7377 14.2366L51.2871 13.2602L51.3288 13.2407L52.397 12.7484L52.689 13.3826L55.2593 12.1976L53.8045 9.03759C51.4011 10.1447 48.9977 11.2518 46.5944 12.3617L47.7682 14.9097L48.4247 14.6065L50.5277 19.1685L49.8712 19.4717L51.0284 21.9836ZM52.9116 19.0739L55.3706 17.939L55.6488 17.1267L54.8921 15.4828L54.1188 15.2157L51.6598 16.3506L52.9144 19.0739H52.9116ZM53.4011 17.8472L52.9199 16.8041L54.1939 16.2171L54.6752 17.2603L53.4011 17.8472ZM61.6405 6.55633L65.546 5.65507L67.7797 7.04313L69.3263 13.7442L67.9299 15.9807L63.9966 16.8903L61.7907 15.4855L60.2302 8.72605L61.6433 6.55633H61.6405ZM62.2858 7.31295L61.2483 8.95414L62.6085 14.843L64.1551 15.8889L67.304 15.1601L68.311 13.5884L66.9368 7.64119L65.329 6.61197L62.2858 7.31573V7.31295ZM63.0341 8.14189L65.0008 7.68848L65.749 8.1558L67.0147 13.6413L66.5474 14.3896L64.5223 14.8569L63.8047 14.3812L62.539 8.89573L63.0341 8.14189ZM63.507 8.96527L64.6364 13.861L66.0272 13.5411L64.8951 8.64538L63.507 8.96527ZM72.9898 15.046L77.6213 14.9626L77.5712 12.1976L77.0816 12.2059L77.8744 9.51883L78.7757 12.1753L78.2472 12.1837L78.2972 14.9487L82.9009 14.8652L82.8508 12.1002L81.7604 12.1197L79.1456 4.33655L76.503 4.38384L74.0663 12.2588L72.9369 12.2783L72.987 15.0433L72.9898 15.046ZM73.9467 14.1503L73.93 13.174L74.8007 13.1573L77.2068 5.31292L78.4502 5.29067L81.0678 13.0432L82.0386 13.0265L82.0553 14.0029L79.1929 14.0558L79.1762 13.0794L79.9607 13.0655L77.8605 6.81781L75.9217 13.1378L76.6672 13.1239L76.6838 14.1003L73.9495 14.1503H73.9467Z" fill="white"/>
<path fill-rule="evenodd" clip-rule="evenodd" d="M60.8867 84.0263C61.0564 84.8246 61.3874 85.4088 61.9048 85.7481C63.5043 82.463 64.1913 80.1959 63.9438 78.9608C63.4597 76.5547 60.3387 81.4449 60.8867 84.0263ZM116.431 70.6186C117.118 73.2139 119.341 72.5129 120.345 70.6464C119.194 69.7284 119.803 67.2249 121.363 68.3654C121.73 67.122 122.721 59.987 119.781 60.8938C117.002 61.7505 115.755 68.0789 116.429 70.6186H116.431ZM103.366 70.4628C103.171 71.4364 103.026 76.1708 105.088 75.3975C108.84 73.99 109.689 65.7951 108.237 64.5434C105.541 62.2179 103.666 68.9635 103.366 70.4628ZM90.1834 78.1903C90.8009 80.9191 93.0958 79.965 94.1334 78.1903C92.9873 77.3308 93.7022 74.7299 95.2238 75.8899C95.6049 74.6353 96.5785 67.453 93.6243 68.3821C90.8732 69.2472 89.6104 75.6534 90.1834 78.1903ZM100.79 58.7463C99.8331 56.7574 111.082 49.934 112.061 56.9132C113.177 61.9008 110.142 70.7604 107.836 75.2723C105.202 80.424 99.8303 81.6618 99.1154 73.8175C98.751 74.5658 97.8664 76.7049 95.4881 78.5658C92.6062 84.0791 87.1708 85.431 85.894 78.8162C85.2542 80.8885 83.9552 85.3031 81.7493 86.0347C79.1345 86.9025 79.3599 82.3851 79.5713 81.0944C79.6937 80.3489 82.7702 71.428 81.4711 71.6116C81.0873 71.6673 80.6005 72.4656 79.9384 73.837C77.8105 78.2432 76.9398 83.011 76.4196 87.1779C75.4738 87.4811 73.6407 88.0875 72.6922 88.3963C73.6045 83.9623 74.8396 79.7564 76.2583 75.6534C77.4377 72.2069 76.275 72.46 74.8396 75.2668C72.5475 79.7508 71.1761 84.5103 70.005 89.3449C68.6977 89.7371 66.6837 90.3908 65.7046 90.7858C66.8478 86.4297 68.9814 81.0443 70.7422 77.5922C71.318 76.4657 71.7686 74.7382 71.2123 74.474C69.1511 73.4893 66.5085 88.7524 62.1218 87.2085C60.9646 89.8734 58.1273 93.484 55.4012 94.4965C49.3538 96.7358 49.9352 88.7969 51.8712 85.5451C49.9853 87.6369 44.2661 93.025 46.0269 89.9735C48.0548 88.1348 50.5833 84.9971 53.2398 82.0262C55.1453 75.6033 57.9019 63.044 64.3221 59.9619C67.7102 58.8743 68.9981 60.3263 68.8618 62.6184C68.5614 67.7089 61.0397 76.9246 57.2788 80.4184C55.8045 84.004 54.6168 88.2378 55.0006 90.3797C55.7044 93.968 60.5584 88.107 61.3012 86.9999C58.9228 85.8344 59.2483 82.0068 59.9882 79.762C60.5779 77.4253 64.2164 73.8092 65.1454 77.2612C65.8158 79.8899 63.9855 83.8343 62.7337 86.0653C66.0551 87.6035 67.6156 72.2792 71.9912 71.912C73.8799 71.7535 73.9217 74.3182 73.841 75.6145C74.1664 74.8551 76.7228 68.3348 78.5142 71.0358C79.1206 71.951 79.1095 72.7827 79.0956 73.8119C80.2444 70.9579 81.1985 69.4308 82.0275 69.1804C87.5324 67.517 80.8759 83.2919 82.9927 82.6688C84.3196 82.2794 86.0526 75.467 86.4198 74.0734L86.4309 74.1235C87.4657 70.9245 89.8468 68.0594 93.1654 66.994C97.6995 65.5475 97.3657 73.7785 96.3031 76.2765C99.2545 74.1151 99.6105 68.5073 102.236 65.5225C103.527 63.5225 108.059 60.9689 109.405 64.4265C109.803 62.5739 110.047 60.4265 109.405 58.7686C107.046 52.6656 101.188 59.4195 100.793 58.7519L100.79 58.7463ZM121.274 83.8149C117.577 84.4101 122.265 75.2807 122.899 74.1402C123.998 71.8063 125.21 69.0441 126.167 66.7325C124.507 68.9217 122.512 71.0803 121.703 71.0358C118.596 77.6729 112.298 77.4087 112.131 70.3293C112.098 68.8466 112.312 68.154 112.584 66.7325C112.632 66.638 112.684 66.5434 112.718 66.4432C113.853 63.1776 115.8 60.6073 119.316 59.5002C123.828 58.0871 123.402 66.2958 122.443 68.7743C123.336 68.5545 125.324 66.3821 127.144 64.2902C128.459 60.9633 129.683 57.5975 130.896 54.0981C132.468 51.0299 134.713 52.048 134.126 54.9688C133.516 56.2762 133.28 56.8909 132.446 58.8103C133.834 56.9716 136.877 55.183 138.546 57.2665C140.543 59.2721 135.466 63.681 136.009 66.1595C136.482 68.3376 138.746 65.6866 140.549 63.0162C141.366 61.8062 142.423 61.6393 142.12 62.0565C141.711 64.5378 136.576 71.9065 133.23 69.6005C129.644 67.1971 134.226 62.6769 135.494 59.4612C135.692 58.7853 135.489 58.1093 134.713 58.2317C133.055 58.4988 131.525 60.9383 130.938 62.3458L124.159 79.7787C123.288 82.3016 122.329 83.6452 121.274 83.8149ZM57.9353 77.7313C58.4082 74.7549 60.2942 70.2597 62.3777 66.8744C64.4834 63.4502 66.6782 61.1191 67.2289 62.3681C68.5196 65.2916 59.7128 75.6061 57.9353 77.7313ZM34.0601 89.8317C34.558 90.171 35.3202 90.4102 36.3522 90.5716C37.4844 90.5911 38.3856 90.4798 39.0393 90.2239L39.9128 89.9318L41.8683 84.7384C41.0616 81.9539 39.668 80.0902 37.6986 79.1472L35.9739 84.4046L34.0601 89.8317ZM38.6165 93C36.6109 93.6732 34.8 93.5452 33.1867 92.6356C32.0211 95.8067 30.5635 98.6162 28.8111 101.047C26.7916 103.874 24.7693 105.623 22.7609 106.296C21.1837 106.825 19.7066 106.75 18.3269 106.066C16.9472 105.381 16.0209 104.205 15.5369 102.533C15.0863 100.975 15.2698 99.5286 16.1016 98.2073C16.7998 97.0946 17.7344 96.3408 18.9083 95.9458C19.523 95.74 20.0349 95.6648 20.4466 95.7066L20.4048 96.0821L20.4493 96.516C20.5634 96.9083 20.8193 97.1475 21.2115 97.2448C21.562 97.3839 22.1489 97.3227 22.9723 97.0446C23.9348 96.7219 25.0113 95.6927 26.2074 93.9708C27.0141 92.8025 27.7819 91.4756 28.5107 89.9791C27.4953 89.05 26.7749 87.8511 26.3493 86.3879C25.7012 84.1515 25.818 82.0485 26.7053 80.0902C27.7012 77.8927 29.4119 76.3822 31.8459 75.5672C33.1728 75.1221 34.316 74.9941 35.2952 75.1916C37.8432 68.6157 40.9364 64.713 44.5832 63.4891C45.8851 63.0524 47.0033 63.172 47.9435 63.8424C48.7307 64.4182 49.3038 65.3139 49.6598 66.5406C50.447 69.2555 50.1132 73.2167 48.6528 78.4045L46.5054 86.0569C47.1535 85.6007 47.7738 85.0472 48.3691 84.4018C48.8503 83.7342 49.2231 82.9971 49.4679 82.1904L49.7154 81.8788L50.0298 82.0485L50.0437 82.463C49.4456 85.0499 47.9407 87.3893 45.5262 89.47L42.7139 99.4201L35.4899 101.846L38.8057 92.9305L38.611 92.9944L38.6165 93ZM44.2828 78.1959L46.1966 72.5212C47.0395 70.0427 47.2759 68.1679 46.9143 66.9134C46.5582 65.6866 45.8712 65.2471 44.8447 65.5921C43.1868 66.1484 41.7515 68.0233 40.5498 71.225L38.5664 76.5018C40.1687 77.0721 41.6458 78.8273 42.9838 81.7898L44.2828 78.1931V78.1959ZM32.1964 78.7578C31.17 79.1027 30.3382 79.7258 29.704 80.6271C28.7944 81.9261 28.6164 83.5145 29.1644 85.4004C29.3368 85.9929 29.6122 86.5771 29.9794 87.1418L31.8654 82.7829L33.5956 78.6493C33.1449 78.5631 32.6748 78.5964 32.1964 78.755V78.7578Z" fill="#1A1A18"/>
</svg>
