<svg width="253" height="44" viewBox="0 0 253 44" fill="none" xmlns="http://www.w3.org/2000/svg">
<path d="M21.8502 44C17.324 44 9.75375 44 4.99529 39.2896C0.260864 34.6032 0.260864 26.9689 0.260864 22.4027C0.260864 17.8365 0.260864 10.2021 4.99529 5.52375C9.75375 0.813354 17.324 0.813354 21.8502 0.813354C26.3763 0.813354 34.0507 0.813354 38.7371 5.54778C43.4475 10.3062 43.4475 17.8845 43.4475 22.4027C43.4475 26.9288 43.4475 34.5071 38.7371 39.2575C34.0507 43.992 26.4164 43.992 21.8502 43.992V44Z" fill="white"/>
<path d="M17.7326 30.5096C17.7326 34.1305 17.3801 34.483 13.7592 34.483C10.1383 34.483 9.7858 34.1305 9.7858 30.5096C9.7858 26.8887 10.1383 26.5362 13.7592 26.5362C17.3801 26.5362 17.7326 26.8887 17.7326 30.5096ZM29.9492 10.3302C27.3937 10.3302 25.9758 11.7481 25.9758 14.3036C25.9758 16.8591 27.3937 18.277 29.9492 18.277C32.5046 18.277 33.9226 16.8591 33.9226 14.3036C33.9226 11.7481 32.5046 10.3302 29.9492 10.3302ZM4.16217 15.0887C3.73759 17.58 3.71356 20.1756 3.71356 22.4026L15.4495 22.4106C21.4817 22.4106 21.8422 22.7631 21.8422 28.8033V40.5392H21.8502C24.0772 40.5392 26.6727 40.5152 29.1641 40.0906C29.1561 33.5938 28.8757 25.2545 23.957 20.2957C19.0624 15.353 10.6189 15.0967 4.16217 15.0887Z" fill="white"/>
<path d="M39.9868 22.4027C39.9868 17.7324 39.8586 11.5961 36.2778 7.97515C32.7129 4.37025 26.4965 4.26611 21.8502 4.26611C17.1798 4.26611 11.0435 4.39429 7.4226 7.97515C5.54805 9.82566 4.6268 12.3971 4.17018 15.0888C10.635 15.0968 19.0704 15.3451 23.965 20.2959C28.8757 25.2626 29.1641 33.5939 29.1721 40.0907C31.8638 39.6341 34.4353 38.7049 36.2858 36.8383C39.8666 33.2174 39.9948 27.0811 39.9948 22.4107L39.9868 22.4027ZM29.9492 18.2771C27.3937 18.2771 25.9758 16.8592 25.9758 14.3037C25.9758 11.7483 27.3937 10.3303 29.9492 10.3303C32.5046 10.3303 33.9226 11.7483 33.9226 14.3037C33.9226 16.8592 32.5046 18.2771 29.9492 18.2771ZM15.4495 22.4188H3.71356C3.71356 27.057 3.8177 33.2735 7.4226 36.8383C11.0435 40.4192 17.1638 40.5474 21.8422 40.5474V28.8114C21.8422 22.7792 21.4897 22.4188 15.4495 22.4188ZM13.7512 34.4831C10.1303 34.4831 9.77779 34.1306 9.77779 30.5097C9.77779 26.8888 10.1303 26.5363 13.7512 26.5363C17.3721 26.5363 17.7246 26.8888 17.7246 30.5097C17.7246 34.1306 17.3721 34.4831 13.7512 34.4831Z" fill="#250E62"/>
<path d="M120.696 7.95906H142.734V36.8302H135.821V13.6948H127.137V20.9367C127.137 32.0157 125.086 36.4137 118.189 36.9184L116.194 30.5898H116.595C119.575 30.5898 120.696 27.8741 120.696 20.8966V7.95906ZM107.27 12.9098L114.824 36.8302H108.087L106.14 30.7099H94.5167L92.5701 36.8302H86.2175L93.7317 12.9178C94.8612 9.32892 96.5595 7.95906 100.501 7.95906C104.434 7.95906 106.132 9.32892 107.27 12.9098ZM104.37 25.0623L101.214 15.1769C101.086 14.7763 100.709 14.5039 100.285 14.5039C99.86 14.5039 99.4835 14.7763 99.3553 15.1849L96.2871 25.0623H104.37ZM145.979 13.6868H155.311V36.8222H162.225V13.6868H171.557V7.95906H145.979V13.6868ZM227.033 7.95906V13.6868H236.365V36.8222H243.279V13.6868H252.611V7.95906H227.033ZM209.833 24.846H222.234V19.3746H209.833V13.6468H224.181V7.95906H202.92V28.4108C202.92 33.698 206.06 36.8302 211.363 36.8302H224.397V31.1425H211.524C209.953 31.1425 209.833 31.0224 209.833 29.4602V24.854V24.846ZM84.4711 27.834C84.4711 33.4336 81.0745 36.8222 75.4589 36.8222H60.7349V7.95105H82.4684V13.6788H67.6483V18.8458H75.4669C81.0825 18.8458 84.4791 22.2344 84.4791 27.834H84.4711ZM77.5817 29.6285V26.0556C77.5817 24.4855 77.4616 24.3733 75.8914 24.3733H67.6402V31.3108H75.8914C77.4616 31.3108 77.5817 31.1906 77.5817 29.6285ZM198.538 27.9141C198.538 33.5137 195.141 36.9023 189.526 36.9023H174.802V8.03116H196.535V13.7589H181.715V18.9259H189.534C195.149 18.9259 198.546 22.3145 198.546 27.9141H198.538ZM191.649 29.7086V26.1357C191.649 24.5656 191.528 24.4534 189.958 24.4534H181.707V31.3909H189.958C191.528 31.3909 191.649 31.2707 191.649 29.7086Z" fill="white"/>
</svg>
