<svg width="1131" height="274" viewBox="0 0 1131 274" fill="none" xmlns="http://www.w3.org/2000/svg">
<path d="M46.098 183.473V151.362H14.972V126.54H46.098V94.6261H70.723V126.54H101.849V151.362H70.723V183.473H46.098Z" fill="white"/>
<path d="M431.966 128.416C429.787 128.416 427.913 127.954 426.343 127.031C424.783 126.098 423.582 124.805 422.742 123.153C421.911 121.5 421.496 119.598 421.496 117.447C421.496 115.268 421.916 113.357 422.756 111.713C423.605 110.06 424.81 108.772 426.371 107.849C427.931 106.917 429.787 106.45 431.938 106.45C433.794 106.45 435.419 106.787 436.813 107.461C438.207 108.135 439.311 109.082 440.123 110.3C440.936 111.519 441.384 112.95 441.467 114.594H435.899C435.742 113.532 435.327 112.678 434.653 112.032C433.988 111.376 433.115 111.048 432.035 111.048C431.121 111.048 430.322 111.298 429.639 111.796C428.965 112.286 428.439 113.001 428.06 113.943C427.682 114.885 427.493 116.025 427.493 117.364C427.493 118.721 427.677 119.875 428.047 120.826C428.425 121.777 428.956 122.502 429.639 123C430.322 123.499 431.121 123.748 432.035 123.748C432.709 123.748 433.314 123.61 433.849 123.333C434.394 123.056 434.842 122.654 435.193 122.128C435.553 121.592 435.788 120.951 435.899 120.203H441.467C441.374 121.828 440.931 123.259 440.137 124.496C439.352 125.724 438.267 126.684 436.882 127.377C435.498 128.069 433.859 128.416 431.966 128.416ZM454.939 128.416C452.75 128.416 450.867 127.972 449.288 127.086C447.718 126.19 446.509 124.925 445.66 123.291C444.81 121.648 444.385 119.704 444.385 117.461C444.385 115.272 444.81 113.352 445.66 111.699C446.509 110.047 447.705 108.759 449.247 107.835C450.798 106.912 452.617 106.45 454.703 106.45C456.107 106.45 457.413 106.677 458.623 107.129C459.841 107.572 460.903 108.242 461.808 109.137C462.722 110.033 463.433 111.159 463.941 112.516C464.449 113.864 464.703 115.443 464.703 117.253V118.873H446.74V115.217H459.149C459.149 114.368 458.964 113.615 458.595 112.96C458.226 112.304 457.713 111.792 457.058 111.422C456.411 111.044 455.659 110.854 454.8 110.854C453.905 110.854 453.111 111.062 452.418 111.478C451.735 111.884 451.199 112.433 450.812 113.126C450.424 113.809 450.225 114.571 450.216 115.411V118.887C450.216 119.94 450.41 120.849 450.798 121.615C451.195 122.382 451.753 122.973 452.473 123.388C453.194 123.804 454.048 124.011 455.036 124.011C455.691 124.011 456.291 123.919 456.836 123.734C457.381 123.55 457.847 123.273 458.235 122.903C458.623 122.534 458.918 122.082 459.121 121.546L464.578 121.906C464.301 123.217 463.733 124.362 462.874 125.341C462.025 126.31 460.926 127.068 459.578 127.612C458.239 128.148 456.693 128.416 454.939 128.416ZM467.459 121.976H473.178C473.206 122.677 473.52 123.231 474.12 123.637C474.72 124.044 475.496 124.247 476.447 124.247C477.407 124.247 478.215 124.025 478.87 123.582C479.526 123.13 479.854 122.483 479.854 121.643C479.854 121.126 479.725 120.678 479.466 120.3C479.207 119.912 478.847 119.607 478.386 119.386C477.924 119.164 477.389 119.053 476.779 119.053H473.718V115.189H476.779C477.693 115.189 478.395 114.977 478.884 114.552C479.383 114.128 479.632 113.597 479.632 112.96C479.632 112.239 479.374 111.662 478.857 111.228C478.349 110.785 477.661 110.564 476.793 110.564C475.916 110.564 475.187 110.762 474.605 111.159C474.032 111.547 473.737 112.055 473.718 112.683H468.026C468.045 111.408 468.428 110.305 469.176 109.373C469.933 108.44 470.949 107.72 472.223 107.212C473.506 106.704 474.942 106.45 476.53 106.45C478.266 106.45 479.761 106.695 481.017 107.184C482.282 107.664 483.252 108.352 483.926 109.248C484.609 110.144 484.95 111.21 484.95 112.447C484.95 113.574 484.581 114.515 483.842 115.272C483.104 116.03 482.07 116.57 480.74 116.893V117.114C481.617 117.17 482.411 117.405 483.122 117.821C483.833 118.236 484.401 118.809 484.826 119.538C485.25 120.258 485.463 121.112 485.463 122.1C485.463 123.421 485.075 124.552 484.299 125.493C483.533 126.435 482.471 127.16 481.114 127.668C479.766 128.166 478.22 128.416 476.475 128.416C474.776 128.416 473.252 128.171 471.904 127.682C470.565 127.183 469.499 126.454 468.705 125.493C467.92 124.533 467.505 123.361 467.459 121.976ZM498.692 128.416C496.541 128.416 494.681 127.959 493.111 127.044C491.551 126.121 490.346 124.838 489.496 123.194C488.647 121.542 488.222 119.626 488.222 117.447C488.222 115.249 488.647 113.329 489.496 111.685C490.346 110.033 491.551 108.749 493.111 107.835C494.681 106.912 496.541 106.45 498.692 106.45C500.844 106.45 502.7 106.912 504.26 107.835C505.83 108.749 507.039 110.033 507.888 111.685C508.738 113.329 509.163 115.249 509.163 117.447C509.163 119.626 508.738 121.542 507.888 123.194C507.039 124.838 505.83 126.121 504.26 127.044C502.7 127.959 500.844 128.416 498.692 128.416ZM498.72 123.845C499.699 123.845 500.516 123.568 501.172 123.014C501.827 122.451 502.321 121.685 502.653 120.715C502.995 119.746 503.166 118.642 503.166 117.405C503.166 116.168 502.995 115.065 502.653 114.095C502.321 113.126 501.827 112.359 501.172 111.796C500.516 111.233 499.699 110.951 498.72 110.951C497.732 110.951 496.901 111.233 496.227 111.796C495.563 112.359 495.059 113.126 494.718 114.095C494.385 115.065 494.219 116.168 494.219 117.405C494.219 118.642 494.385 119.746 494.718 120.715C495.059 121.685 495.563 122.451 496.227 123.014C496.901 123.568 497.732 123.845 498.72 123.845ZM527.804 115.009V119.649H516.697V115.009H527.804ZM518.636 106.727V128H512.999V106.727H518.636ZM531.502 106.727V128H525.907V106.727H531.502ZM550.884 115.009V119.649H539.777V115.009H550.884ZM541.716 106.727V128H536.079V106.727H541.716ZM554.582 106.727V128H548.987V106.727H554.582ZM562.857 113.264H569.214C572.03 113.264 574.227 113.938 575.806 115.286C577.385 116.625 578.174 118.416 578.174 120.66C578.174 122.119 577.819 123.402 577.108 124.51C576.397 125.609 575.372 126.467 574.033 127.086C572.695 127.695 571.088 128 569.214 128H559.159V106.727H564.796V123.361H569.214C570.202 123.361 571.014 123.111 571.651 122.613C572.288 122.114 572.612 121.477 572.621 120.701C572.612 119.88 572.288 119.21 571.651 118.693C571.014 118.167 570.202 117.904 569.214 117.904H562.857V113.264ZM580.46 128V106.727H586.359V128H580.46ZM596.712 120.217L604.371 106.727H610.187V128H604.564V114.469L596.933 128H591.075V106.727H596.712V120.217ZM603.36 99.304H607.473C607.464 100.984 606.84 102.337 605.603 103.362C604.375 104.387 602.713 104.899 600.617 104.899C598.512 104.899 596.846 104.387 595.618 103.362C594.39 102.337 593.776 100.984 593.776 99.304H597.861C597.852 99.9411 598.055 100.514 598.471 101.021C598.895 101.529 599.611 101.783 600.617 101.783C601.596 101.783 602.298 101.534 602.722 101.035C603.147 100.537 603.36 99.9596 603.36 99.304ZM630.009 128.402C628.652 128.402 627.443 128.166 626.381 127.695C625.319 127.215 624.479 126.509 623.86 125.576C623.251 124.635 622.946 123.462 622.946 122.059C622.946 120.877 623.163 119.884 623.597 119.081C624.031 118.278 624.622 117.631 625.37 117.142C626.118 116.653 626.967 116.283 627.918 116.034C628.878 115.785 629.885 115.609 630.937 115.508C632.174 115.379 633.172 115.259 633.929 115.148C634.686 115.028 635.235 114.852 635.577 114.622C635.918 114.391 636.089 114.049 636.089 113.597V113.514C636.089 112.636 635.812 111.958 635.258 111.478C634.714 110.998 633.938 110.758 632.932 110.758C631.87 110.758 631.025 110.993 630.397 111.464C629.769 111.925 629.354 112.507 629.151 113.209L623.694 112.766C623.971 111.473 624.516 110.356 625.328 109.414C626.141 108.463 627.189 107.734 628.472 107.226C629.765 106.709 631.26 106.45 632.959 106.45C634.141 106.45 635.272 106.589 636.352 106.866C637.442 107.143 638.407 107.572 639.247 108.154C640.096 108.736 640.766 109.483 641.255 110.397C641.744 111.302 641.989 112.387 641.989 113.652V128H636.394V125.05H636.228C635.886 125.715 635.429 126.301 634.857 126.809C634.284 127.308 633.596 127.7 632.793 127.986C631.99 128.263 631.062 128.402 630.009 128.402ZM631.699 124.33C632.567 124.33 633.333 124.159 633.998 123.818C634.663 123.467 635.184 122.996 635.563 122.405C635.941 121.814 636.131 121.145 636.131 120.397V118.139C635.946 118.259 635.692 118.37 635.369 118.472C635.055 118.564 634.7 118.652 634.303 118.735C633.906 118.809 633.509 118.878 633.112 118.943C632.715 118.998 632.354 119.049 632.031 119.095C631.339 119.196 630.734 119.358 630.217 119.58C629.7 119.801 629.298 120.101 629.012 120.48C628.726 120.849 628.583 121.311 628.583 121.865C628.583 122.668 628.874 123.282 629.455 123.707C630.046 124.122 630.794 124.33 631.699 124.33ZM664.252 98.9163L666.052 102.766C665.452 103.265 664.788 103.634 664.058 103.874C663.329 104.105 662.456 104.258 661.441 104.331C660.434 104.405 659.206 104.456 657.757 104.484C656.113 104.502 654.774 104.765 653.74 105.273C652.706 105.781 651.921 106.58 651.386 107.669C650.85 108.749 650.5 110.162 650.333 111.907H650.541C651.178 110.605 652.074 109.599 653.228 108.888C654.391 108.177 655.827 107.821 657.535 107.821C659.345 107.821 660.928 108.218 662.285 109.012C663.652 109.807 664.714 110.947 665.471 112.433C666.228 113.92 666.606 115.702 666.606 117.779C666.606 119.94 666.182 121.819 665.332 123.416C664.492 125.004 663.296 126.237 661.745 127.114C660.194 127.982 658.348 128.416 656.206 128.416C654.054 128.416 652.198 127.963 650.638 127.058C649.087 126.153 647.887 124.819 647.037 123.056C646.197 121.292 645.777 119.123 645.777 116.547V114.802C645.777 109.677 646.774 105.878 648.768 103.403C650.763 100.929 653.694 99.6734 657.563 99.6364C658.615 99.618 659.566 99.6133 660.416 99.6226C661.265 99.6318 662.008 99.5903 662.646 99.4979C663.292 99.4056 663.827 99.2117 664.252 98.9163ZM656.233 123.845C657.138 123.845 657.914 123.61 658.56 123.139C659.215 122.668 659.719 121.994 660.07 121.117C660.43 120.24 660.61 119.192 660.61 117.973C660.61 116.764 660.43 115.739 660.07 114.898C659.719 114.049 659.215 113.403 658.56 112.96C657.904 112.516 657.12 112.295 656.206 112.295C655.522 112.295 654.908 112.419 654.364 112.669C653.819 112.918 653.353 113.287 652.965 113.777C652.586 114.257 652.291 114.852 652.078 115.563C651.875 116.265 651.774 117.068 651.774 117.973C651.774 119.792 652.166 121.228 652.951 122.28C653.745 123.324 654.839 123.845 656.233 123.845ZM680.134 128.416C677.983 128.416 676.122 127.959 674.553 127.044C672.992 126.121 671.787 124.838 670.938 123.194C670.088 121.542 669.664 119.626 669.664 117.447C669.664 115.249 670.088 113.329 670.938 111.685C671.787 110.033 672.992 108.749 674.553 107.835C676.122 106.912 677.983 106.45 680.134 106.45C682.285 106.45 684.141 106.912 685.701 107.835C687.271 108.749 688.48 110.033 689.33 111.685C690.179 113.329 690.604 115.249 690.604 117.447C690.604 119.626 690.179 121.542 689.33 123.194C688.48 124.838 687.271 126.121 685.701 127.044C684.141 127.959 682.285 128.416 680.134 128.416ZM680.162 123.845C681.14 123.845 681.957 123.568 682.613 123.014C683.268 122.451 683.762 121.685 684.095 120.715C684.436 119.746 684.607 118.642 684.607 117.405C684.607 116.168 684.436 115.065 684.095 114.095C683.762 113.126 683.268 112.359 682.613 111.796C681.957 111.233 681.14 110.951 680.162 110.951C679.174 110.951 678.343 111.233 677.669 111.796C677.004 112.359 676.501 113.126 676.159 114.095C675.827 115.065 675.661 116.168 675.661 117.405C675.661 118.642 675.827 119.746 676.159 120.715C676.501 121.685 677.004 122.451 677.669 123.014C678.343 123.568 679.174 123.845 680.162 123.845ZM709.245 115.009V119.649H698.138V115.009H709.245ZM700.077 106.727V128H694.44V106.727H700.077ZM712.943 106.727V128H707.348V106.727H712.943ZM723.157 120.217L730.816 106.727H736.633V128H731.01V114.469L723.379 128H717.52V106.727H723.157V120.217ZM753.938 121.477L759.699 106.727H764.186L755.89 128H751.971L743.869 106.727H748.342L753.938 121.477ZM746.999 106.727V128H741.362V106.727H746.999ZM761.167 128V106.727H766.734V128H761.167ZM780.992 128.416C778.804 128.416 776.921 127.972 775.342 127.086C773.772 126.19 772.563 124.925 771.713 123.291C770.864 121.648 770.439 119.704 770.439 117.461C770.439 115.272 770.864 113.352 771.713 111.699C772.563 110.047 773.758 108.759 775.3 107.835C776.851 106.912 778.67 106.45 780.757 106.45C782.16 106.45 783.467 106.677 784.676 107.129C785.895 107.572 786.957 108.242 787.862 109.137C788.776 110.033 789.487 111.159 789.994 112.516C790.502 113.864 790.756 115.443 790.756 117.253V118.873H772.794V115.217H785.203C785.203 114.368 785.018 113.615 784.649 112.96C784.279 112.304 783.767 111.792 783.111 111.422C782.465 111.044 781.713 110.854 780.854 110.854C779.958 110.854 779.164 111.062 778.472 111.478C777.789 111.884 777.253 112.433 776.865 113.126C776.477 113.809 776.279 114.571 776.27 115.411V118.887C776.27 119.94 776.464 120.849 776.851 121.615C777.248 122.382 777.807 122.973 778.527 123.388C779.247 123.804 780.101 124.011 781.089 124.011C781.745 124.011 782.345 123.919 782.89 123.734C783.434 123.55 783.901 123.273 784.289 122.903C784.676 122.534 784.972 122.082 785.175 121.546L790.632 121.906C790.355 123.217 789.787 124.362 788.928 125.341C788.079 126.31 786.98 127.068 785.632 127.612C784.293 128.148 782.747 128.416 780.992 128.416ZM809.411 115.009V119.649H798.304V115.009H809.411ZM800.243 106.727V128H794.606V106.727H800.243ZM813.109 106.727V128H807.514V106.727H813.109ZM815.55 111.367V106.727H834.829V111.367H827.973V128H822.35V111.367H815.55ZM862.237 115.009V119.649H851.129V115.009H862.237ZM853.068 106.727V128H847.432V106.727H853.068ZM865.934 106.727V128H860.339V106.727H865.934ZM876.578 128.402C875.22 128.402 874.011 128.166 872.949 127.695C871.887 127.215 871.047 126.509 870.429 125.576C869.819 124.635 869.514 123.462 869.514 122.059C869.514 120.877 869.731 119.884 870.165 119.081C870.599 118.278 871.19 117.631 871.938 117.142C872.686 116.653 873.535 116.283 874.486 116.034C875.447 115.785 876.453 115.609 877.506 115.508C878.743 115.379 879.74 115.259 880.497 115.148C881.254 115.028 881.804 114.852 882.145 114.622C882.487 114.391 882.658 114.049 882.658 113.597V113.514C882.658 112.636 882.381 111.958 881.827 111.478C881.282 110.998 880.506 110.758 879.5 110.758C878.438 110.758 877.593 110.993 876.965 111.464C876.338 111.925 875.922 112.507 875.719 113.209L870.262 112.766C870.539 111.473 871.084 110.356 871.897 109.414C872.709 108.463 873.757 107.734 875.04 107.226C876.333 106.709 877.829 106.45 879.528 106.45C880.709 106.45 881.84 106.589 882.921 106.866C884.01 107.143 884.975 107.572 885.815 108.154C886.665 108.736 887.334 109.483 887.823 110.397C888.313 111.302 888.557 112.387 888.557 113.652V128H882.962V125.05H882.796C882.454 125.715 881.997 126.301 881.425 126.809C880.853 127.308 880.165 127.7 879.361 127.986C878.558 128.263 877.63 128.402 876.578 128.402ZM878.267 124.33C879.135 124.33 879.902 124.159 880.566 123.818C881.231 123.467 881.753 122.996 882.131 122.405C882.51 121.814 882.699 121.145 882.699 120.397V118.139C882.514 118.259 882.261 118.37 881.937 118.472C881.623 118.564 881.268 118.652 880.871 118.735C880.474 118.809 880.077 118.878 879.68 118.943C879.283 118.998 878.923 119.049 878.6 119.095C877.907 119.196 877.302 119.358 876.785 119.58C876.268 119.801 875.867 120.101 875.581 120.48C875.294 120.849 875.151 121.311 875.151 121.865C875.151 122.668 875.442 123.282 876.024 123.707C876.615 124.122 877.362 124.33 878.267 124.33ZM900.499 134.232V123.319H902.133C902.604 123.023 902.983 122.553 903.269 121.906C903.564 121.26 903.805 120.498 903.989 119.621C904.183 118.744 904.331 117.798 904.432 116.782C904.543 115.757 904.64 114.723 904.723 113.68L905.277 106.727H921.592V123.319H924.888V134.232H919.265V128H906.26V134.232H900.499ZM908.006 123.319H916.024V111.27H910.291L910.069 113.68C909.912 115.951 909.686 117.881 909.39 119.469C909.095 121.048 908.633 122.331 908.006 123.319ZM937.938 128.416C935.786 128.416 933.926 127.959 932.356 127.044C930.796 126.121 929.591 124.838 928.742 123.194C927.892 121.542 927.467 119.626 927.467 117.447C927.467 115.249 927.892 113.329 928.742 111.685C929.591 110.033 930.796 108.749 932.356 107.835C933.926 106.912 935.786 106.45 937.938 106.45C940.089 106.45 941.945 106.912 943.505 107.835C945.075 108.749 946.284 110.033 947.134 111.685C947.983 113.329 948.408 115.249 948.408 117.447C948.408 119.626 947.983 121.542 947.134 123.194C946.284 124.838 945.075 126.121 943.505 127.044C941.945 127.959 940.089 128.416 937.938 128.416ZM937.965 123.845C938.944 123.845 939.761 123.568 940.417 123.014C941.072 122.451 941.566 121.685 941.899 120.715C942.24 119.746 942.411 118.642 942.411 117.405C942.411 116.168 942.24 115.065 941.899 114.095C941.566 113.126 941.072 112.359 940.417 111.796C939.761 111.233 938.944 110.951 937.965 110.951C936.977 110.951 936.146 111.233 935.472 111.796C934.808 112.359 934.304 113.126 933.963 114.095C933.63 115.065 933.464 116.168 933.464 117.405C933.464 118.642 933.63 119.746 933.963 120.715C934.304 121.685 934.808 122.451 935.472 123.014C936.146 123.568 936.977 123.845 937.965 123.845ZM964.819 121.477L970.581 106.727H975.068L966.772 128H962.853L954.751 106.727H959.224L964.819 121.477ZM957.881 106.727V128H952.244V106.727H957.881ZM972.049 128V106.727H977.616V128H972.049ZM988.246 128.402C986.888 128.402 985.679 128.166 984.617 127.695C983.555 127.215 982.715 126.509 982.097 125.576C981.487 124.635 981.182 123.462 981.182 122.059C981.182 120.877 981.399 119.884 981.833 119.081C982.267 118.278 982.858 117.631 983.606 117.142C984.354 116.653 985.203 116.283 986.154 116.034C987.115 115.785 988.121 115.609 989.174 115.508C990.411 115.379 991.408 115.259 992.165 115.148C992.922 115.028 993.472 114.852 993.813 114.622C994.155 114.391 994.326 114.049 994.326 113.597V113.514C994.326 112.636 994.049 111.958 993.495 111.478C992.95 110.998 992.174 110.758 991.168 110.758C990.106 110.758 989.261 110.993 988.633 111.464C988.006 111.925 987.59 112.507 987.387 113.209L981.93 112.766C982.207 111.473 982.752 110.356 983.565 109.414C984.377 108.463 985.425 107.734 986.708 107.226C988.001 106.709 989.497 106.45 991.196 106.45C992.377 106.45 993.508 106.589 994.589 106.866C995.678 107.143 996.643 107.572 997.483 108.154C998.333 108.736 999.002 109.483 999.491 110.397C999.981 111.302 1000.23 112.387 1000.23 113.652V128H994.63V125.05H994.464C994.122 125.715 993.665 126.301 993.093 126.809C992.521 127.308 991.833 127.7 991.029 127.986C990.226 128.263 989.298 128.402 988.246 128.402ZM989.935 124.33C990.803 124.33 991.57 124.159 992.234 123.818C992.899 123.467 993.421 122.996 993.799 122.405C994.178 121.814 994.367 121.145 994.367 120.397V118.139C994.182 118.259 993.929 118.37 993.605 118.472C993.291 118.564 992.936 118.652 992.539 118.735C992.142 118.809 991.745 118.878 991.348 118.943C990.951 118.998 990.591 119.049 990.268 119.095C989.575 119.196 988.97 119.358 988.453 119.58C987.936 119.801 987.535 120.101 987.248 120.48C986.962 120.849 986.819 121.311 986.819 121.865C986.819 122.668 987.11 123.282 987.692 123.707C988.283 124.122 989.03 124.33 989.935 124.33ZM1004.8 106.727H1010.44V123.319H1016.44V106.727H1022.07V123.319H1028.07V106.727H1033.71V128H1004.8V106.727ZM1053.09 115.009V119.649H1041.98V115.009H1053.09ZM1043.92 106.727V128H1038.28V106.727H1043.92ZM1056.78 106.727V128H1051.19V106.727H1056.78ZM1067 120.217L1074.66 106.727H1080.47V128H1074.85V114.469L1067.22 128H1061.36V106.727H1067V120.217ZM1094.9 128.416C1092.71 128.416 1090.82 127.972 1089.25 127.086C1087.68 126.19 1086.47 124.925 1085.62 123.291C1084.77 121.648 1084.34 119.704 1084.34 117.461C1084.34 115.272 1084.77 113.352 1085.62 111.699C1086.47 110.047 1087.66 108.759 1089.2 107.835C1090.76 106.912 1092.57 106.45 1094.66 106.45C1096.06 106.45 1097.37 106.677 1098.58 107.129C1099.8 107.572 1100.86 108.242 1101.77 109.137C1102.68 110.033 1103.39 111.159 1103.9 112.516C1104.41 113.864 1104.66 115.443 1104.66 117.253V118.873H1086.7V115.217H1099.11C1099.11 114.368 1098.92 113.615 1098.55 112.96C1098.18 112.304 1097.67 111.792 1097.02 111.422C1096.37 111.044 1095.62 110.854 1094.76 110.854C1093.86 110.854 1093.07 111.062 1092.38 111.478C1091.69 111.884 1091.16 112.433 1090.77 113.126C1090.38 113.809 1090.18 114.571 1090.17 115.411V118.887C1090.17 119.94 1090.37 120.849 1090.76 121.615C1091.15 122.382 1091.71 122.973 1092.43 123.388C1093.15 123.804 1094.01 124.011 1094.99 124.011C1095.65 124.011 1096.25 123.919 1096.79 123.734C1097.34 123.55 1097.81 123.273 1098.19 122.903C1098.58 122.534 1098.88 122.082 1099.08 121.546L1104.54 121.906C1104.26 123.217 1103.69 124.362 1102.83 125.341C1101.98 126.31 1100.88 127.068 1099.54 127.612C1098.2 128.148 1096.65 128.416 1094.9 128.416ZM434.93 168.477L440.691 153.727H445.178L436.882 175H432.963L424.861 153.727H429.335L434.93 168.477ZM427.991 153.727V175H422.354V153.727H427.991ZM442.159 175V153.727H447.727V175H442.159ZM458.356 175.402C456.999 175.402 455.789 175.166 454.727 174.695C453.666 174.215 452.825 173.509 452.207 172.576C451.597 171.635 451.293 170.462 451.293 169.059C451.293 167.877 451.51 166.884 451.944 166.081C452.378 165.278 452.969 164.631 453.716 164.142C454.464 163.653 455.314 163.283 456.265 163.034C457.225 162.785 458.231 162.609 459.284 162.508C460.521 162.379 461.518 162.259 462.275 162.148C463.032 162.028 463.582 161.852 463.923 161.622C464.265 161.391 464.436 161.049 464.436 160.597V160.514C464.436 159.636 464.159 158.958 463.605 158.478C463.06 157.998 462.285 157.758 461.278 157.758C460.216 157.758 459.372 157.993 458.744 158.464C458.116 158.925 457.7 159.507 457.497 160.209L452.041 159.766C452.318 158.473 452.862 157.356 453.675 156.414C454.487 155.463 455.535 154.734 456.819 154.226C458.111 153.709 459.607 153.45 461.306 153.45C462.488 153.45 463.619 153.589 464.699 153.866C465.789 154.143 466.753 154.572 467.594 155.154C468.443 155.736 469.112 156.483 469.602 157.397C470.091 158.302 470.336 159.387 470.336 160.652V175H464.741V172.05H464.574C464.233 172.715 463.776 173.301 463.203 173.809C462.631 174.308 461.943 174.7 461.14 174.986C460.336 175.263 459.409 175.402 458.356 175.402ZM460.046 171.33C460.914 171.33 461.68 171.159 462.345 170.818C463.009 170.467 463.531 169.996 463.91 169.405C464.288 168.814 464.477 168.145 464.477 167.397V165.139C464.293 165.259 464.039 165.37 463.716 165.472C463.402 165.564 463.046 165.652 462.649 165.735C462.252 165.809 461.855 165.878 461.458 165.943C461.061 165.998 460.701 166.049 460.378 166.095C459.686 166.196 459.081 166.358 458.564 166.58C458.047 166.801 457.645 167.101 457.359 167.48C457.073 167.849 456.93 168.311 456.93 168.865C456.93 169.668 457.22 170.282 457.802 170.707C458.393 171.122 459.141 171.33 460.046 171.33ZM472.777 158.367V153.727H492.055V158.367H485.2V175H479.577V158.367H472.777ZM513.331 153.727V175H507.736V153.727H513.331ZM510.603 163.062V167.715C510.151 167.918 509.587 168.112 508.913 168.297C508.239 168.472 507.533 168.615 506.794 168.726C506.056 168.837 505.363 168.892 504.717 168.892C501.661 168.892 499.256 168.265 497.501 167.009C495.747 165.744 494.87 163.727 494.87 160.957V153.7H500.438V160.957C500.438 161.778 500.576 162.429 500.853 162.91C501.139 163.39 501.592 163.736 502.21 163.948C502.838 164.151 503.674 164.253 504.717 164.253C505.686 164.253 506.637 164.151 507.57 163.948C508.502 163.745 509.513 163.45 510.603 163.062ZM523.549 167.217L531.207 153.727H537.024V175H531.401V161.469L523.77 175H517.912V153.727H523.549V167.217ZM550.891 175V146.636H569.712V151.581H556.888V157.12H561.5C563.743 157.12 565.678 157.485 567.303 158.215C568.937 158.935 570.197 159.955 571.083 161.275C571.97 162.596 572.413 164.151 572.413 165.943C572.413 167.724 571.97 169.299 571.083 170.665C570.197 172.022 568.937 173.084 567.303 173.851C565.678 174.617 563.743 175 561.5 175H550.891ZM556.888 170.18H561.5C562.571 170.18 563.475 169.987 564.214 169.599C564.953 169.202 565.511 168.68 565.89 168.034C566.278 167.378 566.472 166.663 566.472 165.887C566.472 164.761 566.042 163.81 565.184 163.034C564.334 162.249 563.106 161.857 561.5 161.857H556.888V170.18ZM593.454 175L584.341 162.91H582.291V175H576.294V146.636H582.291V157.965H583.496L592.914 146.636H600.378L589.313 159.793L600.891 175H593.454ZM623.68 171.953H618.334L612.739 163.644V163.367H618.362L623.68 171.953ZM623.68 154.946L618.362 163.533H612.739V163.256L618.334 154.946H623.68ZM632.793 171.953H627.447L621.852 163.644V163.367H627.475L632.793 171.953ZM632.793 154.946L627.475 163.533H621.852V163.256L627.447 154.946H632.793ZM640.902 175H634.476L644.267 146.636H651.995L661.773 175H655.347L648.242 153.118H648.021L640.902 175ZM640.5 163.851H655.679V168.532H640.5V163.851ZM665.076 175V153.727H674.147C676.77 153.727 678.842 154.226 680.366 155.223C681.889 156.22 682.651 157.637 682.651 159.475C682.651 160.629 682.222 161.589 681.363 162.356C680.504 163.122 679.313 163.639 677.79 163.907C679.064 163.999 680.149 164.29 681.044 164.779C681.949 165.259 682.637 165.883 683.108 166.649C683.588 167.415 683.828 168.265 683.828 169.197C683.828 170.407 683.505 171.445 682.859 172.313C682.222 173.181 681.285 173.846 680.047 174.308C678.819 174.769 677.319 175 675.546 175H665.076ZM670.574 170.582H675.546C676.368 170.582 677.01 170.388 677.471 170C677.942 169.603 678.178 169.063 678.178 168.38C678.178 167.623 677.942 167.027 677.471 166.593C677.01 166.16 676.368 165.943 675.546 165.943H670.574V170.582ZM670.574 162.48H674.272C674.863 162.48 675.366 162.397 675.782 162.231C676.206 162.055 676.53 161.806 676.751 161.483C676.982 161.16 677.097 160.777 677.097 160.334C677.097 159.678 676.834 159.166 676.308 158.796C675.782 158.427 675.062 158.242 674.147 158.242H670.574V162.48ZM686.439 158.367V153.727H705.717V158.367H698.862V175H693.239V158.367H686.439ZM718.144 175.416C715.992 175.416 714.132 174.959 712.562 174.044C711.002 173.121 709.797 171.838 708.948 170.194C708.098 168.542 707.673 166.626 707.673 164.447C707.673 162.249 708.098 160.329 708.948 158.685C709.797 157.033 711.002 155.749 712.562 154.835C714.132 153.912 715.992 153.45 718.144 153.45C720.295 153.45 722.151 153.912 723.711 154.835C725.281 155.749 726.49 157.033 727.34 158.685C728.189 160.329 728.614 162.249 728.614 164.447C728.614 166.626 728.189 168.542 727.34 170.194C726.49 171.838 725.281 173.121 723.711 174.044C722.151 174.959 720.295 175.416 718.144 175.416ZM718.171 170.845C719.15 170.845 719.967 170.568 720.623 170.014C721.278 169.451 721.772 168.685 722.105 167.715C722.446 166.746 722.617 165.642 722.617 164.405C722.617 163.168 722.446 162.065 722.105 161.095C721.772 160.126 721.278 159.359 720.623 158.796C719.967 158.233 719.15 157.951 718.171 157.951C717.183 157.951 716.352 158.233 715.678 158.796C715.014 159.359 714.51 160.126 714.169 161.095C713.836 162.065 713.67 163.168 713.67 164.405C713.67 165.642 713.836 166.746 714.169 167.715C714.51 168.685 715.014 169.451 715.678 170.014C716.352 170.568 717.183 170.845 718.171 170.845ZM730.788 181.232V170.319H732.422C732.893 170.023 733.272 169.553 733.558 168.906C733.854 168.26 734.094 167.498 734.278 166.621C734.472 165.744 734.62 164.798 734.721 163.782C734.832 162.757 734.929 161.723 735.012 160.68L735.566 153.727H751.881V170.319H755.177V181.232H749.554V175H736.55V181.232H730.788ZM738.295 170.319H746.313V158.27H740.58L740.358 160.68C740.201 162.951 739.975 164.881 739.68 166.469C739.384 168.048 738.922 169.331 738.295 170.319ZM768.227 175.416C766.075 175.416 764.215 174.959 762.645 174.044C761.085 173.121 759.88 171.838 759.031 170.194C758.181 168.542 757.756 166.626 757.756 164.447C757.756 162.249 758.181 160.329 759.031 158.685C759.88 157.033 761.085 155.749 762.645 154.835C764.215 153.912 766.075 153.45 768.227 153.45C770.378 153.45 772.234 153.912 773.794 154.835C775.364 155.749 776.573 157.033 777.423 158.685C778.272 160.329 778.697 162.249 778.697 164.447C778.697 166.626 778.272 168.542 777.423 170.194C776.573 171.838 775.364 173.121 773.794 174.044C772.234 174.959 770.378 175.416 768.227 175.416ZM768.254 170.845C769.233 170.845 770.05 170.568 770.706 170.014C771.361 169.451 771.855 168.685 772.188 167.715C772.529 166.746 772.7 165.642 772.7 164.405C772.7 163.168 772.529 162.065 772.188 161.095C771.855 160.126 771.361 159.359 770.706 158.796C770.05 158.233 769.233 157.951 768.254 157.951C767.266 157.951 766.435 158.233 765.761 158.796C765.097 159.359 764.593 160.126 764.252 161.095C763.919 162.065 763.753 163.168 763.753 164.405C763.753 165.642 763.919 166.746 764.252 167.715C764.593 168.685 765.097 169.451 765.761 170.014C766.435 170.568 767.266 170.845 768.254 170.845ZM782.533 182.977V153.727H788.35V157.3H788.613C788.872 156.728 789.245 156.146 789.735 155.555C790.233 154.955 790.88 154.457 791.674 154.06C792.477 153.653 793.474 153.45 794.665 153.45C796.216 153.45 797.647 153.857 798.959 154.669C800.27 155.472 801.318 156.686 802.102 158.311C802.887 159.927 803.28 161.954 803.28 164.391C803.28 166.764 802.896 168.768 802.13 170.402C801.373 172.027 800.339 173.26 799.028 174.1C797.726 174.931 796.267 175.346 794.651 175.346C793.506 175.346 792.532 175.157 791.729 174.778C790.935 174.4 790.284 173.924 789.776 173.352C789.269 172.77 788.881 172.184 788.613 171.593H788.433V182.977H782.533ZM788.308 164.364C788.308 165.629 788.484 166.732 788.835 167.674C789.185 168.615 789.693 169.349 790.358 169.876C791.023 170.393 791.831 170.651 792.782 170.651C793.742 170.651 794.554 170.388 795.219 169.862C795.884 169.326 796.387 168.588 796.729 167.646C797.08 166.695 797.255 165.601 797.255 164.364C797.255 163.136 797.084 162.055 796.743 161.123C796.401 160.19 795.898 159.461 795.233 158.935C794.568 158.408 793.751 158.145 792.782 158.145C791.821 158.145 791.009 158.399 790.344 158.907C789.689 159.415 789.185 160.135 788.835 161.068C788.484 162 788.308 163.099 788.308 164.364ZM806.825 171.953L812.143 163.367H817.766V163.644L812.171 171.953H806.825ZM806.825 154.946H812.171L817.766 163.256V163.533H812.143L806.825 154.946ZM816.076 171.953L821.395 163.367H827.017V163.644L821.422 171.953H816.076ZM816.076 154.946H821.422L827.017 163.256V163.533H821.395L816.076 154.946ZM840.711 175V170.679L850.807 161.331C851.666 160.5 852.386 159.752 852.968 159.087C853.559 158.422 854.007 157.771 854.311 157.134C854.616 156.488 854.768 155.791 854.768 155.043C854.768 154.212 854.579 153.497 854.2 152.896C853.822 152.287 853.305 151.821 852.649 151.498C851.994 151.165 851.251 150.999 850.42 150.999C849.552 150.999 848.795 151.174 848.148 151.525C847.502 151.876 847.003 152.379 846.653 153.035C846.302 153.69 846.126 154.471 846.126 155.375H840.434C840.434 153.52 840.854 151.908 841.694 150.542C842.535 149.175 843.712 148.118 845.226 147.37C846.74 146.623 848.485 146.249 850.461 146.249C852.492 146.249 854.26 146.609 855.765 147.329C857.28 148.04 858.457 149.028 859.297 150.293C860.137 151.558 860.557 153.007 860.557 154.641C860.557 155.712 860.345 156.77 859.92 157.813C859.505 158.856 858.762 160.015 857.691 161.289C856.619 162.554 855.11 164.073 853.162 165.846L849.021 169.903V170.097H860.931V175H840.711ZM875.636 175.388C873.679 175.388 871.934 175.028 870.401 174.308C868.877 173.587 867.668 172.595 866.772 171.33C865.877 170.065 865.41 168.615 865.373 166.981H871.19C871.255 168.08 871.717 168.971 872.575 169.654C873.434 170.337 874.454 170.679 875.636 170.679C876.578 170.679 877.409 170.471 878.129 170.056C878.858 169.631 879.426 169.045 879.832 168.297C880.248 167.54 880.456 166.672 880.456 165.693C880.456 164.696 880.243 163.819 879.818 163.062C879.403 162.305 878.826 161.714 878.087 161.289C877.349 160.864 876.504 160.647 875.553 160.638C874.722 160.638 873.914 160.809 873.129 161.151C872.354 161.492 871.749 161.959 871.315 162.549L865.983 161.594L867.326 146.636H884.666V151.539H872.271L871.536 158.644H871.703C872.201 157.942 872.954 157.361 873.96 156.899C874.967 156.437 876.093 156.206 877.339 156.206C879.047 156.206 880.571 156.608 881.91 157.411C883.248 158.215 884.306 159.318 885.081 160.721C885.857 162.115 886.24 163.722 886.231 165.541C886.24 167.452 885.797 169.151 884.901 170.637C884.015 172.115 882.773 173.278 881.176 174.128C879.588 174.968 877.741 175.388 875.636 175.388ZM902.822 145.307L893.682 179.266H888.599L897.74 145.307H902.822ZM905.61 175V170.679L915.706 161.331C916.564 160.5 917.285 159.752 917.866 159.087C918.457 158.422 918.905 157.771 919.21 157.134C919.514 156.488 919.667 155.791 919.667 155.043C919.667 154.212 919.477 153.497 919.099 152.896C918.72 152.287 918.203 151.821 917.548 151.498C916.892 151.165 916.149 150.999 915.318 150.999C914.45 150.999 913.693 151.174 913.047 151.525C912.4 151.876 911.902 152.379 911.551 153.035C911.2 153.69 911.025 154.471 911.025 155.375H905.333C905.333 153.52 905.753 151.908 906.593 150.542C907.433 149.175 908.61 148.118 910.124 147.37C911.639 146.623 913.384 146.249 915.36 146.249C917.391 146.249 919.159 146.609 920.664 147.329C922.178 148.04 923.355 149.028 924.195 150.293C925.036 151.558 925.456 153.007 925.456 154.641C925.456 155.712 925.243 156.77 924.819 157.813C924.403 158.856 923.66 160.015 922.589 161.289C921.518 162.554 920.008 164.073 918.06 165.846L913.919 169.903V170.097H925.83V175H905.61ZM941.061 175.388C939.602 175.379 938.194 175.134 936.837 174.654C935.489 174.174 934.279 173.394 933.208 172.313C932.137 171.233 931.288 169.802 930.66 168.02C930.041 166.238 929.732 164.05 929.732 161.455C929.741 159.073 930.013 156.945 930.549 155.071C931.094 153.187 931.869 151.59 932.876 150.279C933.891 148.968 935.105 147.971 936.518 147.287C937.931 146.595 939.514 146.249 941.268 146.249C943.161 146.249 944.832 146.618 946.282 147.357C947.731 148.086 948.895 149.079 949.772 150.334C950.658 151.59 951.194 152.998 951.378 154.558H945.465C945.234 153.57 944.749 152.795 944.011 152.232C943.272 151.668 942.358 151.387 941.268 151.387C939.422 151.387 938.018 152.19 937.058 153.797C936.107 155.403 935.622 157.587 935.604 160.347H935.798C936.223 159.507 936.795 158.792 937.515 158.201C938.245 157.601 939.071 157.144 939.994 156.83C940.927 156.506 941.91 156.345 942.944 156.345C944.625 156.345 946.12 156.742 947.431 157.536C948.742 158.321 949.777 159.401 950.534 160.777C951.291 162.152 951.669 163.727 951.669 165.499C951.669 167.42 951.222 169.128 950.326 170.624C949.44 172.119 948.198 173.292 946.6 174.141C945.012 174.982 943.166 175.397 941.061 175.388ZM941.033 170.679C941.956 170.679 942.783 170.457 943.512 170.014C944.241 169.571 944.814 168.971 945.229 168.214C945.645 167.457 945.853 166.607 945.853 165.666C945.853 164.724 945.645 163.879 945.229 163.131C944.823 162.383 944.26 161.788 943.54 161.345C942.82 160.901 941.998 160.68 941.074 160.68C940.382 160.68 939.74 160.809 939.149 161.068C938.568 161.326 938.055 161.686 937.612 162.148C937.178 162.609 936.837 163.145 936.587 163.754C936.338 164.354 936.213 164.996 936.213 165.679C936.213 166.593 936.421 167.429 936.837 168.186C937.261 168.943 937.834 169.548 938.554 170C939.283 170.453 940.11 170.679 941.033 170.679Z" fill="white"/>
<g clip-path="url(#clip0_72_2099)">
<path d="M348.438 167.226L198.158 216.677C194.517 205.612 182.595 199.593 171.528 203.235L153.495 148.43C164.562 144.789 170.58 132.867 166.939 121.801L317.219 72.3507C320.861 83.4165 332.784 89.4348 343.85 85.7933L361.884 140.598C350.817 144.239 344.798 156.162 348.438 167.226Z" fill="black"/>
<path d="M355.313 153.61L205.033 203.06C201.392 191.996 189.469 185.977 178.403 189.619L160.369 134.814C171.435 131.173 177.455 119.251 173.814 108.186L324.094 58.7356C327.735 69.8004 339.658 75.8187 350.724 72.1775L368.758 126.982C357.692 130.623 351.672 142.545 355.313 153.61Z" fill="#FACD3E"/>
<path d="M356.782 154.352L204.291 204.53L203.927 203.424C200.493 192.987 189.205 187.289 178.767 190.724L177.661 191.088L158.901 134.074L160.006 133.71C170.445 130.275 176.143 118.988 172.709 108.549L172.345 107.444L324.836 57.2664L325.2 58.3718C328.635 68.8104 339.922 74.5079 350.361 71.0731L351.466 70.7093L370.227 127.723L369.121 128.087C358.683 131.522 352.984 142.809 356.419 153.246L356.782 154.352ZM205.746 201.602L353.873 152.86C350.884 141.897 356.702 130.374 367.299 126.269L349.974 73.6174C339.01 76.6071 327.486 70.7902 323.381 60.1942L175.254 108.936C178.243 119.899 172.425 131.422 161.828 135.527L179.153 188.179C190.117 185.189 201.641 191.006 205.746 201.602Z" fill="black"/>
<path d="M187.771 104.328L189.981 103.601L190.409 104.903L188.199 105.63L187.771 104.328Z" fill="black"/>
<path d="M219.367 192.906L217.157 193.633L216.305 191.044L218.515 190.317L219.367 192.906ZM217.663 187.729L215.453 188.456L214.602 185.867L216.811 185.14L217.663 187.729ZM215.96 182.553L213.75 183.28L212.898 180.691L215.108 179.964L215.96 182.553ZM214.257 177.376L212.047 178.103L211.195 175.514L213.405 174.787L214.257 177.376ZM212.553 172.199L210.343 172.926L209.492 170.338L211.702 169.611L212.553 172.199ZM210.85 167.023L208.64 167.75L207.788 165.161L209.998 164.434L210.85 167.023ZM209.146 161.846L206.936 162.573L206.085 159.984L208.295 159.257L209.146 161.846ZM207.443 156.67L205.233 157.397L204.382 154.808L206.591 154.081L207.443 156.67ZM205.74 151.492L203.53 152.22L202.678 149.631L204.888 148.904L205.74 151.492ZM204.036 146.316L201.827 147.044L200.975 144.455L203.185 143.728L204.036 146.316ZM202.333 141.139L200.123 141.867L199.271 139.278L201.481 138.551L202.333 141.139ZM200.629 135.962L198.42 136.689L197.568 134.102L199.778 133.375L200.629 135.962ZM198.926 130.786L196.716 131.513L195.865 128.925L198.074 128.198L198.926 130.786ZM197.223 125.609L195.013 126.336L194.161 123.748L196.371 123.021L197.223 125.609ZM195.519 120.433L193.31 121.16L192.458 118.572L194.668 117.845L195.519 120.433ZM193.816 115.256L191.606 115.983L190.754 113.395L192.964 112.668L193.816 115.256ZM192.113 110.08L189.903 110.807L189.051 108.219L191.261 107.492L192.113 110.08Z" fill="black"/>
<path d="M218.008 196.221L220.218 195.493L220.647 196.796L218.437 197.523L218.008 196.221Z" fill="black"/>
<path d="M308.364 64.6465L310.574 63.9194L311.002 65.2216L308.792 65.9487L308.364 64.6465Z" fill="white"/>
<path d="M339.96 153.224L337.75 153.952L336.898 151.363L339.108 150.636L339.96 153.224ZM338.256 148.047L336.046 148.774L335.195 146.186L337.404 145.459L338.256 148.047ZM336.553 142.871L334.343 143.598L333.492 141.01L335.701 140.283L336.553 142.871ZM334.85 137.694L332.64 138.421L331.788 135.833L333.998 135.106L334.85 137.694ZM333.146 132.517L330.936 133.244L330.085 130.657L332.295 129.93L333.146 132.517ZM331.443 127.341L329.233 128.068L328.381 125.48L330.591 124.753L331.443 127.341ZM329.739 122.164L327.53 122.891L326.678 120.303L328.888 119.576L329.739 122.164ZM328.036 116.988L325.826 117.715L324.975 115.127L327.184 114.4L328.036 116.988ZM326.333 111.811L324.123 112.538L323.271 109.95L325.481 109.223L326.333 111.811ZM324.629 106.635L322.42 107.362L321.568 104.774L323.778 104.046L324.629 106.635ZM322.926 101.458L320.716 102.185L319.864 99.5966L322.074 98.8694L322.926 101.458ZM321.222 96.2809L319.013 97.008L318.161 94.4205L320.371 93.6934L321.222 96.2809ZM319.519 91.1048L317.309 91.832L316.458 89.2435L318.667 88.5163L319.519 91.1048ZM317.816 85.9278L315.606 86.6549L314.754 84.0664L316.964 83.3393L317.816 85.9278ZM316.112 80.7518L313.903 81.4789L313.051 78.8904L315.261 78.1632L316.112 80.7518ZM314.409 75.5747L312.199 76.3018L311.347 73.7133L313.557 72.9862L314.409 75.5747ZM312.706 70.3987L310.496 71.1258L309.644 68.5373L311.854 67.8101L312.706 70.3987Z" fill="white"/>
<mask id="mask0_72_2099" style="mask-type:luminance" maskUnits="userSpaceOnUse" x="140" y="47" width="243" height="180">
<path d="M140.222 115.537L346.349 47.7097L382.775 158.408L176.647 226.235L140.222 115.537Z" fill="white"/>
</mask>
<g mask="url(#mask0_72_2099)">
<path d="M349.634 68.8633C340.413 71.8974 330.443 66.8646 327.409 57.6447L326.319 54.3295L169.408 105.961L170.499 109.277C171.456 112.187 171.608 115.171 171.08 117.989L164.002 120.318L164.729 122.528C165.3 124.264 165.598 126.022 165.656 127.761C163.871 129.399 161.724 130.695 159.278 131.5L155.964 132.591L159.237 142.538C157.401 144.142 155.224 145.412 152.768 146.221L150.558 146.948L170.046 206.172L172.255 205.444C182.086 202.21 192.714 207.574 195.948 217.404L196.675 219.614L351.376 168.709L350.649 166.499C349.841 164.043 349.569 161.536 349.771 159.108L359.719 155.835L358.629 152.52C357.824 150.074 357.591 147.577 357.849 145.17C359.284 144.183 360.876 143.378 362.611 142.807L364.821 142.08L362.492 135.003C364.446 132.904 366.938 131.255 369.849 130.297L373.164 129.206L352.949 67.7724L349.634 68.8633Z" fill="white"/>
</g>
<path d="M338.601 156.539L340.811 155.812L341.24 157.114L339.03 157.841L338.601 156.539Z" fill="white"/>
<path d="M348.438 167.226L198.158 216.677C194.517 205.612 182.595 199.593 171.528 203.235L153.495 148.43C164.562 144.789 170.58 132.867 166.939 121.801L317.219 72.3507C320.861 83.4165 332.784 89.4348 343.85 85.7933L361.884 140.598C350.817 144.239 344.798 156.162 348.438 167.226Z" fill="black"/>
<path d="M355.536 154.308L205.256 203.759C201.615 192.694 189.692 186.675 178.626 190.317L160.593 135.512C171.658 131.871 177.678 119.949 174.037 108.884L324.318 59.4337C327.958 70.4985 339.882 76.5168 350.947 72.8756L368.981 127.68C357.915 131.321 351.895 143.244 355.536 154.308Z" fill="#FACD3E"/>
<path d="M356.475 153.792L203.983 203.969L203.62 202.864C200.185 192.426 188.898 186.729 178.459 190.164L177.354 190.527L158.593 133.513L159.698 133.15C170.137 129.715 175.836 118.428 172.401 107.989L172.037 106.884L324.528 56.7061L324.892 57.8115C328.327 68.2501 339.615 73.9476 350.053 70.5128L351.159 70.149L369.919 127.163L368.814 127.527C358.375 130.962 352.676 142.249 356.111 152.686L356.475 153.792ZM205.438 201.041L353.566 152.3C350.576 141.337 356.394 129.813 366.991 125.708L349.666 73.0571C338.702 76.0468 327.178 70.2299 323.074 59.6339L174.946 108.376C177.936 119.339 172.117 130.862 161.52 134.967L178.845 187.618C189.809 184.629 201.334 190.445 205.438 201.041Z" fill="black"/>
<path d="M187.771 104.328L189.981 103.601L190.409 104.903L188.199 105.63L187.771 104.328Z" fill="black"/>
<path d="M219.367 192.906L217.157 193.633L216.305 191.044L218.515 190.317L219.367 192.906ZM217.663 187.729L215.453 188.456L214.602 185.867L216.811 185.14L217.663 187.729ZM215.96 182.553L213.75 183.28L212.898 180.691L215.108 179.964L215.96 182.553ZM214.257 177.376L212.047 178.103L211.195 175.514L213.405 174.787L214.257 177.376ZM212.553 172.199L210.343 172.926L209.492 170.338L211.702 169.611L212.553 172.199ZM210.85 167.023L208.64 167.75L207.788 165.161L209.998 164.434L210.85 167.023ZM209.146 161.846L206.936 162.573L206.085 159.984L208.295 159.257L209.146 161.846ZM207.443 156.67L205.233 157.397L204.382 154.808L206.591 154.081L207.443 156.67ZM205.74 151.492L203.53 152.22L202.678 149.631L204.888 148.904L205.74 151.492ZM204.036 146.316L201.827 147.044L200.975 144.455L203.185 143.728L204.036 146.316ZM202.333 141.139L200.123 141.867L199.271 139.278L201.481 138.551L202.333 141.139ZM200.629 135.962L198.42 136.689L197.568 134.102L199.778 133.375L200.629 135.962ZM198.926 130.786L196.716 131.513L195.865 128.925L198.074 128.198L198.926 130.786ZM197.223 125.609L195.013 126.336L194.161 123.748L196.371 123.021L197.223 125.609ZM195.519 120.433L193.31 121.16L192.458 118.572L194.668 117.845L195.519 120.433ZM193.816 115.256L191.606 115.983L190.754 113.395L192.964 112.668L193.816 115.256ZM192.113 110.08L189.903 110.807L189.051 108.219L191.261 107.492L192.113 110.08Z" fill="black"/>
<path d="M218.008 196.221L220.218 195.493L220.647 196.796L218.437 197.523L218.008 196.221Z" fill="black"/>
<path d="M308.364 64.6465L310.574 63.9194L311.002 65.2216L308.792 65.9487L308.364 64.6465Z" fill="black"/>
<path d="M339.96 153.224L337.75 153.952L336.898 151.363L339.108 150.636L339.96 153.224ZM338.256 148.047L336.046 148.774L335.195 146.186L337.404 145.459L338.256 148.047ZM336.553 142.871L334.343 143.598L333.492 141.01L335.701 140.283L336.553 142.871ZM334.85 137.694L332.64 138.421L331.788 135.833L333.998 135.106L334.85 137.694ZM333.146 132.517L330.936 133.244L330.085 130.657L332.295 129.93L333.146 132.517ZM331.443 127.341L329.233 128.068L328.381 125.48L330.591 124.753L331.443 127.341ZM329.739 122.164L327.53 122.891L326.678 120.303L328.888 119.576L329.739 122.164ZM328.036 116.988L325.826 117.715L324.975 115.127L327.184 114.4L328.036 116.988ZM326.333 111.811L324.123 112.538L323.271 109.95L325.481 109.223L326.333 111.811ZM324.629 106.635L322.42 107.362L321.568 104.774L323.778 104.046L324.629 106.635ZM322.926 101.458L320.716 102.185L319.864 99.5966L322.074 98.8694L322.926 101.458ZM321.222 96.2809L319.013 97.008L318.161 94.4205L320.371 93.6934L321.222 96.2809ZM319.519 91.1048L317.309 91.832L316.458 89.2435L318.667 88.5163L319.519 91.1048ZM317.816 85.9278L315.606 86.6549L314.754 84.0664L316.964 83.3393L317.816 85.9278ZM316.112 80.7518L313.903 81.4789L313.051 78.8904L315.261 78.1632L316.112 80.7518ZM314.409 75.5747L312.199 76.3018L311.347 73.7133L313.557 72.9862L314.409 75.5747ZM312.706 70.3987L310.496 71.1258L309.644 68.5373L311.854 67.8101L312.706 70.3987Z" fill="black"/>
<path d="M338.601 156.539L340.811 155.812L341.24 157.114L339.03 157.841L338.601 156.539Z" fill="black"/>
<path d="M224.147 138.459L222.993 135.247L227.616 126.925C227.957 126.286 228.237 125.714 228.456 125.207C228.673 124.695 228.806 124.213 228.854 123.761C228.9 123.303 228.841 122.845 228.677 122.388C228.493 121.876 228.225 121.48 227.873 121.199C227.519 120.912 227.111 120.739 226.648 120.681C226.186 120.623 225.702 120.685 225.197 120.866C224.685 121.05 224.275 121.316 223.966 121.665C223.654 122.007 223.46 122.413 223.384 122.882C223.314 123.349 223.379 123.862 223.58 124.421L219.347 125.94C218.896 124.683 218.789 123.496 219.026 122.378C219.264 121.261 219.805 120.272 220.651 119.411C221.5 118.543 222.605 117.864 223.965 117.376C225.366 116.873 226.669 116.67 227.872 116.768C229.075 116.866 230.111 117.235 230.979 117.874C231.85 118.505 232.485 119.374 232.882 120.481C233.135 121.185 233.244 121.934 233.21 122.727C233.175 123.52 232.941 124.467 232.507 125.566C232.079 126.664 231.404 128.037 230.482 129.686L229.003 132.519L229.045 132.636L236.535 129.948L237.827 133.548L224.147 138.459ZM248.158 130.35C246.545 130.929 245.018 131.045 243.577 130.7C242.133 130.349 240.838 129.568 239.69 128.357C238.54 127.14 237.604 125.516 236.882 123.487C236.161 121.457 235.859 119.623 235.977 117.985C236.099 116.338 236.608 114.936 237.503 113.78C238.403 112.615 239.659 111.743 241.271 111.164C242.883 110.585 244.407 110.46 245.842 110.787C247.281 111.105 248.571 111.861 249.712 113.055C250.853 114.248 251.784 115.856 252.503 117.88C253.233 119.913 253.542 121.765 253.428 123.436C253.315 125.106 252.812 126.533 251.919 127.716C251.03 128.891 249.776 129.769 248.158 130.35ZM246.846 126.695C247.808 126.349 248.411 125.579 248.655 124.385C248.896 123.185 248.648 121.566 247.91 119.528C247.431 118.193 246.9 117.14 246.318 116.371C245.734 115.596 245.125 115.081 244.491 114.827C243.856 114.572 243.217 114.561 242.573 114.792C241.616 115.135 241.017 115.897 240.775 117.077C240.531 118.252 240.765 119.838 241.476 121.838C241.956 123.194 242.488 124.269 243.072 125.065C243.662 125.858 244.28 126.387 244.925 126.651C245.568 126.909 246.208 126.924 246.846 126.695ZM258.369 126.175L257.216 122.962L261.839 114.641C262.18 114.002 262.46 113.43 262.679 112.923C262.896 112.411 263.028 111.928 263.076 111.477C263.122 111.019 263.063 110.561 262.899 110.104C262.716 109.592 262.448 109.196 262.096 108.915C261.741 108.628 261.333 108.455 260.871 108.397C260.408 108.339 259.925 108.401 259.419 108.582C258.908 108.766 258.497 109.032 258.188 109.38C257.876 109.723 257.682 110.129 257.606 110.598C257.536 111.064 257.601 111.578 257.802 112.137L253.57 113.656C253.118 112.399 253.011 111.211 253.249 110.094C253.486 108.977 254.027 107.988 254.873 107.127C255.723 106.258 256.827 105.58 258.187 105.092C259.589 104.589 260.891 104.386 262.094 104.484C263.298 104.582 264.333 104.95 265.201 105.59C266.073 106.221 266.707 107.09 267.105 108.197C267.357 108.901 267.466 109.649 267.432 110.443C267.398 111.236 267.164 112.183 266.73 113.282C266.302 114.38 265.627 115.753 264.704 117.402L263.225 120.235L263.267 120.352L270.757 117.664L272.05 121.264L258.369 126.175ZM281.74 118.071C280.393 118.555 279.108 118.741 277.886 118.629C276.664 118.518 275.596 118.144 274.682 117.508C273.774 116.869 273.109 116.001 272.688 114.903L277.019 113.348C277.299 114.015 277.773 114.463 278.439 114.692C279.103 114.916 279.793 114.899 280.509 114.642C281.069 114.441 281.521 114.14 281.865 113.737C282.21 113.335 282.426 112.867 282.513 112.334C282.597 111.794 282.532 111.233 282.317 110.652C282.109 110.054 281.799 109.578 281.386 109.223C280.98 108.867 280.513 108.644 279.985 108.555C279.461 108.458 278.916 108.511 278.351 108.714C277.813 108.9 277.347 109.2 276.952 109.613C276.563 110.024 276.32 110.482 276.222 110.985L272.013 111.661L269.24 101.41L281.098 97.1535L282.39 100.754L274.205 103.692L275.346 108.203L275.454 108.164C275.577 107.543 275.919 106.945 276.48 106.37C277.045 105.787 277.764 105.338 278.636 105.025C279.743 104.628 280.823 104.533 281.875 104.739C282.931 104.937 283.872 105.401 284.697 106.13C285.528 106.857 286.155 107.807 286.576 108.98C287.031 110.25 287.134 111.483 286.885 112.679C286.641 113.874 286.081 114.944 285.205 115.89C284.333 116.828 283.178 117.555 281.74 118.071ZM296.257 100.228L297.475 103.622L288.92 106.692L287.702 103.299L296.257 100.228ZM235.295 169.519L234.142 166.306L238.765 157.985C239.106 157.346 239.386 156.773 239.605 156.267C239.822 155.755 239.954 155.272 240.003 154.82C240.049 154.362 239.99 153.905 239.826 153.447C239.642 152.936 239.374 152.54 239.022 152.259C238.668 151.972 238.26 151.799 237.797 151.741C237.335 151.683 236.851 151.744 236.346 151.926C235.834 152.109 235.424 152.375 235.114 152.724C234.803 153.067 234.609 153.473 234.533 153.942C234.462 154.408 234.528 154.921 234.729 155.481L230.496 157C230.045 155.743 229.938 154.555 230.175 153.438C230.412 152.32 230.954 151.331 231.8 150.471C232.649 149.602 233.754 148.924 235.113 148.436C236.515 147.933 237.818 147.73 239.021 147.828C240.224 147.926 241.26 148.294 242.128 148.934C242.999 149.565 243.634 150.434 244.031 151.541C244.284 152.245 244.393 152.993 244.358 153.787C244.324 154.58 244.09 155.526 243.656 156.626C243.228 157.724 242.553 159.097 241.63 160.746L240.152 163.579L240.194 163.696L247.684 161.007L248.976 164.608L235.295 169.519ZM259.306 161.409C257.694 161.988 256.167 162.105 254.726 161.76C253.282 161.409 251.987 160.628 250.839 159.417C249.689 158.199 248.753 156.576 248.031 154.546C247.309 152.517 247.008 150.683 247.126 149.044C247.248 147.398 247.757 145.996 248.652 144.839C249.552 143.674 250.807 142.803 252.42 142.224C254.032 141.645 255.556 141.519 256.991 141.846C258.429 142.165 259.719 142.921 260.861 144.114C262.002 145.307 262.933 146.916 263.652 148.939C264.382 150.973 264.69 152.825 264.577 154.495C264.464 156.166 263.96 157.593 263.068 158.776C262.178 159.951 260.925 160.829 259.306 161.409ZM257.995 157.755C258.957 157.409 259.56 156.639 259.804 155.445C260.045 154.244 259.797 152.625 259.059 150.588C258.579 149.252 258.049 148.2 257.467 147.431C256.883 146.656 256.274 146.141 255.639 145.887C255.005 145.632 254.366 145.62 253.722 145.852C252.765 146.195 252.166 146.957 251.924 148.137C251.68 149.311 251.914 150.898 252.625 152.898C253.104 154.253 253.636 155.329 254.221 156.124C254.811 156.918 255.429 157.446 256.074 157.711C256.717 157.969 257.357 157.984 257.995 157.755ZM269.518 157.235L268.365 154.022L272.987 145.7C273.329 145.062 273.609 144.489 273.828 143.983C274.044 143.47 274.177 142.988 274.225 142.536C274.271 142.078 274.212 141.621 274.048 141.163C273.865 140.652 273.597 140.256 273.245 139.975C272.89 139.688 272.482 139.515 272.02 139.457C271.557 139.399 271.073 139.46 270.568 139.642C270.057 139.825 269.646 140.091 269.337 140.44C269.025 140.783 268.831 141.189 268.755 141.657C268.685 142.124 268.75 142.637 268.951 143.197L264.719 144.716C264.267 143.459 264.16 142.271 264.398 141.154C264.635 140.036 265.176 139.047 266.022 138.187C266.872 137.318 267.976 136.64 269.336 136.152C270.738 135.649 272.04 135.446 273.243 135.544C274.447 135.642 275.482 136.01 276.35 136.649C277.222 137.28 277.856 138.15 278.254 139.257C278.506 139.96 278.615 140.709 278.581 141.502C278.546 142.296 278.312 143.242 277.879 144.342C277.451 145.44 276.776 146.813 275.853 148.461L274.374 151.295L274.416 151.412L281.906 148.723L283.199 152.324L269.518 157.235ZM293.223 149.011C292.212 149.374 291.185 149.559 290.142 149.567C289.097 149.568 288.085 149.341 287.106 148.884C286.125 148.421 285.217 147.681 284.383 146.663C283.547 145.639 282.83 144.283 282.231 142.596C281.691 141.072 281.387 139.64 281.32 138.299C281.251 136.952 281.404 135.732 281.779 134.64C282.16 133.545 282.746 132.605 283.537 131.818C284.332 131.024 285.319 130.415 286.498 129.991C287.791 129.527 289.022 129.371 290.19 129.522C291.362 129.665 292.398 130.054 293.298 130.688C294.196 131.317 294.885 132.129 295.365 133.125L290.97 134.702C290.628 134.166 290.177 133.829 289.618 133.69C289.063 133.543 288.478 133.579 287.865 133.8C286.734 134.206 286.064 134.999 285.857 136.181C285.655 137.36 285.843 138.773 286.421 140.42L286.538 140.378C286.592 139.734 286.786 139.128 287.118 138.56C287.451 137.992 287.887 137.493 288.425 137.062C288.967 136.623 289.583 136.28 290.275 136.031C291.382 135.634 292.452 135.539 293.484 135.746C294.515 135.952 295.432 136.415 296.233 137.132C297.031 137.844 297.633 138.772 298.037 139.918C298.505 141.203 298.613 142.448 298.359 143.653C298.104 144.852 297.536 145.918 296.655 146.852C295.781 147.784 294.637 148.504 293.223 149.011ZM291.965 145.591C292.512 145.395 292.956 145.09 293.297 144.675C293.637 144.261 293.851 143.787 293.937 143.254C294.024 142.72 293.964 142.174 293.757 141.617C293.56 141.049 293.26 140.59 292.855 140.239C292.457 139.887 291.995 139.659 291.469 139.555C290.949 139.45 290.412 139.497 289.859 139.695C289.456 139.84 289.107 140.05 288.812 140.326C288.517 140.602 288.289 140.921 288.127 141.285C287.969 141.64 287.883 142.024 287.868 142.437C287.851 142.844 287.914 143.256 288.057 143.673C288.26 144.218 288.564 144.669 288.971 145.026C289.377 145.383 289.842 145.617 290.364 145.728C290.884 145.834 291.418 145.788 291.965 145.591Z" fill="#260D63"/>
</g>
<defs>
<clipPath id="clip0_72_2099">
<rect width="217" height="217" fill="white" transform="translate(124.523 67.8268) rotate(-18.2139)"/>
</clipPath>
</defs>
</svg>
