<svg width="67" height="66" viewBox="0 0 67 66" fill="none" xmlns="http://www.w3.org/2000/svg">
<path d="M43.6029 65.9056H24.1137C5.67661 65.9056 0.905518 61.1345 0.905518 42.6974V23.2082C0.905518 4.77109 5.67661 0 24.1137 0H43.6006C62.04 0 66.8111 4.77109 66.8111 23.2082V42.6974C66.8111 61.1345 62.04 65.9056 43.6029 65.9056ZM24.1137 2.35377C6.96177 2.35377 3.25929 6.05625 3.25929 23.2082V42.6974C3.25929 59.8493 6.96177 63.5518 24.1137 63.5518H43.6006C60.7525 63.5518 64.455 59.8493 64.455 42.6974V23.2082C64.4573 6.05625 60.7549 2.35377 43.6029 2.35377H24.1137Z" fill="white"/>
<path d="M43.6029 65.9056H24.1137C5.67661 65.9056 0.905518 61.1345 0.905518 42.6974V23.2082C0.905518 4.77109 5.67661 0 24.1137 0H43.6006C62.04 0 66.8111 4.77109 66.8111 23.2082V42.6974C66.8111 61.1345 62.04 65.9056 43.6029 65.9056ZM24.1137 2.35377C6.96177 2.35377 3.25929 6.05625 3.25929 23.2082V42.6974C3.25929 59.8493 6.96177 63.5518 24.1137 63.5518H43.6006C60.7525 63.5518 64.455 59.8493 64.455 42.6974V23.2082C64.4573 6.05625 60.7549 2.35377 43.6029 2.35377H24.1137Z" stroke="white"/>
<path d="M51.8748 14.5432C51.0061 13.8264 49.8123 13.642 48.7661 14.0629L13.3411 28.2951C11.7828 28.9334 11.0395 30.708 11.6809 32.2586C12.0127 33.0606 12.673 33.683 13.4955 33.9692L21.1378 36.6131L25.2794 50.2401C25.2839 50.2549 25.2932 50.2666 25.3026 50.2784C25.3108 50.2887 25.3191 50.299 25.3241 50.3114C25.3669 50.4201 25.4296 50.5201 25.5086 50.6063C25.538 50.6411 25.5701 50.6736 25.6044 50.7036C25.7076 50.7889 25.8274 50.8519 25.9563 50.8887C25.9657 50.8914 25.9736 50.8969 25.9815 50.9023C25.9901 50.9082 25.9987 50.914 26.0092 50.9164L26.0208 50.9159L26.0265 50.9183C26.0926 50.933 26.1599 50.9401 26.2274 50.9395C26.3156 50.9364 26.4031 50.9212 26.4871 50.8944C26.4946 50.8924 26.5022 50.8915 26.5097 50.8907C26.5185 50.8897 26.5271 50.8888 26.5357 50.8859C26.6792 50.8356 26.8088 50.7529 26.9144 50.6441C26.9203 50.6381 26.9277 50.6346 26.9352 50.631C26.9431 50.6272 26.9511 50.6234 26.9572 50.6167L32.9158 44.0741L41.6084 50.7723C42.1366 51.1833 42.7878 51.4065 43.4581 51.4064C44.9082 51.4062 46.1599 50.3953 46.4587 48.9834L52.9097 17.4677C53.1332 16.3775 52.7353 15.2535 51.8748 14.5432ZM27.442 39.1975L26.0437 45.9595L23.1276 36.3621L37.5905 28.8676L27.7104 38.6998C27.5737 38.8359 27.4805 39.0089 27.442 39.1975ZM44.5222 48.5876C44.4464 48.9498 44.1867 49.2468 43.8367 49.3716C43.4947 49.5025 43.1085 49.4441 42.8211 49.2179L33.4025 41.9605C32.9947 41.6464 32.4127 41.6974 32.0663 42.0777L27.9229 46.6271L29.3187 39.8834L43.5316 25.7376C43.9179 25.354 43.9185 24.7314 43.533 24.3471C43.228 24.0429 42.7599 23.9711 42.377 24.1697L21.8868 34.7881L14.1424 32.1092C13.7202 31.971 13.4331 31.581 13.428 31.1389C13.4076 30.6936 13.6724 30.2842 14.0883 30.1186L49.5076 15.8883C49.8776 15.732 50.3045 15.7975 50.6101 16.0573C50.9142 16.3016 51.0539 16.6956 50.9712 17.0757L44.5222 48.5876Z" fill="white"/>
<path d="M51.8748 14.5432C51.0061 13.8264 49.8123 13.642 48.7661 14.0629L13.3411 28.2951C11.7828 28.9334 11.0395 30.708 11.6809 32.2586C12.0127 33.0606 12.673 33.683 13.4955 33.9692L21.1378 36.6131L25.2794 50.2401C25.2839 50.2549 25.2932 50.2666 25.3026 50.2784C25.3108 50.2887 25.3191 50.299 25.3241 50.3114C25.3669 50.4201 25.4296 50.5201 25.5086 50.6063C25.538 50.6411 25.5701 50.6736 25.6044 50.7036C25.7076 50.7889 25.8274 50.8519 25.9563 50.8887C25.9657 50.8914 25.9736 50.8969 25.9815 50.9023C25.9901 50.9082 25.9987 50.914 26.0092 50.9164L26.0208 50.9159L26.0265 50.9183C26.0926 50.933 26.1599 50.9401 26.2274 50.9395C26.3156 50.9364 26.4031 50.9212 26.4871 50.8944C26.4946 50.8924 26.5022 50.8915 26.5097 50.8907C26.5185 50.8897 26.5271 50.8888 26.5357 50.8859C26.6792 50.8356 26.8088 50.7529 26.9144 50.6441C26.9203 50.6381 26.9277 50.6346 26.9352 50.631C26.9431 50.6272 26.9511 50.6234 26.9572 50.6167L32.9158 44.0741L41.6084 50.7723C42.1366 51.1833 42.7878 51.4065 43.4581 51.4064C44.9082 51.4062 46.1599 50.3953 46.4587 48.9834L52.9097 17.4677C53.1332 16.3775 52.7353 15.2535 51.8748 14.5432ZM27.442 39.1975L26.0437 45.9595L23.1276 36.3621L37.5905 28.8676L27.7104 38.6998C27.5737 38.8359 27.4805 39.0089 27.442 39.1975ZM44.5222 48.5876C44.4464 48.9498 44.1867 49.2468 43.8367 49.3716C43.4947 49.5025 43.1085 49.4441 42.8211 49.2179L33.4025 41.9605C32.9947 41.6464 32.4127 41.6974 32.0663 42.0777L27.9229 46.6271L29.3187 39.8834L43.5316 25.7376C43.9179 25.354 43.9185 24.7314 43.533 24.3471C43.228 24.0429 42.7599 23.9711 42.377 24.1697L21.8868 34.7881L14.1424 32.1092C13.7202 31.971 13.4331 31.581 13.428 31.1389C13.4076 30.6936 13.6724 30.2842 14.0883 30.1186L49.5076 15.8883C49.8776 15.732 50.3045 15.7975 50.6101 16.0573C50.9142 16.3016 51.0539 16.6956 50.9712 17.0757L44.5222 48.5876Z" stroke="white"/>
</svg>
