<svg width="385" height="385" viewBox="0 0 385 385" fill="none" xmlns="http://www.w3.org/2000/svg">
<g clip-path="url(#clip0_72_9420)">
<path d="M158.216 76.4241L125.22 91.0086C124.019 91.5387 123.901 93.2834 124.992 94.4339L183.323 155.985C184.501 157.226 184.251 159.119 182.859 159.492L169.034 163.208C167.476 163.624 167.408 165.898 168.921 167.028L215.782 201.951C217.485 203.22 217.134 205.784 215.256 205.828L203.073 206.113C201.101 206.157 200.851 208.922 202.715 210.115L277.436 257.658C279.612 259.042 281.365 256.407 279.556 254.475L242.615 214.88C241.312 213.48 241.826 211.387 243.488 211.328L255.969 210.909C257.833 210.844 258.169 208.305 256.487 207.038L216.127 176.681C214.689 175.583 214.658 173.414 216.115 172.911L229.653 168.003C230.853 167.565 231.097 165.933 230.143 164.724L160.766 77.2571C160.629 77.0586 160.463 76.8862 160.268 76.7418C160.074 76.5967 159.862 76.4867 159.631 76.4119C159.401 76.3364 159.165 76.3005 158.923 76.3018C158.681 76.305 158.445 76.345 158.216 76.4241Z" fill="#EF7C00"/>
<path d="M226.925 86.5842L217.857 87.7921C217.775 87.8151 217.701 87.8564 217.639 87.9145C217.576 87.9726 217.53 88.0416 217.499 88.1223C217.47 88.2034 217.46 88.2864 217.471 88.3713C217.481 88.4562 217.51 88.5335 217.558 88.6051L227.344 107.711C227.541 108.094 227.339 108.543 226.98 108.529L223.362 108.446C222.949 108.436 222.773 108.985 223.062 109.366L231.953 121.181C232.275 121.614 232.012 122.208 231.559 122.094L228.579 121.302C228.099 121.166 227.837 121.821 228.205 122.241L242.972 139.114C243.399 139.607 244.015 139.093 243.713 138.495L237.563 126.252C237.333 125.801 237.618 125.346 238.028 125.452L241.097 126.23C241.551 126.347 241.816 125.757 241.488 125.316L233.866 115.057C233.592 114.688 233.745 114.164 234.131 114.139L237.775 113.921C238.099 113.905 238.288 113.539 238.127 113.162L227.478 86.9766C227.439 86.8563 227.369 86.7597 227.267 86.6868C227.164 86.6148 227.051 86.58 226.925 86.5842Z" fill="black"/>
<path d="M67.6361 117.926L57.5324 127.003C57.4914 127.05 57.4561 127.102 57.427 127.159C57.3986 127.216 57.3776 127.275 57.362 127.336C57.3471 127.398 57.3407 127.461 57.341 127.523C57.3409 127.588 57.3489 127.65 57.3645 127.711C57.3791 127.773 57.4017 127.832 57.4314 127.887C57.46 127.944 57.4959 127.996 57.5373 128.043C57.5795 128.091 57.6255 128.133 57.6778 128.17C57.7294 128.206 57.7847 128.236 57.8437 128.26L85.9278 143.46C86.4969 143.765 86.6248 144.473 86.1701 144.766L81.6681 147.726C81.1571 148.061 81.3977 148.879 82.0712 149.107L102.921 156.12C103.676 156.374 103.852 157.333 103.188 157.571L98.8621 159.098C98.1602 159.345 98.3933 160.362 99.195 160.569L131.505 168.85C132.445 169.092 132.749 167.926 131.891 167.46L114.04 157.616C113.409 157.27 113.347 156.457 113.935 156.243L118.346 154.634C119.007 154.393 118.832 153.445 118.08 153.188L100.086 147.05C99.4405 146.826 99.1853 146.055 99.6418 145.698L103.908 142.36C104.309 142.062 104.185 141.45 103.703 141.131L68.6238 117.939C68.554 117.885 68.4767 117.844 68.392 117.814C68.308 117.786 68.2211 117.771 68.1323 117.769C68.0434 117.767 67.9561 117.781 67.8716 117.808C67.7861 117.835 67.7082 117.874 67.6361 117.926Z" fill="black"/>
<path d="M86.8272 185.257L67.8801 206.396C67.1993 207.156 67.6338 208.446 68.7241 208.882L128.228 233.471C129.427 233.968 129.823 235.399 128.943 236.109L120.295 243.263C119.318 244.076 119.942 245.704 121.354 246.013L164.805 255.449C166.384 255.788 166.906 257.723 165.589 258.366L157.076 262.555C155.708 263.229 156.345 265.27 158.014 265.494L224.914 274.799C226.861 275.071 227.314 272.63 225.462 271.846L187.591 255.829C186.256 255.265 185.992 253.611 187.156 253.04L195.842 248.66C197.135 248.003 196.617 246.092 195.052 245.745L157.535 237.413C156.184 237.114 155.551 235.581 156.402 234.742L164.505 226.855C165.227 226.15 164.922 224.901 163.894 224.356L88.8993 185.013C88.7384 184.914 88.5648 184.845 88.3801 184.806C88.1946 184.765 88.0092 184.756 87.8211 184.778C87.6329 184.801 87.4547 184.852 87.2843 184.934C87.1139 185.016 86.9614 185.124 86.8272 185.257Z" fill="#EF7C00"/>
<path d="M287.156 120.484L268.828 122.27C268.748 122.28 268.67 122.3 268.594 122.33C268.519 122.359 268.449 122.398 268.382 122.444C268.316 122.492 268.257 122.546 268.204 122.607C268.151 122.667 268.105 122.734 268.069 122.806C268.032 122.878 268.004 122.955 267.986 123.033C267.967 123.111 267.959 123.192 267.96 123.272C267.96 123.353 267.971 123.432 267.992 123.511C268.011 123.589 268.041 123.664 268.079 123.735L284.148 158.683C284.189 158.759 284.219 158.839 284.238 158.922C284.258 159.007 284.266 159.091 284.264 159.177C284.262 159.263 284.249 159.347 284.225 159.429C284.201 159.513 284.168 159.591 284.123 159.664C284.079 159.738 284.026 159.805 283.965 159.865C283.903 159.926 283.835 159.977 283.762 160.02C283.686 160.063 283.607 160.095 283.525 160.117C283.442 160.138 283.356 160.151 283.271 160.151L276.031 159.87C275.835 159.869 275.654 159.921 275.488 160.025C275.322 160.131 275.199 160.272 275.116 160.449C275.034 160.628 275.005 160.814 275.032 161.009C275.061 161.202 275.137 161.374 275.266 161.523L290.873 183.24C290.939 183.32 290.991 183.408 291.03 183.503C291.069 183.6 291.092 183.7 291.101 183.802C291.108 183.906 291.1 184.008 291.076 184.11C291.053 184.21 291.014 184.304 290.96 184.394C290.907 184.483 290.842 184.561 290.763 184.629C290.686 184.699 290.599 184.753 290.505 184.795C290.41 184.836 290.311 184.863 290.208 184.874C290.105 184.884 290.002 184.879 289.901 184.859L284.094 183.295C283.159 183.043 282.521 184.214 283.175 184.985L309.593 216.081C309.669 216.178 309.761 216.258 309.867 216.32C309.974 216.383 310.088 216.423 310.21 216.442C310.331 216.461 310.452 216.455 310.573 216.428C310.693 216.401 310.804 216.352 310.905 216.282C311.007 216.212 311.093 216.125 311.161 216.023C311.23 215.92 311.278 215.809 311.304 215.689C311.33 215.568 311.333 215.447 311.313 215.325C311.293 215.203 311.251 215.09 311.188 214.983L301.148 192.587C301.064 192.416 301.03 192.236 301.048 192.048C301.066 191.858 301.131 191.688 301.247 191.537C301.361 191.386 301.508 191.277 301.685 191.208C301.862 191.139 302.043 191.123 302.23 191.159L308.204 192.704C308.307 192.728 308.411 192.733 308.516 192.724C308.621 192.714 308.723 192.688 308.819 192.647C308.916 192.606 309.004 192.551 309.083 192.48C309.163 192.411 309.229 192.331 309.284 192.24C309.337 192.149 309.376 192.053 309.399 191.951C309.423 191.847 309.429 191.744 309.42 191.638C309.41 191.535 309.385 191.433 309.344 191.336C309.303 191.239 309.247 191.15 309.178 191.071L295.802 172.23C295.688 172.089 295.617 171.927 295.591 171.747C295.565 171.567 295.587 171.392 295.655 171.224C295.724 171.055 295.832 170.916 295.976 170.805C296.121 170.696 296.286 170.63 296.466 170.61L303.777 170.339C303.856 170.334 303.932 170.318 304.007 170.294C304.081 170.27 304.152 170.237 304.219 170.196C304.287 170.156 304.348 170.107 304.403 170.052C304.459 169.996 304.508 169.935 304.549 169.868C304.591 169.802 304.624 169.731 304.648 169.657C304.674 169.582 304.688 169.506 304.696 169.427C304.702 169.35 304.699 169.271 304.687 169.194C304.676 169.116 304.656 169.04 304.625 168.968L288.204 121.199C288.172 121.088 288.122 120.985 288.054 120.891C287.986 120.798 287.904 120.718 287.808 120.654C287.713 120.588 287.609 120.541 287.497 120.511C287.385 120.482 287.271 120.473 287.156 120.484Z" fill="#EF7C00"/>
<path d="M282.108 264.448C282.398 264.231 282.653 263.978 282.871 263.688C283.002 263.518 283.119 263.337 283.218 263.146C283.317 262.955 283.398 262.757 283.461 262.551C283.525 262.345 283.568 262.134 283.593 261.921C283.618 261.708 283.624 261.493 283.609 261.278C283.595 261.063 283.562 260.852 283.51 260.642C283.458 260.434 283.386 260.231 283.297 260.036C283.208 259.839 283.101 259.653 282.978 259.477C282.855 259.3 282.716 259.136 282.564 258.984L241.101 216.632C240.911 216.436 240.785 216.204 240.727 215.937C240.668 215.67 240.684 215.407 240.774 215.149C240.863 214.891 241.016 214.675 241.229 214.504C241.441 214.331 241.683 214.228 241.954 214.193L257.56 212.262C257.927 212.217 258.278 212.118 258.613 211.965C258.949 211.812 259.255 211.612 259.53 211.366C259.805 211.119 260.037 210.837 260.225 210.519C260.413 210.203 260.55 209.864 260.635 209.504C260.72 209.145 260.749 208.782 260.723 208.413C260.695 208.045 260.614 207.689 260.478 207.346C260.342 207.002 260.159 206.687 259.926 206.4C259.693 206.113 259.423 205.868 259.116 205.663L212.312 174.572C212.09 174.426 211.922 174.234 211.807 173.993C211.693 173.755 211.647 173.503 211.671 173.239C211.696 172.974 211.786 172.735 211.943 172.521C212.1 172.308 212.3 172.148 212.545 172.044L229.966 164.705C230.097 164.651 230.222 164.591 230.345 164.523C230.467 164.453 230.585 164.379 230.699 164.296C230.813 164.214 230.921 164.126 231.025 164.032C231.128 163.938 231.226 163.836 231.318 163.731C231.409 163.625 231.496 163.514 231.573 163.399C231.652 163.282 231.725 163.162 231.789 163.038C231.854 162.914 231.912 162.787 231.963 162.655C232.012 162.524 232.055 162.391 232.09 162.255C232.124 162.119 232.151 161.981 232.169 161.844C232.188 161.704 232.198 161.565 232.202 161.425C232.203 161.285 232.198 161.145 232.184 161.005C232.171 160.865 232.148 160.728 232.119 160.591C232.089 160.453 232.051 160.319 232.005 160.186C231.959 160.053 231.907 159.924 231.846 159.797C231.786 159.672 231.718 159.549 231.644 159.431C231.568 159.311 231.487 159.198 231.399 159.088L155.021 64.1526C154.894 63.9926 154.754 63.8458 154.602 63.7107C154.45 63.5745 154.287 63.4528 154.114 63.3448C153.941 63.2369 153.76 63.1438 153.572 63.0668C153.382 62.9896 153.189 62.9287 152.989 62.8851C152.79 62.8397 152.589 62.8128 152.385 62.8036C152.182 62.7927 151.979 62.7997 151.776 62.8237C151.573 62.8488 151.373 62.8895 151.179 62.9481C150.983 63.0063 150.795 63.08 150.611 63.1704L107.81 84.1739C107.55 84.2976 107.309 84.4499 107.087 84.6313C106.864 84.8136 106.667 85.0196 106.494 85.2491C106.322 85.4788 106.179 85.7259 106.066 85.9898C105.953 86.2538 105.874 86.5274 105.827 86.8115C105.777 87.0951 105.761 87.381 105.782 87.6683C105.8 87.9554 105.854 88.2355 105.942 88.5109C106.029 88.7845 106.148 89.0447 106.3 89.2907C106.451 89.5349 106.63 89.7593 106.834 89.961L172.449 155.683C172.536 155.769 172.611 155.865 172.673 155.971C172.735 156.077 172.783 156.188 172.816 156.306C172.85 156.425 172.868 156.545 172.871 156.667C172.873 156.79 172.861 156.91 172.833 157.03C172.804 157.149 172.762 157.263 172.705 157.371C172.649 157.479 172.579 157.579 172.496 157.67C172.414 157.761 172.321 157.84 172.219 157.906C172.116 157.974 172.006 158.026 171.89 158.066L154.232 164.031C153.912 164.141 153.614 164.293 153.336 164.486C153.059 164.68 152.813 164.908 152.6 165.17C152.387 165.432 152.214 165.718 152.081 166.03C151.948 166.34 151.861 166.663 151.818 166.999C151.775 167.333 151.78 167.668 151.83 168.002C151.881 168.336 151.978 168.657 152.118 168.964C152.26 169.271 152.44 169.553 152.66 169.809C152.88 170.065 153.131 170.287 153.413 170.474L207.767 206.161C207.891 206.243 208 206.34 208.094 206.456C208.187 206.57 208.261 206.696 208.315 206.833C208.369 206.971 208.402 207.113 208.413 207.261C208.423 207.408 208.411 207.555 208.378 207.698C208.343 207.841 208.288 207.978 208.212 208.104C208.136 208.232 208.043 208.344 207.932 208.442C207.821 208.54 207.699 208.619 207.563 208.679C207.428 208.739 207.287 208.778 207.14 208.795L191.927 210.533C191.738 210.555 191.55 210.592 191.366 210.644C191.183 210.696 191.004 210.761 190.83 210.841C190.657 210.922 190.491 211.014 190.332 211.12C190.173 211.227 190.024 211.344 189.885 211.474C189.744 211.603 189.616 211.743 189.498 211.894C189.38 212.044 189.275 212.203 189.181 212.37C189.088 212.537 189.009 212.71 188.944 212.89C188.879 213.069 188.828 213.252 188.791 213.44C188.755 213.627 188.734 213.816 188.727 214.008C188.721 214.197 188.729 214.388 188.753 214.578C188.777 214.767 188.815 214.954 188.869 215.137C188.921 215.321 188.989 215.499 189.071 215.671C189.151 215.844 189.246 216.01 189.353 216.167C189.461 216.325 189.581 216.473 189.712 216.612C189.843 216.751 189.984 216.878 190.135 216.995C190.287 217.112 190.446 217.215 190.613 217.307L278.276 264.68C278.573 264.846 278.886 264.968 279.218 265.044C279.55 265.121 279.886 265.148 280.226 265.128C280.566 265.107 280.895 265.039 281.216 264.923C281.536 264.807 281.833 264.649 282.108 264.448ZM239.951 212.737C239.743 212.891 239.554 213.064 239.385 213.259C239.215 213.454 239.067 213.665 238.943 213.891C238.817 214.116 238.718 214.353 238.644 214.6C238.569 214.847 238.523 215.1 238.503 215.358C238.482 215.614 238.489 215.871 238.524 216.127C238.559 216.383 238.62 216.632 238.708 216.875C238.796 217.118 238.909 217.349 239.046 217.568C239.183 217.786 239.343 217.988 239.523 218.173L281.041 260.496C281.159 260.62 281.253 260.76 281.322 260.917C281.392 261.073 281.431 261.237 281.442 261.409C281.452 261.581 281.432 261.747 281.382 261.912C281.333 262.077 281.257 262.226 281.153 262.364C281.05 262.5 280.926 262.615 280.782 262.707C280.638 262.8 280.481 262.865 280.314 262.902C280.146 262.939 279.977 262.945 279.808 262.922C279.638 262.898 279.478 262.847 279.327 262.766L191.668 215.397C191.53 215.325 191.409 215.234 191.302 215.123C191.195 215.013 191.109 214.888 191.043 214.749C190.976 214.61 190.933 214.464 190.913 214.312C190.894 214.159 190.898 214.007 190.927 213.857C190.956 213.705 191.008 213.562 191.084 213.428C191.158 213.294 191.252 213.174 191.365 213.071C191.479 212.966 191.606 212.883 191.747 212.82C191.886 212.756 192.032 212.717 192.185 212.701L207.399 210.962C207.768 210.92 208.123 210.824 208.461 210.673C208.801 210.521 209.11 210.323 209.388 210.077C209.667 209.83 209.902 209.548 210.092 209.228C210.284 208.909 210.422 208.57 210.508 208.209C210.595 207.847 210.624 207.482 210.597 207.11C210.57 206.74 210.489 206.381 210.352 206.037C210.214 205.691 210.028 205.375 209.793 205.087C209.559 204.799 209.285 204.552 208.975 204.348L154.613 168.66C154.383 168.51 154.21 168.309 154.096 168.059C153.981 167.809 153.941 167.548 153.976 167.275C154.011 167.002 154.116 166.758 154.289 166.545C154.464 166.333 154.682 166.182 154.942 166.093L172.586 160.126C172.732 160.078 172.873 160.019 173.011 159.953C173.149 159.885 173.281 159.81 173.409 159.726C173.537 159.643 173.659 159.551 173.776 159.45C173.893 159.352 174.002 159.246 174.104 159.132C174.207 159.019 174.304 158.9 174.39 158.774C174.479 158.649 174.558 158.519 174.63 158.383C174.701 158.248 174.763 158.108 174.817 157.965C174.87 157.821 174.914 157.675 174.949 157.527C174.983 157.377 175.008 157.226 175.024 157.074C175.04 156.922 175.047 156.77 175.042 156.616C175.039 156.463 175.026 156.311 175.004 156.159C174.98 156.008 174.947 155.859 174.906 155.713C174.865 155.565 174.814 155.421 174.752 155.28C174.692 155.14 174.624 155.004 174.546 154.872C174.469 154.739 174.383 154.613 174.29 154.492C174.195 154.371 174.095 154.257 173.986 154.148L108.366 88.4428C108.285 88.3626 108.215 88.2726 108.155 88.1747C108.096 88.0769 108.049 87.9732 108.014 87.8638C107.978 87.7543 107.957 87.6431 107.948 87.529C107.94 87.4141 107.946 87.3012 107.964 87.1882C107.984 87.0745 108.015 86.9654 108.061 86.8603C108.106 86.7542 108.162 86.6563 108.231 86.564C108.299 86.4717 108.379 86.3896 108.466 86.3163C108.555 86.244 108.65 86.1813 108.753 86.1311L151.571 65.1596C151.719 65.0865 151.873 65.041 152.034 65.0221C152.197 65.0024 152.357 65.0101 152.518 65.0461C152.677 65.0818 152.826 65.1427 152.964 65.2284C153.103 65.3153 153.224 65.4222 153.325 65.55L229.706 160.49C229.776 160.577 229.835 160.67 229.884 160.771C229.932 160.872 229.968 160.976 229.992 161.086C230.016 161.195 230.027 161.306 230.025 161.418C230.023 161.528 230.008 161.639 229.981 161.747C229.954 161.855 229.914 161.96 229.863 162.057C229.811 162.157 229.749 162.249 229.676 162.333C229.604 162.418 229.521 162.493 229.431 162.558C229.341 162.625 229.244 162.679 229.141 162.722L211.72 170.062C211.416 170.187 211.136 170.35 210.877 170.551C210.619 170.753 210.391 170.984 210.195 171.248C210 171.512 209.843 171.795 209.725 172.101C209.607 172.406 209.532 172.723 209.5 173.049C209.468 173.375 209.479 173.699 209.536 174.022C209.592 174.345 209.69 174.655 209.831 174.951C209.97 175.248 210.147 175.519 210.363 175.767C210.577 176.015 210.821 176.23 211.093 176.411L257.908 207.476C258.032 207.557 258.139 207.655 258.231 207.77C258.324 207.884 258.397 208.009 258.451 208.146C258.505 208.283 258.537 208.424 258.548 208.57C258.558 208.718 258.546 208.862 258.513 209.006C258.479 209.149 258.425 209.283 258.35 209.409C258.274 209.536 258.182 209.648 258.073 209.746C257.963 209.845 257.842 209.924 257.709 209.985C257.575 210.047 257.435 210.086 257.288 210.104L241.691 212.035C241.059 212.114 240.487 212.34 239.975 212.719L239.951 212.737Z" fill="black"/>
<mask id="mask0_72_9420" style="mask-type:luminance" maskUnits="userSpaceOnUse" x="42" y="138" width="188" height="203">
<path d="M126.478 138.978L42.8965 201.078L146.16 340.063L229.742 277.963L126.478 138.978Z" fill="white"/>
</mask>
<g mask="url(#mask0_72_9420)">
<path d="M227.213 279.836C227.499 279.62 227.739 279.362 227.933 279.059C228.126 278.759 228.262 278.433 228.339 278.083C228.383 277.909 228.41 277.732 228.422 277.551C228.434 277.372 228.428 277.193 228.408 277.015C228.387 276.835 228.349 276.66 228.296 276.488C228.243 276.316 228.175 276.15 228.092 275.991C228.008 275.832 227.913 275.681 227.801 275.539C227.69 275.397 227.568 275.266 227.433 275.147C227.298 275.027 227.154 274.921 227.001 274.828C226.847 274.734 226.685 274.656 226.517 274.593L184.449 257.797C184.3 257.738 184.177 257.644 184.081 257.515C183.986 257.386 183.931 257.242 183.919 257.082C183.905 256.922 183.937 256.771 184.01 256.628C184.083 256.486 184.19 256.374 184.328 256.292L194.642 250.123C194.913 249.97 195.155 249.778 195.367 249.549C195.578 249.32 195.751 249.065 195.882 248.782C196.014 248.499 196.1 248.202 196.139 247.894C196.179 247.585 196.171 247.275 196.114 246.969C196.057 246.662 195.955 246.372 195.809 246.097C195.661 245.822 195.475 245.577 195.251 245.36C195.027 245.142 194.776 244.964 194.496 244.825C194.217 244.688 193.923 244.595 193.615 244.549L151.303 237.267C151.149 237.24 151.015 237.177 150.897 237.076C150.779 236.975 150.695 236.851 150.645 236.703C150.595 236.557 150.587 236.408 150.621 236.255C150.653 236.104 150.723 235.971 150.829 235.857L160.763 225.363C160.844 225.279 160.919 225.19 160.99 225.096C161.061 225.004 161.126 224.906 161.185 224.806C161.244 224.705 161.298 224.602 161.344 224.495C161.391 224.387 161.433 224.278 161.466 224.166C161.501 224.054 161.528 223.942 161.549 223.826C161.57 223.712 161.584 223.595 161.592 223.479C161.6 223.363 161.601 223.246 161.595 223.13C161.588 223.013 161.576 222.897 161.557 222.782C161.537 222.666 161.511 222.553 161.477 222.441C161.444 222.328 161.404 222.219 161.36 222.112C161.314 222.004 161.261 221.899 161.204 221.798C161.145 221.697 161.083 221.599 161.013 221.505C160.943 221.412 160.868 221.322 160.788 221.236C160.709 221.152 160.624 221.071 160.535 220.995C160.446 220.92 160.352 220.85 160.255 220.785C160.158 220.722 160.058 220.662 159.953 220.61L77.2181 177.808C77.0678 177.728 76.9116 177.662 76.7487 177.61C76.5869 177.556 76.4218 177.519 76.253 177.494C76.0842 177.469 75.9139 177.46 75.7436 177.464C75.5741 177.47 75.4056 177.487 75.2375 177.521C75.0705 177.555 74.9072 177.602 74.7494 177.663C74.5897 177.724 74.4374 177.799 74.29 177.885C74.1435 177.972 74.0057 178.072 73.8765 178.182C73.7466 178.292 73.6272 178.414 73.5189 178.544L50.0616 206.414C49.9846 206.506 49.9128 206.601 49.845 206.701C49.779 206.801 49.7183 206.904 49.6645 207.011C49.6099 207.118 49.5625 207.228 49.5222 207.34C49.4808 207.454 49.4469 207.568 49.4193 207.684C49.3925 207.802 49.3713 207.92 49.3586 208.038C49.3456 208.159 49.3395 208.277 49.3416 208.398C49.3429 208.518 49.3508 208.637 49.3665 208.756C49.3821 208.875 49.4047 208.992 49.4349 209.109C49.4641 209.226 49.5005 209.339 49.5437 209.451C49.5878 209.563 49.6382 209.671 49.6937 209.777C49.751 209.883 49.8137 209.985 49.8817 210.083C49.9515 210.182 50.0249 210.276 50.1056 210.365C50.1853 210.454 50.2696 210.539 50.3602 210.618C50.45 210.697 50.5444 210.771 50.6443 210.839C50.7424 210.906 50.8451 210.969 50.9517 211.023C51.0573 211.079 51.1666 211.128 51.2789 211.17L117.441 236.864C117.508 236.891 117.571 236.925 117.628 236.967C117.688 237.009 117.739 237.056 117.785 237.111C117.831 237.166 117.87 237.227 117.9 237.292C117.93 237.357 117.951 237.424 117.966 237.494C117.979 237.565 117.984 237.636 117.979 237.708C117.974 237.779 117.96 237.849 117.938 237.917C117.915 237.984 117.885 238.048 117.846 238.109C117.806 238.169 117.761 238.224 117.71 238.273L107.207 247.893C106.993 248.083 106.811 248.298 106.66 248.539C106.508 248.78 106.393 249.038 106.315 249.311C106.236 249.586 106.197 249.865 106.199 250.149C106.2 250.434 106.242 250.714 106.322 250.986C106.403 251.26 106.52 251.516 106.674 251.756C106.828 251.996 107.013 252.21 107.227 252.396C107.441 252.584 107.678 252.738 107.936 252.857C108.195 252.976 108.465 253.059 108.747 253.1L157.782 261.259C157.955 261.288 158.107 261.366 158.234 261.49C158.359 261.614 158.439 261.763 158.471 261.938C158.503 262.112 158.483 262.281 158.409 262.442C158.335 262.604 158.222 262.73 158.069 262.82L147.968 268.731C147.682 268.887 147.428 269.085 147.206 269.324C146.984 269.564 146.807 269.832 146.672 270.129C146.538 270.427 146.455 270.738 146.422 271.062C146.389 271.387 146.41 271.709 146.482 272.026C146.554 272.345 146.675 272.643 146.845 272.922C147.014 273.2 147.224 273.445 147.473 273.655C147.722 273.864 147.999 274.03 148.302 274.151C148.606 274.27 148.92 274.339 149.246 274.356L225.16 280.408C225.525 280.442 225.884 280.41 226.238 280.31C226.591 280.211 226.917 280.054 227.213 279.836ZM182.956 254.597C182.739 254.756 182.545 254.939 182.376 255.151C182.208 255.361 182.07 255.591 181.964 255.839C181.858 256.087 181.786 256.344 181.749 256.611C181.712 256.878 181.711 257.146 181.746 257.413C181.781 257.681 181.852 257.939 181.956 258.187C182.061 258.436 182.197 258.666 182.363 258.878C182.531 259.09 182.723 259.276 182.939 259.436C183.158 259.596 183.392 259.724 183.644 259.821L225.716 276.614C225.807 276.652 225.891 276.705 225.965 276.773C226.038 276.841 226.097 276.92 226.143 277.009C226.189 277.099 226.217 277.193 226.229 277.292C226.242 277.391 226.236 277.49 226.213 277.588C226.19 277.686 226.151 277.776 226.096 277.86C226.041 277.942 225.973 278.014 225.892 278.074C225.812 278.133 225.724 278.176 225.628 278.205C225.531 278.233 225.433 278.243 225.333 278.237L149.417 272.18C149.233 272.166 149.072 272.098 148.933 271.978C148.795 271.858 148.704 271.708 148.663 271.528C148.622 271.35 148.637 271.175 148.709 271.007C148.782 270.838 148.897 270.707 149.055 270.612L159.156 264.702C159.427 264.548 159.671 264.357 159.883 264.127C160.096 263.898 160.268 263.643 160.401 263.359C160.533 263.076 160.618 262.78 160.659 262.47C160.698 262.16 160.69 261.851 160.633 261.544C160.575 261.237 160.473 260.946 160.326 260.67C160.178 260.395 159.992 260.149 159.767 259.931C159.542 259.715 159.289 259.537 159.008 259.399C158.729 259.261 158.434 259.168 158.125 259.124L109.09 250.965C108.93 250.94 108.788 250.874 108.666 250.766C108.545 250.658 108.461 250.525 108.418 250.369C108.369 250.215 108.366 250.06 108.409 249.905C108.454 249.749 108.537 249.618 108.658 249.512L119.159 239.89C119.256 239.805 119.346 239.714 119.43 239.616C119.514 239.52 119.591 239.417 119.662 239.31C119.733 239.203 119.796 239.092 119.852 238.977C119.908 238.861 119.958 238.743 120 238.622C120.04 238.501 120.074 238.377 120.099 238.25C120.125 238.125 120.143 237.998 120.151 237.87C120.161 237.742 120.161 237.614 120.154 237.486C120.147 237.357 120.131 237.23 120.108 237.104C120.084 236.978 120.053 236.854 120.013 236.732C119.974 236.61 119.927 236.491 119.872 236.375C119.817 236.259 119.755 236.147 119.685 236.04C119.616 235.931 119.541 235.828 119.458 235.729C119.375 235.631 119.288 235.538 119.193 235.45C119.099 235.364 119 235.284 118.895 235.209C118.79 235.135 118.681 235.068 118.567 235.008C118.454 234.947 118.338 234.895 118.218 234.85L52.0568 209.166C51.9949 209.143 51.9369 209.112 51.8819 209.073C51.8277 209.036 51.7773 208.992 51.7324 208.943C51.6886 208.893 51.6501 208.839 51.618 208.78C51.5859 208.721 51.5607 208.661 51.5438 208.596C51.5266 208.533 51.5173 208.467 51.5139 208.4C51.5123 208.333 51.5182 208.268 51.5318 208.202C51.5451 208.137 51.5658 208.074 51.5936 208.013C51.6223 207.954 51.6573 207.897 51.6981 207.845L75.181 179.943C75.2421 179.869 75.3129 179.807 75.3951 179.757C75.4773 179.708 75.5647 179.674 75.6595 179.655C75.7532 179.636 75.8474 179.634 75.942 179.648C76.0374 179.663 76.1269 179.692 76.2121 179.738L158.933 222.539C159.052 222.597 159.152 222.68 159.231 222.787C159.311 222.894 159.36 223.013 159.383 223.145C159.405 223.275 159.397 223.405 159.359 223.531C159.321 223.658 159.256 223.771 159.165 223.866L149.235 234.357C149.045 234.554 148.884 234.773 148.753 235.016C148.623 235.256 148.528 235.51 148.466 235.777C148.406 236.045 148.382 236.316 148.396 236.59C148.409 236.863 148.459 237.131 148.545 237.391C148.632 237.65 148.752 237.894 148.906 238.121C149.059 238.349 149.24 238.551 149.449 238.728C149.659 238.906 149.887 239.052 150.137 239.166C150.386 239.281 150.646 239.36 150.917 239.404L193.228 246.685C193.401 246.714 193.552 246.791 193.678 246.915C193.805 247.039 193.884 247.188 193.916 247.363C193.949 247.535 193.928 247.704 193.856 247.865C193.783 248.027 193.671 248.151 193.519 248.243L183.21 254.409L182.956 254.597Z" fill="black"/>
</g>
<path d="M308.07 214.603C308.278 214.452 308.455 214.271 308.599 214.059C308.743 213.846 308.846 213.615 308.91 213.367C308.973 213.116 308.991 212.865 308.966 212.609C308.941 212.353 308.873 212.11 308.762 211.879L297.473 187.371C297.458 187.346 297.46 187.325 297.479 187.304C297.487 187.279 297.505 187.265 297.531 187.265L304.541 188.863C304.766 188.912 304.992 188.928 305.222 188.908C305.45 188.889 305.671 188.834 305.884 188.747C306.097 188.658 306.29 188.541 306.467 188.393C306.643 188.246 306.793 188.075 306.917 187.881C307.04 187.686 307.132 187.479 307.192 187.257C307.252 187.035 307.277 186.809 307.266 186.578C307.256 186.35 307.211 186.127 307.133 185.911C307.054 185.695 306.945 185.495 306.805 185.313L291.511 164.819C291.491 164.799 291.489 164.778 291.506 164.755C291.512 164.728 291.53 164.714 291.558 164.717L300.152 164.246C300.326 164.238 300.495 164.208 300.662 164.16C300.828 164.111 300.987 164.044 301.138 163.958C301.289 163.873 301.428 163.771 301.555 163.653C301.682 163.534 301.793 163.404 301.891 163.26C301.987 163.116 302.067 162.963 302.127 162.801C302.187 162.638 302.23 162.471 302.251 162.299C302.273 162.127 302.276 161.955 302.257 161.782C302.24 161.61 302.202 161.441 302.145 161.277L283.97 108.877C283.888 108.637 283.769 108.417 283.611 108.218C283.454 108.018 283.268 107.85 283.053 107.714C282.84 107.579 282.609 107.481 282.361 107.424C282.114 107.366 281.864 107.352 281.611 107.379L260.039 109.846C259.681 109.888 259.351 110.009 259.05 110.209C258.751 110.409 258.512 110.665 258.335 110.981C258.159 111.296 258.065 111.634 258.052 111.995C258.04 112.356 258.111 112.698 258.265 113.024L276.309 151.25C276.32 151.272 276.317 151.292 276.304 151.31C276.296 151.333 276.28 151.345 276.256 151.346L267.771 151.193C267.562 151.19 267.357 151.216 267.154 151.269C266.951 151.324 266.76 151.406 266.58 151.513C266.401 151.622 266.239 151.753 266.097 151.906C265.953 152.06 265.835 152.229 265.739 152.416C265.645 152.603 265.576 152.8 265.537 153.005C265.497 153.211 265.486 153.419 265.504 153.628C265.522 153.836 265.569 154.039 265.644 154.234C265.719 154.43 265.819 154.612 265.945 154.779L283.771 178.41C283.789 178.434 283.798 178.446 283.774 178.482C283.751 178.518 283.734 178.511 283.718 178.523L276.932 176.935C276.701 176.881 276.465 176.864 276.228 176.885C275.991 176.906 275.762 176.963 275.544 177.056C275.324 177.15 275.125 177.275 274.946 177.432C274.767 177.589 274.617 177.77 274.496 177.975C274.373 178.18 274.288 178.399 274.237 178.632C274.184 178.864 274.171 179.099 274.194 179.336C274.217 179.573 274.278 179.801 274.373 180.019C274.469 180.237 274.597 180.434 274.757 180.611L305.064 214.352C305.151 214.454 305.247 214.546 305.351 214.63C305.455 214.713 305.566 214.786 305.684 214.85C305.801 214.913 305.923 214.964 306.051 215.005C306.177 215.047 306.307 215.076 306.44 215.093C306.572 215.11 306.705 215.116 306.838 215.108C306.971 215.101 307.103 215.083 307.233 215.05C307.362 215.02 307.489 214.977 307.611 214.923C307.733 214.869 307.848 214.805 307.959 214.729L308.07 214.603ZM296.2 185.54C296.046 185.655 295.909 185.786 295.791 185.937C295.659 186.099 295.551 186.275 295.469 186.468C295.386 186.66 295.332 186.859 295.307 187.066C295.28 187.273 295.283 187.48 295.315 187.686C295.347 187.892 295.407 188.091 295.494 188.28L306.781 212.784C306.793 212.795 306.802 212.807 306.808 212.82C306.79 212.853 306.761 212.875 306.724 212.882C306.714 212.873 306.706 212.863 306.7 212.851L276.391 179.105C276.372 179.081 276.364 179.069 276.384 179.029C276.404 178.99 276.424 178.999 276.44 178.987L283.226 180.578C283.451 180.629 283.676 180.645 283.905 180.627C284.133 180.609 284.355 180.556 284.568 180.471C284.781 180.384 284.976 180.269 285.153 180.122C285.33 179.976 285.481 179.808 285.607 179.615C285.731 179.422 285.824 179.216 285.886 178.994C285.948 178.773 285.974 178.548 285.967 178.318C285.959 178.089 285.917 177.866 285.84 177.649C285.764 177.433 285.657 177.233 285.519 177.05L267.693 153.419C267.681 153.397 267.68 153.376 267.69 153.354C267.702 153.332 267.719 153.32 267.744 153.318L276.22 153.485C276.313 153.486 276.407 153.481 276.501 153.469C276.594 153.459 276.686 153.443 276.778 153.42C276.869 153.397 276.958 153.369 277.045 153.335C277.134 153.301 277.219 153.262 277.302 153.218C277.384 153.173 277.464 153.123 277.541 153.068C277.617 153.015 277.689 152.954 277.759 152.891C277.828 152.827 277.893 152.759 277.953 152.687C278.013 152.615 278.069 152.54 278.12 152.461C278.171 152.382 278.217 152.3 278.257 152.215C278.298 152.13 278.334 152.043 278.363 151.953C278.393 151.865 278.416 151.773 278.434 151.682C278.453 151.589 278.465 151.496 278.471 151.402C278.478 151.31 278.479 151.215 278.473 151.121C278.467 151.026 278.456 150.934 278.439 150.841C278.422 150.75 278.399 150.658 278.37 150.569C278.342 150.479 278.307 150.392 278.268 150.306L260.24 112.068C260.23 112.049 260.23 112.029 260.241 112.009C260.251 111.99 260.268 111.979 260.289 111.977L281.852 109.555C281.883 109.552 281.905 109.564 281.917 109.592L300.094 161.998C300.103 162.019 300.101 162.039 300.089 162.058C300.08 162.076 300.066 162.087 300.045 162.09L291.452 162.56C291.249 162.572 291.053 162.611 290.861 162.675C290.669 162.742 290.49 162.83 290.323 162.945C290.156 163.057 290.007 163.191 289.875 163.345C289.744 163.5 289.636 163.668 289.55 163.851C289.464 164.035 289.404 164.225 289.371 164.425C289.337 164.624 289.33 164.824 289.351 165.025C289.37 165.227 289.417 165.422 289.49 165.611C289.564 165.799 289.66 165.975 289.78 166.137L305.056 186.613C305.074 186.636 305.082 186.648 305.059 186.685C305.036 186.721 305.019 186.715 305.003 186.726L298.024 185.162C297.706 185.088 297.388 185.085 297.071 185.151C296.751 185.217 296.461 185.346 296.2 185.54Z" fill="black"/>
<path d="M334.275 229.83C333.626 211.63 330.376 193.659 326.75 175.836C326.65 184.965 327.76 194.028 329.08 203.048C330.401 212.066 332.058 220.979 334.275 229.83Z" fill="#020202"/>
<mask id="mask1_72_9420" style="mask-type:luminance" maskUnits="userSpaceOnUse" x="316" y="183" width="50" height="52">
<path d="M342.014 183.973L316.247 203.118L339.329 234.185L365.096 215.04L342.014 183.973Z" fill="white"/>
</mask>
<g mask="url(#mask1_72_9420)">
<path d="M339.575 233.986C341.097 225.768 341.6 217.432 341.963 209.111C342.326 200.79 342.396 192.493 342.026 184.15C340.377 192.35 339.775 200.668 339.433 209.016C339.091 217.366 339.089 225.648 339.578 233.99L339.575 233.986Z" fill="#020202"/>
</g>
<path d="M247.464 314.652C239.629 309.976 231.535 305.871 223.317 301.945C215.101 298.019 206.709 294.402 197.941 291.857C213.974 300.494 230.215 308.764 247.464 314.652Z" fill="#020202"/>
<path d="M249.91 320.923C242.059 318.04 234.111 315.694 226.046 313.573C217.98 311.452 209.83 309.669 201.491 308.89C209.372 311.652 217.349 313.92 225.406 316.029C233.461 318.139 241.603 320.009 249.907 320.919L249.91 320.923Z" fill="#020202"/>
<path d="M281.842 281.886C259.001 268.16 235.609 255.278 211.215 244.515C233.976 258.385 257.375 271.243 281.842 281.886Z" fill="#020202"/>
</g>
<defs>
<clipPath id="clip0_72_9420">
<rect width="275" height="275" fill="white" transform="matrix(-0.802695 0.59639 0.59639 0.802695 220.741 0)"/>
</clipPath>
</defs>
</svg>
