<svg width="1605" height="174" viewBox="0 0 1605 174" fill="none" xmlns="http://www.w3.org/2000/svg">
<path d="M24.0323 13.2383H19.8327C19.756 12.695 19.5994 12.2124 19.3629 11.7905C19.1264 11.3622 18.8228 10.9979 18.4521 10.6974C18.0813 10.397 17.6531 10.1669 17.1673 10.0071C16.6879 9.8473 16.1669 9.7674 15.6044 9.7674C14.5881 9.7674 13.7028 10.0199 12.9485 10.5249C12.1942 11.0234 11.6094 11.7521 11.1939 12.7109C10.7784 13.6634 10.5707 14.8203 10.5707 16.1818C10.5707 17.5817 10.7784 18.7578 11.1939 19.7102C11.6158 20.6626 12.2038 21.3817 12.9581 21.8675C13.7124 22.3533 14.5849 22.5962 15.5756 22.5962C16.1317 22.5962 16.6463 22.5227 17.1193 22.3757C17.5987 22.2287 18.0238 22.0146 18.3945 21.7333C18.7653 21.4457 19.0721 21.0973 19.315 20.6882C19.5643 20.2791 19.7369 19.8125 19.8327 19.2884L24.0323 19.3075C23.9237 20.2088 23.652 21.0781 23.2173 21.9155C22.7891 22.7464 22.2106 23.4911 21.4819 24.1495C20.7596 24.8015 19.8967 25.3192 18.8931 25.7028C17.896 26.0799 16.7678 26.2685 15.5085 26.2685C13.7571 26.2685 12.1911 25.8722 10.8104 25.0795C9.43608 24.2869 8.34943 23.1396 7.55043 21.6374C6.75781 20.1353 6.36151 18.3168 6.36151 16.1818C6.36151 14.0405 6.7642 12.2188 7.5696 10.7166C8.375 9.21449 9.46804 8.07031 10.8487 7.28409C12.2294 6.49148 13.7827 6.09517 15.5085 6.09517C16.6463 6.09517 17.701 6.25497 18.6726 6.57457C19.6506 6.89418 20.5167 7.36079 21.271 7.97443C22.0252 8.58168 22.6388 9.32635 23.1119 10.2085C23.5913 11.0906 23.8981 12.1005 24.0323 13.2383ZM26.2615 9.78658V6.36364H42.3887V9.78658H36.377V26H32.2733V9.78658H26.2615ZM46.0297 26H41.5809L48.3596 6.36364H53.7098L60.479 26H56.0301L51.1114 10.8509H50.958L46.0297 26ZM45.7517 18.2816H56.2602V21.5224H45.7517V18.2816ZM62.8424 26V6.36364H70.5896C72.0789 6.36364 73.3477 6.64808 74.396 7.21697C75.4443 7.77947 76.2433 8.5625 76.7931 9.56605C77.3492 10.5632 77.6272 11.7138 77.6272 13.0178C77.6272 14.3217 77.346 15.4723 76.7835 16.4695C76.221 17.4666 75.406 18.2433 74.3385 18.7994C73.2774 19.3555 71.9926 19.6335 70.4841 19.6335H65.5463V16.3065H69.8129C70.6119 16.3065 71.2703 16.169 71.7881 15.8942C72.3122 15.6129 72.7021 15.2262 72.9578 14.734C73.2199 14.2354 73.3509 13.6634 73.3509 13.0178C73.3509 12.3658 73.2199 11.7969 72.9578 11.3111C72.7021 10.8189 72.3122 10.4386 71.7881 10.1701C71.2639 9.89524 70.5992 9.75781 69.7938 9.75781H66.9941V26H62.8424ZM79.576 9.78658V6.36364H95.7031V9.78658H89.6914V26H85.5877V9.78658H79.576ZM18.5863 59L12.2773 50.6296H10.8583V59H6.70668V39.3636H10.8583V47.2067H11.6925L18.2124 39.3636H23.3803L15.7195 48.4723L23.7351 59H18.5863ZM42.7602 49.1818C42.7602 51.3232 42.3543 53.1449 41.5425 54.647C40.7371 56.1491 39.6377 57.2965 38.2442 58.0891C36.8572 58.8754 35.2975 59.2685 33.5653 59.2685C31.8202 59.2685 30.2542 58.8722 28.8671 58.0795C27.48 57.2869 26.3838 56.1396 25.5784 54.6374C24.773 53.1353 24.3703 51.3168 24.3703 49.1818C24.3703 47.0405 24.773 45.2188 25.5784 43.7166C26.3838 42.2145 27.48 41.0703 28.8671 40.2841C30.2542 39.4915 31.8202 39.0952 33.5653 39.0952C35.2975 39.0952 36.8572 39.4915 38.2442 40.2841C39.6377 41.0703 40.7371 42.2145 41.5425 43.7166C42.3543 45.2188 42.7602 47.0405 42.7602 49.1818ZM38.551 49.1818C38.551 47.7947 38.3433 46.625 37.9278 45.6726C37.5187 44.7202 36.9403 43.9979 36.1924 43.5057C35.4445 43.0135 34.5688 42.7674 33.5653 42.7674C32.5617 42.7674 31.686 43.0135 30.9381 43.5057C30.1903 43.9979 29.6086 44.7202 29.1931 45.6726C28.784 46.625 28.5795 47.7947 28.5795 49.1818C28.5795 50.5689 28.784 51.7386 29.1931 52.6911C29.6086 53.6435 30.1903 54.3658 30.9381 54.858C31.686 55.3501 32.5617 55.5962 33.5653 55.5962C34.5688 55.5962 35.4445 55.3501 36.1924 54.858C36.9403 54.3658 37.5187 53.6435 37.9278 52.6911C38.3433 51.7386 38.551 50.5689 38.551 49.1818ZM45.8356 59V39.3636H49.9872V47.4656H58.4151V39.3636H62.5572V59H58.4151V50.8885H49.9872V59H45.8356ZM77.8597 59L71.5508 50.6296H70.1317V59H65.9801V39.3636H70.1317V47.2067H70.9659L77.4858 39.3636H82.6538L74.9929 48.4723L83.0085 59H77.8597ZM87.2153 59.2685V55.8935H88.2796C88.8101 55.8935 89.2384 55.8295 89.5644 55.7017C89.8904 55.5675 90.1492 55.3725 90.341 55.1168C90.5392 54.8548 90.7053 54.5288 90.8396 54.1388L91.0793 53.4964L83.9458 39.3636H88.2412L92.8627 49.0284L96.7267 39.3636H100.965L94.1954 55.1456C93.8694 55.8743 93.4827 56.5518 93.0352 57.1783C92.5942 57.8047 92.0285 58.3097 91.3382 58.6932C90.6478 59.0767 89.7657 59.2685 88.6919 59.2685H87.2153ZM103.211 59V39.3636H110.958C112.447 39.3636 113.716 39.6481 114.764 40.217C115.813 40.7795 116.612 41.5625 117.161 42.5661C117.717 43.5632 117.995 44.7138 117.995 46.0178C117.995 47.3217 117.714 48.4723 117.152 49.4695C116.589 50.4666 115.774 51.2433 114.707 51.7994C113.646 52.3555 112.361 52.6335 110.852 52.6335H105.914V49.3065H110.181C110.98 49.3065 111.638 49.169 112.156 48.8942C112.68 48.6129 113.07 48.2262 113.326 47.734C113.588 47.2354 113.719 46.6634 113.719 46.0178C113.719 45.3658 113.588 44.7969 113.326 44.3111C113.07 43.8189 112.68 43.4386 112.156 43.1701C111.632 42.8952 110.967 42.7578 110.162 42.7578H107.362V59H103.211ZM138.018 46.2383H133.818C133.741 45.695 133.585 45.2124 133.348 44.7905C133.112 44.3622 132.808 43.9979 132.437 43.6974C132.067 43.397 131.638 43.1669 131.153 43.0071C130.673 42.8473 130.152 42.7674 129.59 42.7674C128.573 42.7674 127.688 43.0199 126.934 43.5249C126.18 44.0234 125.595 44.7521 125.179 45.7109C124.764 46.6634 124.556 47.8203 124.556 49.1818C124.556 50.5817 124.764 51.7578 125.179 52.7102C125.601 53.6626 126.189 54.3817 126.943 54.8675C127.698 55.3533 128.57 55.5962 129.561 55.5962C130.117 55.5962 130.632 55.5227 131.105 55.3757C131.584 55.2287 132.009 55.0146 132.38 54.7333C132.751 54.4457 133.057 54.0973 133.3 53.6882C133.55 53.2791 133.722 52.8125 133.818 52.2884L138.018 52.3075C137.909 53.2088 137.637 54.0781 137.203 54.9155C136.774 55.7464 136.196 56.4911 135.467 57.1495C134.745 57.8015 133.882 58.3192 132.878 58.7028C131.881 59.0799 130.753 59.2685 129.494 59.2685C127.742 59.2685 126.176 58.8722 124.796 58.0795C123.421 57.2869 122.335 56.1396 121.536 54.6374C120.743 53.1353 120.347 51.3168 120.347 49.1818C120.347 47.0405 120.75 45.2188 121.555 43.7166C122.36 42.2145 123.453 41.0703 124.834 40.2841C126.215 39.4915 127.768 39.0952 129.494 39.0952C130.632 39.0952 131.686 39.255 132.658 39.5746C133.636 39.8942 134.502 40.3608 135.256 40.9744C136.011 41.5817 136.624 42.3263 137.097 43.2085C137.577 44.0906 137.883 45.1005 138.018 46.2383ZM144.01 59H139.561L146.34 39.3636H151.69L158.459 59H154.011L149.092 43.8509H148.938L144.01 59ZM143.732 51.2816H154.241V54.5224H143.732V51.2816Z" fill="white"/>
<path d="M382.4 6.36364V26H378.296V9.73864H370.357V26H366.253V6.36364H382.4ZM386.352 26V6.36364H394.099C395.589 6.36364 396.858 6.64808 397.906 7.21697C398.954 7.77947 399.753 8.5625 400.303 9.56605C400.859 10.5632 401.137 11.7138 401.137 13.0178C401.137 14.3217 400.856 15.4723 400.293 16.4695C399.731 17.4666 398.916 18.2433 397.848 18.7994C396.787 19.3555 395.502 19.6335 393.994 19.6335H389.056V16.3065H393.323C394.122 16.3065 394.78 16.169 395.298 15.8942C395.822 15.6129 396.212 15.2262 396.468 14.734C396.73 14.2354 396.861 13.6634 396.861 13.0178C396.861 12.3658 396.73 11.7969 396.468 11.3111C396.212 10.8189 395.822 10.4386 395.298 10.1701C394.774 9.89524 394.109 9.75781 393.304 9.75781H390.504V26H386.352ZM403.834 6.36364H407.976V18.7131H408.139L416.624 6.36364H420.258V26H416.106V13.641H415.963L407.429 26H403.834V6.36364ZM423.688 26V6.36364H436.92V9.78658H427.84V14.4656H436.239V17.8885H427.84V22.5771H436.958V26H423.688ZM427.408 4.35014C426.859 4.35014 426.386 4.15838 425.989 3.77486C425.593 3.38494 425.395 2.92471 425.395 2.39418C425.395 1.85085 425.593 1.39062 425.989 1.01349C426.386 0.636363 426.859 0.447797 427.408 0.447797C427.964 0.447797 428.434 0.636363 428.818 1.01349C429.208 1.39062 429.403 1.85085 429.403 2.39418C429.403 2.92471 429.208 3.38494 428.818 3.77486C428.434 4.15838 427.964 4.35014 427.408 4.35014ZM433.276 4.35014C432.726 4.35014 432.253 4.15838 431.857 3.77486C431.461 3.38494 431.263 2.92471 431.263 2.39418C431.263 1.85085 431.461 1.39062 431.857 1.01349C432.253 0.636363 432.726 0.447797 433.276 0.447797C433.832 0.447797 434.302 0.636363 434.686 1.01349C435.076 1.39062 435.271 1.85085 435.271 2.39418C435.271 2.92471 435.076 3.38494 434.686 3.77486C434.302 4.15838 433.832 4.35014 433.276 4.35014ZM440.22 6.36364H445.34L450.748 19.5568H450.978L456.386 6.36364H461.506V26H457.479V13.2191H457.316L452.234 25.9041H449.492L444.41 13.1712H444.247V26H440.22V6.36364ZM372.85 59.2685C371.418 59.2685 370.143 59.0224 369.024 58.5302C367.912 58.0316 367.033 57.3477 366.387 56.4783C365.748 55.6026 365.419 54.5927 365.4 53.4485H369.58C369.606 53.9279 369.762 54.3498 370.05 54.7141C370.344 55.0721 370.734 55.3501 371.22 55.5483C371.706 55.7464 372.252 55.8455 372.859 55.8455C373.492 55.8455 374.051 55.7337 374.537 55.5099C375.023 55.2862 375.403 54.9762 375.678 54.5799C375.953 54.1836 376.091 53.7266 376.091 53.2088C376.091 52.6847 375.944 52.2212 375.65 51.8185C375.362 51.4094 374.946 51.0898 374.403 50.8597C373.866 50.6296 373.227 50.5146 372.485 50.5146H370.654V47.4656H372.485C373.112 47.4656 373.665 47.3569 374.144 47.1396C374.63 46.9222 375.007 46.6218 375.276 46.2383C375.544 45.8484 375.678 45.3945 375.678 44.8768C375.678 44.3846 375.56 43.9531 375.324 43.5824C375.093 43.2053 374.767 42.9112 374.346 42.7003C373.93 42.4893 373.444 42.3839 372.888 42.3839C372.326 42.3839 371.811 42.4862 371.344 42.6907C370.878 42.8888 370.504 43.1733 370.223 43.544C369.941 43.9148 369.791 44.3494 369.772 44.848H365.793C365.812 43.7166 366.135 42.7195 366.761 41.8565C367.388 40.9936 368.232 40.3192 369.293 39.8335C370.36 39.3413 371.565 39.0952 372.907 39.0952C374.262 39.0952 375.448 39.3413 376.464 39.8335C377.481 40.3256 378.27 40.9904 378.833 41.8278C379.402 42.6587 379.683 43.592 379.676 44.6275C379.683 45.7269 379.341 46.6442 378.651 47.3793C377.967 48.1143 377.075 48.581 375.975 48.7791V48.9325C377.42 49.1179 378.52 49.6197 379.274 50.4379C380.034 51.2496 380.412 52.266 380.405 53.4869C380.412 54.6055 380.089 55.5994 379.437 56.4688C378.791 57.3381 377.9 58.022 376.762 58.5206C375.624 59.0192 374.32 59.2685 372.85 59.2685ZM386.889 59H382.44L389.219 39.3636H394.569L401.338 59H396.889L391.971 43.8509H391.817L386.889 59ZM386.611 51.2816H397.12V54.5224H386.611V51.2816ZM418.774 59H414.632V42.7578H411.832C411.033 42.7578 410.369 42.8761 409.838 43.1126C409.314 43.3427 408.921 43.6815 408.659 44.1289C408.397 44.5763 408.266 45.1261 408.266 45.7781C408.266 46.4237 408.397 46.9638 408.659 47.3984C408.921 47.8331 409.314 48.1591 409.838 48.3764C410.362 48.5937 411.021 48.7024 411.813 48.7024H416.32V52.0391H411.142C409.64 52.0391 408.355 51.7898 407.288 51.2912C406.22 50.7926 405.405 50.0767 404.843 49.1435C404.28 48.2038 403.999 47.082 403.999 45.7781C403.999 44.4805 404.274 43.3523 404.824 42.3935C405.38 41.4283 406.182 40.6836 407.23 40.1594C408.285 39.6289 409.554 39.3636 411.037 39.3636H418.774V59ZM408.179 50.0639H412.657L407.882 59H403.299L408.179 50.0639ZM422.185 59V39.3636H430.047C431.492 39.3636 432.697 39.5778 433.662 40.006C434.627 40.4343 435.353 41.0288 435.839 41.7894C436.324 42.5437 436.567 43.413 436.567 44.3974C436.567 45.1644 436.414 45.8388 436.107 46.4205C435.8 46.9957 435.378 47.4687 434.841 47.8395C434.311 48.2038 433.704 48.4627 433.02 48.6161V48.8079C433.768 48.8398 434.468 49.0508 435.119 49.4407C435.778 49.8306 436.312 50.3771 436.721 51.0803C437.13 51.777 437.334 52.608 437.334 53.5732C437.334 54.6151 437.075 55.5451 436.558 56.3633C436.046 57.1751 435.289 57.8175 434.285 58.2905C433.282 58.7635 432.045 59 430.575 59H422.185ZM426.337 55.6058H429.721C430.878 55.6058 431.722 55.3853 432.253 54.9442C432.783 54.4968 433.048 53.9023 433.048 53.1609C433.048 52.6175 432.917 52.1381 432.655 51.7227C432.393 51.3072 432.019 50.9812 431.534 50.7447C431.054 50.5082 430.482 50.3899 429.817 50.3899H426.337V55.6058ZM426.337 47.5806H429.415C429.983 47.5806 430.488 47.4815 430.93 47.2834C431.377 47.0788 431.729 46.7912 431.984 46.4205C432.246 46.0497 432.377 45.6055 432.377 45.0877C432.377 44.3782 432.125 43.8061 431.62 43.3714C431.121 42.9368 430.412 42.7195 429.491 42.7195H426.337V47.5806ZM458.081 49.1818C458.081 51.3232 457.675 53.1449 456.863 54.647C456.057 56.1491 454.958 57.2965 453.565 58.0891C452.177 58.8754 450.618 59.2685 448.886 59.2685C447.141 59.2685 445.574 58.8722 444.187 58.0795C442.8 57.2869 441.704 56.1396 440.899 54.6374C440.093 53.1353 439.691 51.3168 439.691 49.1818C439.691 47.0405 440.093 45.2188 440.899 43.7166C441.704 42.2145 442.8 41.0703 444.187 40.2841C445.574 39.4915 447.141 39.0952 448.886 39.0952C450.618 39.0952 452.177 39.4915 453.565 40.2841C454.958 41.0703 456.057 42.2145 456.863 43.7166C457.675 45.2188 458.081 47.0405 458.081 49.1818ZM453.871 49.1818C453.871 47.7947 453.664 46.625 453.248 45.6726C452.839 44.7202 452.261 43.9979 451.513 43.5057C450.765 43.0135 449.889 42.7674 448.886 42.7674C447.882 42.7674 447.006 43.0135 446.258 43.5057C445.511 43.9979 444.929 44.7202 444.513 45.6726C444.104 46.625 443.9 47.7947 443.9 49.1818C443.9 50.5689 444.104 51.7386 444.513 52.6911C444.929 53.6435 445.511 54.3658 446.258 54.858C447.006 55.3501 447.882 55.5962 448.886 55.5962C449.889 55.5962 450.765 55.3501 451.513 54.858C452.261 54.3658 452.839 53.6435 453.248 52.6911C453.664 51.7386 453.871 50.5689 453.871 49.1818ZM473.036 59L466.727 50.6296H465.308V59H461.156V39.3636H465.308V47.2067H466.142L472.662 39.3636H477.83L470.169 48.4723L478.184 59H473.036Z" fill="white"/>
<path d="M779.4 6.36364V26H775.296V9.73864H767.357V26H763.253V6.36364H779.4ZM801.397 16.1818C801.397 18.3232 800.991 20.1449 800.179 21.647C799.374 23.1491 798.274 24.2965 796.881 25.0891C795.494 25.8754 793.934 26.2685 792.202 26.2685C790.457 26.2685 788.891 25.8722 787.504 25.0795C786.117 24.2869 785.021 23.1396 784.215 21.6374C783.41 20.1353 783.007 18.3168 783.007 16.1818C783.007 14.0405 783.41 12.2188 784.215 10.7166C785.021 9.21449 786.117 8.07031 787.504 7.28409C788.891 6.49148 790.457 6.09517 792.202 6.09517C793.934 6.09517 795.494 6.49148 796.881 7.28409C798.274 8.07031 799.374 9.21449 800.179 10.7166C800.991 12.2188 801.397 14.0405 801.397 16.1818ZM797.188 16.1818C797.188 14.7947 796.98 13.625 796.565 12.6726C796.155 11.7202 795.577 10.9979 794.829 10.5057C794.081 10.0135 793.206 9.7674 792.202 9.7674C791.198 9.7674 790.323 10.0135 789.575 10.5057C788.827 10.9979 788.245 11.7202 787.83 12.6726C787.421 13.625 787.216 14.7947 787.216 16.1818C787.216 17.5689 787.421 18.7386 787.83 19.6911C788.245 20.6435 788.827 21.3658 789.575 21.858C790.323 22.3501 791.198 22.5962 792.202 22.5962C793.206 22.5962 794.081 22.3501 794.829 21.858C795.577 21.3658 796.155 20.6435 796.565 19.6911C796.98 18.7386 797.188 17.5689 797.188 16.1818ZM803.408 30.7365V22.6921H804.741C805.195 22.3661 805.61 21.9059 805.987 21.3114C806.364 20.7106 806.687 19.8828 806.956 18.8281C807.224 17.767 807.416 16.38 807.531 14.6669L808.087 6.36364H821.079V22.6921H823.227V30.7173H819.238V26H807.397V30.7365H803.408ZM809.535 22.6921H817.09V9.78658H811.826L811.52 14.6669C811.436 15.9645 811.299 17.1151 811.107 18.1186C810.922 19.1222 810.695 20.0011 810.426 20.7553C810.164 21.5032 809.867 22.1488 809.535 22.6921ZM825.751 26V6.36364H833.613C835.057 6.36364 836.262 6.57777 837.228 7.00604C838.193 7.4343 838.918 8.02876 839.404 8.78942C839.89 9.54368 840.133 10.413 840.133 11.3974C840.133 12.1644 839.979 12.8388 839.672 13.4205C839.366 13.9957 838.944 14.4687 838.407 14.8395C837.876 15.2038 837.269 15.4627 836.585 15.6161V15.8079C837.333 15.8398 838.033 16.0508 838.685 16.4407C839.343 16.8306 839.877 17.3771 840.286 18.0803C840.695 18.777 840.9 19.608 840.9 20.5732C840.9 21.6151 840.641 22.5451 840.123 23.3633C839.612 24.1751 838.854 24.8175 837.851 25.2905C836.847 25.7635 835.61 26 834.14 26H825.751ZM829.902 22.6058H833.287C834.444 22.6058 835.288 22.3853 835.818 21.9442C836.349 21.4968 836.614 20.9023 836.614 20.1609C836.614 19.6175 836.483 19.1381 836.221 18.7227C835.959 18.3072 835.585 17.9812 835.099 17.7447C834.62 17.5082 834.047 17.3899 833.383 17.3899H829.902V22.6058ZM829.902 14.5806H832.98C833.549 14.5806 834.054 14.4815 834.495 14.2834C834.942 14.0788 835.294 13.7912 835.55 13.4205C835.812 13.0497 835.943 12.6055 835.943 12.0877C835.943 11.3782 835.69 10.8061 835.185 10.3714C834.687 9.93679 833.977 9.71946 833.057 9.71946H829.902V14.5806ZM843.601 26V6.36364H856.833V9.78658H847.753V14.4656H856.152V17.8885H847.753V22.5771H856.871V26H843.601ZM859.069 30.7365V22.6921H860.402C860.856 22.3661 861.271 21.9059 861.648 21.3114C862.025 20.7106 862.348 19.8828 862.617 18.8281C862.885 17.767 863.077 16.38 863.192 14.6669L863.748 6.36364H876.74V22.6921H878.888V30.7173H874.899V26H863.058V30.7365H859.069ZM865.196 22.6921H872.751V9.78658H867.487L867.181 14.6669C867.098 15.9645 866.96 17.1151 866.768 18.1186C866.583 19.1222 866.356 20.0011 866.088 20.7553C865.826 21.5032 865.528 22.1488 865.196 22.6921ZM881.412 26V6.36364H894.643V9.78658H885.563V14.4656H893.963V17.8885H885.563V22.5771H894.682V26H881.412ZM897.944 26V6.36364H902.096V14.4656H910.524V6.36364H914.666V26H910.524V17.8885H902.096V26H897.944ZM918.089 6.36364H922.231V18.7131H922.394L930.879 6.36364H934.513V26H930.361V13.641H930.217L921.684 26H918.089V6.36364ZM937.943 26V6.36364H951.175V9.78658H942.095V14.4656H950.494V17.8885H942.095V22.5771H951.213V26H937.943ZM762.707 39.3636H766.849V51.7131H767.012L775.497 39.3636H779.131V59H774.979V46.641H774.836L766.302 59H762.707V39.3636ZM781.813 42.7866V39.3636H797.94V42.7866H791.929V59H787.825V42.7866H781.813ZM817.745 49.1818C817.745 51.3232 817.339 53.1449 816.527 54.647C815.722 56.1491 814.622 57.2965 813.229 58.0891C811.842 58.8754 810.282 59.2685 808.55 59.2685C806.805 59.2685 805.239 58.8722 803.851 58.0795C802.464 57.2869 801.368 56.1396 800.563 54.6374C799.757 53.1353 799.355 51.3168 799.355 49.1818C799.355 47.0405 799.757 45.2188 800.563 43.7166C801.368 42.2145 802.464 41.0703 803.851 40.2841C805.239 39.4915 806.805 39.0952 808.55 39.0952C810.282 39.0952 811.842 39.4915 813.229 40.2841C814.622 41.0703 815.722 42.2145 816.527 43.7166C817.339 45.2188 817.745 47.0405 817.745 49.1818ZM813.535 49.1818C813.535 47.7947 813.328 46.625 812.912 45.6726C812.503 44.7202 811.925 43.9979 811.177 43.5057C810.429 43.0135 809.553 42.7674 808.55 42.7674C807.546 42.7674 806.67 43.0135 805.922 43.5057C805.175 43.9979 804.593 44.7202 804.177 45.6726C803.768 46.625 803.564 47.7947 803.564 49.1818C803.564 50.5689 803.768 51.7386 804.177 52.6911C804.593 53.6435 805.175 54.3658 805.922 54.858C806.67 55.3501 807.546 55.5962 808.55 55.5962C809.553 55.5962 810.429 55.3501 811.177 54.858C811.925 54.3658 812.503 53.6435 812.912 52.6911C813.328 51.7386 813.535 50.5689 813.535 49.1818ZM833.85 39.3636V42.7866H824.972V59H820.82V39.3636H833.85ZM853.657 49.1818C853.657 51.3232 853.251 53.1449 852.439 54.647C851.634 56.1491 850.534 57.2965 849.141 58.0891C847.754 58.8754 846.194 59.2685 844.462 59.2685C842.717 59.2685 841.151 58.8722 839.764 58.0795C838.377 57.2869 837.28 56.1396 836.475 54.6374C835.669 53.1353 835.267 51.3168 835.267 49.1818C835.267 47.0405 835.669 45.2188 836.475 43.7166C837.28 42.2145 838.377 41.0703 839.764 40.2841C841.151 39.4915 842.717 39.0952 844.462 39.0952C846.194 39.0952 847.754 39.4915 849.141 40.2841C850.534 41.0703 851.634 42.2145 852.439 43.7166C853.251 45.2188 853.657 47.0405 853.657 49.1818ZM849.448 49.1818C849.448 47.7947 849.24 46.625 848.824 45.6726C848.415 44.7202 847.837 43.9979 847.089 43.5057C846.341 43.0135 845.465 42.7674 844.462 42.7674C843.458 42.7674 842.582 43.0135 841.835 43.5057C841.087 43.9979 840.505 44.7202 840.09 45.6726C839.68 46.625 839.476 47.7947 839.476 49.1818C839.476 50.5689 839.68 51.7386 840.09 52.6911C840.505 53.6435 841.087 54.3658 841.835 54.858C842.582 55.3501 843.458 55.5962 844.462 55.5962C845.465 55.5962 846.341 55.3501 847.089 54.858C847.837 54.3658 848.415 53.6435 848.824 52.6911C849.24 51.7386 849.448 50.5689 849.448 49.1818ZM856.732 59V39.3636H864.594C866.039 39.3636 867.244 39.5778 868.209 40.006C869.174 40.4343 869.9 41.0288 870.385 41.7894C870.871 42.5437 871.114 43.413 871.114 44.3974C871.114 45.1644 870.961 45.8388 870.654 46.4205C870.347 46.9957 869.925 47.4687 869.388 47.8395C868.858 48.2038 868.251 48.4627 867.567 48.6161V48.8079C868.314 48.8398 869.014 49.0508 869.666 49.4407C870.325 49.8306 870.858 50.3771 871.268 51.0803C871.677 51.777 871.881 52.608 871.881 53.5732C871.881 54.6151 871.622 55.5451 871.105 56.3633C870.593 57.1751 869.836 57.8175 868.832 58.2905C867.829 58.7635 866.592 59 865.122 59H856.732ZM860.884 55.6058H864.268C865.425 55.6058 866.269 55.3853 866.8 54.9442C867.33 54.4968 867.595 53.9023 867.595 53.1609C867.595 52.6175 867.464 52.1381 867.202 51.7227C866.94 51.3072 866.566 50.9812 866.08 50.7447C865.601 50.5082 865.029 50.3899 864.364 50.3899H860.884V55.6058ZM860.884 47.5806H863.961C864.53 47.5806 865.035 47.4815 865.476 47.2834C865.924 47.0788 866.275 46.7912 866.531 46.4205C866.793 46.0497 866.924 45.6055 866.924 45.0877C866.924 44.3782 866.672 43.8061 866.167 43.3714C865.668 42.9368 864.959 42.7195 864.038 42.7195H860.884V47.5806Z" fill="white"/>
<path d="M1177.75 16.1818C1177.75 18.3232 1177.35 20.1449 1176.53 21.647C1175.73 23.1491 1174.63 24.2965 1173.24 25.0891C1171.85 25.8754 1170.29 26.2685 1168.56 26.2685C1166.81 26.2685 1165.25 25.8722 1163.86 25.0795C1162.47 24.2869 1161.38 23.1396 1160.57 21.6374C1159.76 20.1353 1159.36 18.3168 1159.36 16.1818C1159.36 14.0405 1159.76 12.2188 1160.57 10.7166C1161.38 9.21449 1162.47 8.07031 1163.86 7.28409C1165.25 6.49148 1166.81 6.09517 1168.56 6.09517C1170.29 6.09517 1171.85 6.49148 1173.24 7.28409C1174.63 8.07031 1175.73 9.21449 1176.53 10.7166C1177.35 12.2188 1177.75 14.0405 1177.75 16.1818ZM1173.54 16.1818C1173.54 14.7947 1173.33 13.625 1172.92 12.6726C1172.51 11.7202 1171.93 10.9979 1171.18 10.5057C1170.44 10.0135 1169.56 9.7674 1168.56 9.7674C1167.55 9.7674 1166.68 10.0135 1165.93 10.5057C1165.18 10.9979 1164.6 11.7202 1164.18 12.6726C1163.78 13.625 1163.57 14.7947 1163.57 16.1818C1163.57 17.5689 1163.78 18.7386 1164.18 19.6911C1164.6 20.6435 1165.18 21.3658 1165.93 21.858C1166.68 22.3501 1167.55 22.5962 1168.56 22.5962C1169.56 22.5962 1170.44 22.3501 1171.18 21.858C1171.93 21.3658 1172.51 20.6435 1172.92 19.6911C1173.33 18.7386 1173.54 17.5689 1173.54 16.1818ZM1180.83 26V6.36364H1193.86V9.78658H1184.98V13.6218H1188.17C1189.72 13.6218 1191.06 13.8743 1192.19 14.3793C1193.32 14.8778 1194.19 15.5842 1194.81 16.4982C1195.42 17.4123 1195.73 18.4893 1195.73 19.7294C1195.73 20.9631 1195.42 22.0529 1194.81 22.9989C1194.19 23.9386 1193.32 24.6737 1192.19 25.2042C1191.06 25.7347 1189.72 26 1188.17 26H1180.83ZM1184.98 22.6634H1188.17C1188.91 22.6634 1189.54 22.5291 1190.05 22.2607C1190.56 21.9858 1190.95 21.6246 1191.21 21.1772C1191.48 20.7234 1191.61 20.228 1191.61 19.6911C1191.61 18.9112 1191.32 18.2528 1190.72 17.7159C1190.13 17.1726 1189.28 16.9009 1188.17 16.9009H1184.98V22.6634ZM1196.14 9.6044V6.36364H1203.19V9.6044H1196.14ZM1204.06 13.6218H1208.74C1210.29 13.6218 1211.63 13.8743 1212.75 14.3793C1213.88 14.8778 1214.76 15.5842 1215.37 16.4982C1215.98 17.4123 1216.29 18.4893 1216.29 19.7294C1216.29 20.9631 1215.98 22.0529 1215.37 22.9989C1214.76 23.9386 1213.88 24.6737 1212.75 25.2042C1211.63 25.7347 1210.29 26 1208.74 26H1201.39V6.36364H1205.54V22.6634H1208.74C1209.48 22.6634 1210.1 22.5291 1210.61 22.2607C1211.13 21.9858 1211.51 21.6246 1211.77 21.1772C1212.04 20.7234 1212.18 20.228 1212.18 19.6911C1212.18 18.9112 1211.88 18.2528 1211.29 17.7159C1210.7 17.1726 1209.85 16.9009 1208.74 16.9009H1204.06V13.6218ZM1234.13 26H1229.99V9.75781H1227.19C1226.39 9.75781 1225.73 9.87607 1225.2 10.1126C1224.67 10.3427 1224.28 10.6815 1224.02 11.1289C1223.75 11.5763 1223.62 12.1261 1223.62 12.7781C1223.62 13.4237 1223.75 13.9638 1224.02 14.3984C1224.28 14.8331 1224.67 15.1591 1225.2 15.3764C1225.72 15.5937 1226.38 15.7024 1227.17 15.7024H1231.68V19.0391H1226.5C1225 19.0391 1223.71 18.7898 1222.65 18.2912C1221.58 17.7926 1220.76 17.0767 1220.2 16.1435C1219.64 15.2038 1219.36 14.082 1219.36 12.7781C1219.36 11.4805 1219.63 10.3523 1220.18 9.39347C1220.74 8.42827 1221.54 7.68359 1222.59 7.15945C1223.64 6.62891 1224.91 6.36364 1226.39 6.36364H1234.13V26ZM1223.54 17.0639H1228.01L1223.24 26H1218.66L1223.54 17.0639ZM1237.54 26V6.36364H1245.4C1246.85 6.36364 1248.05 6.57777 1249.02 7.00604C1249.98 7.4343 1250.71 8.02876 1251.2 8.78942C1251.68 9.54368 1251.92 10.413 1251.92 11.3974C1251.92 12.1644 1251.77 12.8388 1251.46 13.4205C1251.16 13.9957 1250.74 14.4687 1250.2 14.8395C1249.67 15.2038 1249.06 15.4627 1248.38 15.6161V15.8079C1249.13 15.8398 1249.82 16.0508 1250.48 16.4407C1251.14 16.8306 1251.67 17.3771 1252.08 18.0803C1252.49 18.777 1252.69 19.608 1252.69 20.5732C1252.69 21.6151 1252.43 22.5451 1251.92 23.3633C1251.4 24.1751 1250.65 24.8175 1249.64 25.2905C1248.64 25.7635 1247.4 26 1245.93 26H1237.54ZM1241.69 22.6058H1245.08C1246.24 22.6058 1247.08 22.3853 1247.61 21.9442C1248.14 21.4968 1248.41 20.9023 1248.41 20.1609C1248.41 19.6175 1248.27 19.1381 1248.01 18.7227C1247.75 18.3072 1247.38 17.9812 1246.89 17.7447C1246.41 17.5082 1245.84 17.3899 1245.17 17.3899H1241.69V22.6058ZM1241.69 14.5806H1244.77C1245.34 14.5806 1245.85 14.4815 1246.29 14.2834C1246.73 14.0788 1247.09 13.7912 1247.34 13.4205C1247.6 13.0497 1247.73 12.6055 1247.73 12.0877C1247.73 11.3782 1247.48 10.8061 1246.98 10.3714C1246.48 9.93679 1245.77 9.71946 1244.85 9.71946H1241.69V14.5806ZM1254.33 26V22.6634L1254.89 22.6154C1255.6 22.5579 1256.18 22.2862 1256.62 21.8004C1257.06 21.3082 1257.39 20.5252 1257.61 19.4513C1257.83 18.3711 1257.98 16.9201 1258.04 15.0984L1258.37 6.36364H1271.69V26H1267.66V9.6907H1262.22L1261.91 16.527C1261.81 18.7259 1261.55 20.522 1261.13 21.9155C1260.71 23.3089 1260.05 24.3381 1259.13 25.0028C1258.22 25.6676 1256.98 26 1255.4 26H1254.33ZM1275.12 26V6.36364H1288.35V9.78658H1279.27V14.4656H1287.67V17.8885H1279.27V22.5771H1288.39V26H1275.12ZM1291.65 26V6.36364H1295.8V14.4656H1304.23V6.36364H1308.37V26H1304.23V17.8885H1295.8V26H1291.65ZM1311.79 6.36364H1315.93V18.7131H1316.1L1324.58 6.36364H1328.22V26H1324.07V13.641H1323.92L1315.39 26H1311.79V6.36364ZM1331.65 26V6.36364H1344.88V9.78658H1335.8V14.4656H1344.2V17.8885H1335.8V22.5771H1344.92V26H1331.65ZM1176.4 39.3636V59H1172.3V42.7386H1164.36V59H1160.25V39.3636H1176.4ZM1198.4 49.1818C1198.4 51.3232 1197.99 53.1449 1197.18 54.647C1196.37 56.1491 1195.27 57.2965 1193.88 58.0891C1192.49 58.8754 1190.93 59.2685 1189.2 59.2685C1187.46 59.2685 1185.89 58.8722 1184.5 58.0795C1183.12 57.2869 1182.02 56.1396 1181.22 54.6374C1180.41 53.1353 1180.01 51.3168 1180.01 49.1818C1180.01 47.0405 1180.41 45.2188 1181.22 43.7166C1182.02 42.2145 1183.12 41.0703 1184.5 40.2841C1185.89 39.4915 1187.46 39.0952 1189.2 39.0952C1190.93 39.0952 1192.49 39.4915 1193.88 40.2841C1195.27 41.0703 1196.37 42.2145 1197.18 43.7166C1197.99 45.2188 1198.4 47.0405 1198.4 49.1818ZM1194.19 49.1818C1194.19 47.7947 1193.98 46.625 1193.56 45.6726C1193.16 44.7202 1192.58 43.9979 1191.83 43.5057C1191.08 43.0135 1190.21 42.7674 1189.2 42.7674C1188.2 42.7674 1187.32 43.0135 1186.57 43.5057C1185.83 43.9979 1185.25 44.7202 1184.83 45.6726C1184.42 46.625 1184.22 47.7947 1184.22 49.1818C1184.22 50.5689 1184.42 51.7386 1184.83 52.6911C1185.25 53.6435 1185.83 54.3658 1186.57 54.858C1187.32 55.3501 1188.2 55.5962 1189.2 55.5962C1190.21 55.5962 1191.08 55.3501 1191.83 54.858C1192.58 54.3658 1193.16 53.6435 1193.56 52.6911C1193.98 51.7386 1194.19 50.5689 1194.19 49.1818ZM1201.47 59V39.3636H1214.5V42.7866H1205.62V46.6218H1208.82C1210.37 46.6218 1211.71 46.8743 1212.83 47.3793C1213.97 47.8778 1214.84 48.5842 1215.45 49.4982C1216.07 50.4123 1216.37 51.4893 1216.37 52.7294C1216.37 53.9631 1216.07 55.0529 1215.45 55.9989C1214.84 56.9386 1213.97 57.6737 1212.83 58.2042C1211.71 58.7347 1210.37 59 1208.82 59H1201.47ZM1205.62 55.6634H1208.82C1209.56 55.6634 1210.18 55.5291 1210.7 55.2607C1211.21 54.9858 1211.59 54.6246 1211.86 54.1772C1212.12 53.7234 1212.26 53.228 1212.26 52.6911C1212.26 51.9112 1211.96 51.2528 1211.37 50.7159C1210.78 50.1726 1209.93 49.9009 1208.82 49.9009H1205.62V55.6634ZM1219.06 59V39.3636H1232.29V42.7866H1223.21V47.4656H1231.61V50.8885H1223.21V55.5771H1232.33V59H1219.06ZM1234.53 63.7365V55.6921H1235.86C1236.31 55.3661 1236.73 54.9059 1237.11 54.3114C1237.48 53.7106 1237.81 52.8828 1238.07 51.8281C1238.34 50.767 1238.53 49.38 1238.65 47.6669L1239.21 39.3636H1252.2V55.6921H1254.35V63.7173H1250.36V59H1238.52V63.7365H1234.53ZM1240.65 55.6921H1248.21V42.7866H1242.95L1242.64 47.6669C1242.56 48.9645 1242.42 50.1151 1242.23 51.1186C1242.04 52.1222 1241.81 53.0011 1241.55 53.7553C1241.28 54.5032 1240.99 55.1488 1240.65 55.6921ZM1256.87 39.3636H1261.01V51.7131H1261.17L1269.66 39.3636H1273.29V59H1269.14V46.641H1269L1260.47 59H1256.87V39.3636ZM1275.98 42.7866V39.3636H1292.1V42.7866H1286.09V59H1281.99V42.7866H1275.98ZM1294.76 59V39.3636H1307.99V42.7866H1298.91V47.4656H1307.31V50.8885H1298.91V55.5771H1308.03V59H1294.76ZM1310.23 59V55.6634L1310.78 55.6154C1311.5 55.5579 1312.08 55.2862 1312.52 54.8004C1312.96 54.3082 1313.29 53.5252 1313.51 52.4513C1313.73 51.3711 1313.87 49.9201 1313.94 48.0984L1314.26 39.3636H1327.59V59H1323.55V42.6907H1318.12L1317.81 49.527C1317.71 51.7259 1317.45 53.522 1317.03 54.9155C1316.61 56.3089 1315.95 57.3381 1315.03 58.0028C1314.12 58.6676 1312.88 59 1311.3 59H1310.23ZM1331.01 59V39.3636H1344.25V42.7866H1335.17V47.4656H1343.57V50.8885H1335.17V55.5771H1344.28V59H1331.01ZM1347.55 39.3636H1351.69V51.7131H1351.85L1360.34 39.3636H1363.97V59H1359.82V46.641H1359.68L1351.14 59H1347.55V39.3636ZM1357.67 34.2244H1360.52C1360.51 35.3878 1360.08 36.3242 1359.22 37.0337C1358.37 37.7433 1357.22 38.098 1355.77 38.098C1354.32 38.098 1353.16 37.7433 1352.31 37.0337C1351.46 36.3242 1351.04 35.3878 1351.04 34.2244H1353.87C1353.86 34.6655 1354 35.0618 1354.29 35.4134C1354.58 35.7649 1355.08 35.9407 1355.77 35.9407C1356.45 35.9407 1356.94 35.7681 1357.23 35.4229C1357.52 35.0778 1357.67 34.6783 1357.67 34.2244Z" fill="white"/>
<path d="M5.59162 167V164.009L12.5813 157.537C13.1758 156.961 13.6744 156.444 14.0771 155.983C14.4862 155.523 14.7962 155.072 15.0071 154.631C15.218 154.184 15.3235 153.701 15.3235 153.184C15.3235 152.608 15.1925 152.113 14.9304 151.697C14.6683 151.276 14.3104 150.953 13.8565 150.729C13.4027 150.499 12.8881 150.384 12.3129 150.384C11.712 150.384 11.1879 150.505 10.7404 150.748C10.293 150.991 9.9478 151.339 9.7049 151.793C9.462 152.247 9.34055 152.787 9.34055 153.414H5.39986C5.39986 152.129 5.6907 151.013 6.27237 150.067C6.85405 149.121 7.66903 148.39 8.71733 147.872C9.76563 147.354 10.9737 147.095 12.3416 147.095C13.7479 147.095 14.9719 147.344 16.0138 147.843C17.0621 148.335 17.8771 149.019 18.4588 149.895C19.0405 150.771 19.3313 151.774 19.3313 152.906C19.3313 153.647 19.1843 154.379 18.8903 155.101C18.6026 155.824 18.0881 156.626 17.3466 157.508C16.6051 158.384 15.56 159.435 14.2113 160.662L11.3445 163.472V163.606H19.5902V167H5.59162ZM29.7703 167.268C28.4152 167.268 27.2071 167.019 26.146 166.521C25.0914 166.022 24.254 165.335 23.634 164.459C23.0139 163.583 22.6911 162.58 22.6656 161.449H26.6926C26.7373 162.209 27.0569 162.826 27.6514 163.299C28.2458 163.772 28.9521 164.009 29.7703 164.009C30.4223 164.009 30.9976 163.865 31.4962 163.577C32.0012 163.283 32.3943 162.877 32.6755 162.359C32.9632 161.835 33.107 161.234 33.107 160.557C33.107 159.866 32.96 159.259 32.6659 158.735C32.3783 158.211 31.9788 157.802 31.4674 157.508C30.9561 157.214 30.3712 157.064 29.7128 157.057C29.1375 157.057 28.5782 157.175 28.0349 157.412C27.498 157.648 27.0793 157.971 26.7789 158.38L23.0874 157.719L24.0175 147.364H36.0218V150.758H27.4404L26.9323 155.676H27.0473C27.3925 155.191 27.9134 154.788 28.6102 154.468C29.3069 154.149 30.0867 153.989 30.9497 153.989C32.1322 153.989 33.1869 154.267 34.1137 154.823C35.0406 155.379 35.7725 156.143 36.3094 157.115C36.8463 158.08 37.1116 159.192 37.1052 160.451C37.1116 161.775 36.8048 162.951 36.1847 163.98C35.5711 165.002 34.7114 165.808 33.6056 166.396C32.5061 166.978 31.2277 167.268 29.7703 167.268ZM45.3006 171.737V163.692H46.6333C47.0872 163.366 47.5027 162.906 47.8798 162.311C48.2569 161.711 48.5797 160.883 48.8482 159.828C49.1167 158.767 49.3084 157.38 49.4235 155.667L49.9796 147.364H62.9714V163.692H65.1191V171.717H61.1305V167H49.2892V171.737H45.3006ZM51.4274 163.692H58.9828V150.787H53.7189L53.4121 155.667C53.329 156.964 53.1916 158.115 52.9998 159.119C52.8145 160.122 52.5875 161.001 52.3191 161.755C52.057 162.503 51.7598 163.149 51.4274 163.692ZM67.6432 167V147.364H80.8747V150.787H71.7948V155.466H80.194V158.888H71.7948V163.577H80.9131V167H67.6432ZM96.055 167L89.7461 158.63H88.3271V167H84.1754V147.364H88.3271V155.207H89.1612L95.6811 147.364H100.849L93.1882 156.472L101.204 167H96.055ZM106.676 167H102.227L109.006 147.364H114.356L121.125 167H116.677L111.758 151.851H111.604L106.676 167ZM106.398 159.282H116.907V162.522H106.398V159.282ZM123.489 167V147.364H136.519V150.787H127.641V154.622H130.833C132.387 154.622 133.726 154.874 134.851 155.379C135.982 155.878 136.855 156.584 137.468 157.498C138.082 158.412 138.389 159.489 138.389 160.729C138.389 161.963 138.082 163.053 137.468 163.999C136.855 164.939 135.982 165.674 134.851 166.204C133.726 166.735 132.387 167 130.833 167H123.489ZM127.641 163.663H130.833C131.575 163.663 132.201 163.529 132.713 163.261C133.224 162.986 133.611 162.625 133.873 162.177C134.141 161.723 134.275 161.228 134.275 160.691C134.275 159.911 133.978 159.253 133.384 158.716C132.796 158.173 131.946 157.901 130.833 157.901H127.641V163.663ZM141.076 167V147.364H148.823C150.312 147.364 151.581 147.648 152.629 148.217C153.678 148.779 154.477 149.562 155.026 150.566C155.583 151.563 155.861 152.714 155.861 154.018C155.861 155.322 155.579 156.472 155.017 157.469C154.454 158.467 153.639 159.243 152.572 159.799C151.511 160.355 150.226 160.634 148.718 160.634H143.78V157.306H148.046C148.845 157.306 149.504 157.169 150.021 156.894C150.546 156.613 150.936 156.226 151.191 155.734C151.453 155.235 151.584 154.663 151.584 154.018C151.584 153.366 151.453 152.797 151.191 152.311C150.936 151.819 150.546 151.439 150.021 151.17C149.497 150.895 148.833 150.758 148.027 150.758H145.227V167H141.076ZM173.63 167H169.488V150.758H166.688C165.889 150.758 165.224 150.876 164.694 151.113C164.169 151.343 163.776 151.681 163.514 152.129C163.252 152.576 163.121 153.126 163.121 153.778C163.121 154.424 163.252 154.964 163.514 155.398C163.776 155.833 164.169 156.159 164.694 156.376C165.218 156.594 165.876 156.702 166.669 156.702H171.175V160.039H165.998C164.495 160.039 163.211 159.79 162.143 159.291C161.076 158.793 160.261 158.077 159.698 157.143C159.136 156.204 158.854 155.082 158.854 153.778C158.854 152.48 159.129 151.352 159.679 150.393C160.235 149.428 161.037 148.684 162.086 148.159C163.14 147.629 164.409 147.364 165.892 147.364H173.63V167ZM163.035 158.064H167.513L162.738 167H158.155L163.035 158.064Z" fill="white"/>
<path d="M373.135 147.364V167H368.983V151.304H368.868L364.371 154.123V150.441L369.232 147.364H373.135ZM384.973 167.268C383.618 167.268 382.41 167.019 381.349 166.521C380.294 166.022 379.457 165.335 378.837 164.459C378.217 163.583 377.894 162.58 377.869 161.449H381.896C381.94 162.209 382.26 162.826 382.854 163.299C383.449 163.772 384.155 164.009 384.973 164.009C385.625 164.009 386.201 163.865 386.699 163.577C387.204 163.283 387.597 162.877 387.879 162.359C388.166 161.835 388.31 161.234 388.31 160.557C388.31 159.866 388.163 159.259 387.869 158.735C387.581 158.211 387.182 157.802 386.671 157.508C386.159 157.214 385.574 157.064 384.916 157.057C384.341 157.057 383.781 157.175 383.238 157.412C382.701 157.648 382.282 157.971 381.982 158.38L378.291 157.719L379.221 147.364H391.225V150.758H382.644L382.135 155.676H382.25C382.596 155.191 383.117 154.788 383.813 154.468C384.51 154.149 385.29 153.989 386.153 153.989C387.335 153.989 388.39 154.267 389.317 154.823C390.244 155.379 390.976 156.143 391.513 157.115C392.049 158.08 392.315 159.192 392.308 160.451C392.315 161.775 392.008 162.951 391.388 163.98C390.774 165.002 389.915 165.808 388.809 166.396C387.709 166.978 386.431 167.268 384.973 167.268ZM416.64 167H412.498V150.758H409.699C408.9 150.758 408.235 150.876 407.704 151.113C407.18 151.343 406.787 151.681 406.525 152.129C406.263 152.576 406.132 153.126 406.132 153.778C406.132 154.424 406.263 154.964 406.525 155.398C406.787 155.833 407.18 156.159 407.704 156.376C408.229 156.594 408.887 156.702 409.68 156.702H414.186V160.039H409.008C407.506 160.039 406.221 159.79 405.154 159.291C404.086 158.793 403.271 158.077 402.709 157.143C402.146 156.204 401.865 155.082 401.865 153.778C401.865 152.48 402.14 151.352 402.69 150.393C403.246 149.428 404.048 148.684 405.096 148.159C406.151 147.629 407.42 147.364 408.903 147.364H416.64V167ZM406.046 158.064H410.523L405.748 167H401.165L406.046 158.064ZM420.051 167V147.364H424.203V155.466H432.631V147.364H436.773V167H432.631V158.888H424.203V167H420.051ZM440.196 167V147.364H448.058C449.503 147.364 450.708 147.578 451.673 148.006C452.638 148.434 453.364 149.029 453.849 149.789C454.335 150.544 454.578 151.413 454.578 152.397C454.578 153.164 454.425 153.839 454.118 154.42C453.811 154.996 453.389 155.469 452.852 155.839C452.322 156.204 451.714 156.463 451.03 156.616V156.808C451.778 156.84 452.478 157.051 453.13 157.441C453.789 157.831 454.322 158.377 454.731 159.08C455.141 159.777 455.345 160.608 455.345 161.573C455.345 162.615 455.086 163.545 454.568 164.363C454.057 165.175 453.3 165.817 452.296 166.29C451.293 166.763 450.056 167 448.585 167H440.196ZM444.348 163.606H447.732C448.889 163.606 449.733 163.385 450.263 162.944C450.794 162.497 451.059 161.902 451.059 161.161C451.059 160.618 450.928 160.138 450.666 159.723C450.404 159.307 450.03 158.981 449.544 158.745C449.065 158.508 448.493 158.39 447.828 158.39H444.348V163.606ZM444.348 155.581H447.425C447.994 155.581 448.499 155.482 448.94 155.283C449.388 155.079 449.739 154.791 449.995 154.42C450.257 154.05 450.388 153.605 450.388 153.088C450.388 152.378 450.136 151.806 449.631 151.371C449.132 150.937 448.422 150.719 447.502 150.719H444.348V155.581ZM461.431 167H456.982L463.761 147.364H469.111L475.88 167H471.431L466.513 151.851H466.359L461.431 167ZM461.153 159.282H471.662V162.522H461.153V159.282ZM478.244 167V147.364H485.991C487.48 147.364 488.749 147.648 489.797 148.217C490.846 148.779 491.645 149.562 492.194 150.566C492.751 151.563 493.029 152.714 493.029 154.018C493.029 155.322 492.747 156.472 492.185 157.469C491.622 158.467 490.807 159.243 489.74 159.799C488.679 160.355 487.394 160.634 485.885 160.634H480.948V157.306H485.214C486.013 157.306 486.672 157.169 487.189 156.894C487.714 156.613 488.104 156.226 488.359 155.734C488.621 155.235 488.752 154.663 488.752 154.018C488.752 153.366 488.621 152.797 488.359 152.311C488.104 151.819 487.714 151.439 487.189 151.17C486.665 150.895 486.001 150.758 485.195 150.758H482.395V167H478.244ZM510.798 167H506.656V150.758H503.856C503.057 150.758 502.392 150.876 501.862 151.113C501.337 151.343 500.944 151.681 500.682 152.129C500.42 152.576 500.289 153.126 500.289 153.778C500.289 154.424 500.42 154.964 500.682 155.398C500.944 155.833 501.337 156.159 501.862 156.376C502.386 156.594 503.044 156.702 503.837 156.702H508.343V160.039H503.166C501.663 160.039 500.379 159.79 499.311 159.291C498.244 158.793 497.429 158.077 496.866 157.143C496.304 156.204 496.022 155.082 496.022 153.778C496.022 152.48 496.297 151.352 496.847 150.393C497.403 149.428 498.205 148.684 499.254 148.159C500.308 147.629 501.577 147.364 503.06 147.364H510.798V167ZM500.203 158.064H504.68L499.906 167H495.323L500.203 158.064Z" fill="white"/>
<path d="M770.135 147.364V167H765.983V151.304H765.868L761.371 154.123V150.441L766.232 147.364H770.135ZM782.501 167.431C780.852 167.425 779.433 167.019 778.244 166.214C777.061 165.408 776.15 164.242 775.511 162.714C774.878 161.186 774.565 159.349 774.571 157.201C774.571 155.06 774.888 153.235 775.521 151.726C776.16 150.218 777.071 149.07 778.253 148.284C779.442 147.491 780.858 147.095 782.501 147.095C784.144 147.095 785.556 147.491 786.739 148.284C787.928 149.077 788.842 150.227 789.481 151.736C790.12 153.238 790.437 155.06 790.43 157.201C790.43 159.355 790.111 161.196 789.471 162.724C788.839 164.251 787.931 165.418 786.748 166.223C785.566 167.029 784.15 167.431 782.501 167.431ZM782.501 163.989C783.626 163.989 784.524 163.424 785.195 162.292C785.866 161.161 786.199 159.464 786.192 157.201C786.192 155.712 786.039 154.472 785.732 153.481C785.432 152.49 785.003 151.745 784.447 151.247C783.897 150.748 783.249 150.499 782.501 150.499C781.382 150.499 780.487 151.058 779.816 152.177C779.145 153.295 778.806 154.97 778.8 157.201C778.8 158.71 778.95 159.969 779.25 160.979C779.557 161.982 779.989 162.737 780.545 163.241C781.101 163.74 781.753 163.989 782.501 163.989ZM807.521 149.473H811.912C813.485 149.473 814.878 149.805 816.093 150.47C817.313 151.135 818.269 152.071 818.959 153.279C819.656 154.481 820.005 155.894 820.005 157.517C820.005 159.09 819.656 160.461 818.959 161.631C818.269 162.8 817.313 163.711 816.093 164.363C814.878 165.009 813.485 165.332 811.912 165.332H807.521C805.942 165.332 804.542 165.012 803.321 164.373C802.1 163.727 801.142 162.82 800.445 161.65C799.755 160.48 799.409 159.099 799.409 157.508C799.409 155.884 799.758 154.472 800.454 153.27C801.158 152.062 802.12 151.129 803.34 150.47C804.561 149.805 805.955 149.473 807.521 149.473ZM807.521 152.944C806.677 152.944 805.932 153.113 805.287 153.452C804.648 153.784 804.149 154.289 803.791 154.967C803.433 155.645 803.254 156.491 803.254 157.508C803.254 158.479 803.436 159.288 803.801 159.934C804.171 160.579 804.676 161.062 805.316 161.381C805.955 161.701 806.69 161.861 807.521 161.861H811.941C812.778 161.861 813.51 161.698 814.137 161.372C814.769 161.046 815.258 160.56 815.604 159.914C815.955 159.269 816.131 158.47 816.131 157.517C816.131 156.501 815.955 155.654 815.604 154.977C815.258 154.299 814.769 153.791 814.137 153.452C813.51 153.113 812.778 152.944 811.941 152.944H807.521ZM811.682 147.018V167.805H807.741V147.018H811.682ZM823.063 167V147.364H836.295V150.787H827.215V155.466H835.614V158.888H827.215V163.577H836.333V167H823.063ZM839.595 167V147.364H847.458C848.902 147.364 850.107 147.578 851.072 148.006C852.037 148.434 852.763 149.029 853.249 149.789C853.735 150.544 853.977 151.413 853.977 152.397C853.977 153.164 853.824 153.839 853.517 154.42C853.21 154.996 852.789 155.469 852.252 155.839C851.721 156.204 851.114 156.463 850.43 156.616V156.808C851.178 156.84 851.878 157.051 852.53 157.441C853.188 157.831 853.722 158.377 854.131 159.08C854.54 159.777 854.744 160.608 854.744 161.573C854.744 162.615 854.486 163.545 853.968 164.363C853.456 165.175 852.699 165.817 851.695 166.29C850.692 166.763 849.455 167 847.985 167H839.595ZM843.747 163.606H847.132C848.289 163.606 849.132 163.385 849.663 162.944C850.193 162.497 850.459 161.902 850.459 161.161C850.459 160.618 850.328 160.138 850.066 159.723C849.803 159.307 849.43 158.981 848.944 158.745C848.464 158.508 847.892 158.39 847.227 158.39H843.747V163.606ZM843.747 155.581H846.825C847.394 155.581 847.899 155.482 848.34 155.283C848.787 155.079 849.139 154.791 849.394 154.42C849.656 154.05 849.787 153.605 849.787 153.088C849.787 152.378 849.535 151.806 849.03 151.371C848.531 150.937 847.822 150.719 846.901 150.719H843.747V155.581ZM857.446 167V147.364H865.193C866.682 147.364 867.951 147.648 869 148.217C870.048 148.779 870.847 149.562 871.397 150.566C871.953 151.563 872.231 152.714 872.231 154.018C872.231 155.322 871.949 156.472 871.387 157.469C870.824 158.467 870.01 159.243 868.942 159.799C867.881 160.355 866.596 160.634 865.088 160.634H860.15V157.306H864.416C865.215 157.306 865.874 157.169 866.392 156.894C866.916 156.613 867.306 156.226 867.561 155.734C867.823 155.235 867.954 154.663 867.954 154.018C867.954 153.366 867.823 152.797 867.561 152.311C867.306 151.819 866.916 151.439 866.392 151.17C865.867 150.895 865.203 150.758 864.397 150.758H861.598V167H857.446ZM876.044 167H871.596L878.374 147.364H883.724L890.494 167H886.045L881.126 151.851H880.973L876.044 167ZM875.766 159.282H886.275V162.522H875.766V159.282ZM891.793 167V163.663L892.349 163.615C893.065 163.558 893.643 163.286 894.084 162.8C894.525 162.308 894.855 161.525 895.072 160.451C895.296 159.371 895.439 157.92 895.503 156.098L895.829 147.364H909.157V167H905.12V150.691H899.684L899.377 157.527C899.275 159.726 899.013 161.522 898.591 162.915C898.175 164.309 897.51 165.338 896.596 166.003C895.689 166.668 894.445 167 892.867 167H891.793ZM927.652 167H923.51V150.758H920.71C919.911 150.758 919.247 150.876 918.716 151.113C918.192 151.343 917.799 151.681 917.537 152.129C917.275 152.576 917.144 153.126 917.144 153.778C917.144 154.424 917.275 154.964 917.537 155.398C917.799 155.833 918.192 156.159 918.716 156.376C919.24 156.594 919.899 156.702 920.691 156.702H925.198V160.039H920.02C918.518 160.039 917.233 159.79 916.166 159.291C915.098 158.793 914.283 158.077 913.721 157.143C913.158 156.204 912.877 155.082 912.877 153.778C912.877 152.48 913.152 151.352 913.702 150.393C914.258 149.428 915.06 148.684 916.108 148.159C917.163 147.629 918.432 147.364 919.915 147.364H927.652V167ZM917.057 158.064H921.535L916.76 167H912.177L917.057 158.064Z" fill="white"/>
<path d="M1167.13 147.364V167H1162.98V151.304H1162.87L1158.37 154.123V150.441L1163.23 147.364H1167.13ZM1179.06 167.268C1177.63 167.268 1176.35 167.022 1175.23 166.53C1174.12 166.032 1173.24 165.348 1172.6 164.478C1171.96 163.603 1171.63 162.593 1171.61 161.449H1175.79C1175.82 161.928 1175.97 162.35 1176.26 162.714C1176.55 163.072 1176.94 163.35 1177.43 163.548C1177.92 163.746 1178.46 163.846 1179.07 163.846C1179.7 163.846 1180.26 163.734 1180.75 163.51C1181.23 163.286 1181.61 162.976 1181.89 162.58C1182.16 162.184 1182.3 161.727 1182.3 161.209C1182.3 160.685 1182.15 160.221 1181.86 159.819C1181.57 159.409 1181.16 159.09 1180.61 158.86C1180.08 158.63 1179.44 158.515 1178.7 158.515H1176.86V155.466H1178.7C1179.32 155.466 1179.87 155.357 1180.35 155.14C1180.84 154.922 1181.22 154.622 1181.49 154.238C1181.75 153.848 1181.89 153.395 1181.89 152.877C1181.89 152.385 1181.77 151.953 1181.53 151.582C1181.3 151.205 1180.98 150.911 1180.56 150.7C1180.14 150.489 1179.65 150.384 1179.1 150.384C1178.54 150.384 1178.02 150.486 1177.55 150.691C1177.09 150.889 1176.71 151.173 1176.43 151.544C1176.15 151.915 1176 152.349 1175.98 152.848H1172C1172.02 151.717 1172.34 150.719 1172.97 149.857C1173.6 148.994 1174.44 148.319 1175.5 147.833C1176.57 147.341 1177.77 147.095 1179.12 147.095C1180.47 147.095 1181.66 147.341 1182.67 147.833C1183.69 148.326 1184.48 148.99 1185.04 149.828C1185.61 150.659 1185.89 151.592 1185.89 152.627C1185.89 153.727 1185.55 154.644 1184.86 155.379C1184.18 156.114 1183.28 156.581 1182.19 156.779V156.933C1183.63 157.118 1184.73 157.62 1185.48 158.438C1186.24 159.25 1186.62 160.266 1186.62 161.487C1186.62 162.605 1186.3 163.599 1185.65 164.469C1185 165.338 1184.11 166.022 1182.97 166.521C1181.83 167.019 1180.53 167.268 1179.06 167.268ZM1203.73 149.473H1208.12C1209.69 149.473 1211.09 149.805 1212.3 150.47C1213.52 151.135 1214.48 152.071 1215.17 153.279C1215.87 154.481 1216.21 155.894 1216.21 157.517C1216.21 159.09 1215.87 160.461 1215.17 161.631C1214.48 162.8 1213.52 163.711 1212.3 164.363C1211.09 165.009 1209.69 165.332 1208.12 165.332H1203.73C1202.15 165.332 1200.75 165.012 1199.53 164.373C1198.31 163.727 1197.35 162.82 1196.65 161.65C1195.96 160.48 1195.62 159.099 1195.62 157.508C1195.62 155.884 1195.97 154.472 1196.66 153.27C1197.37 152.062 1198.33 151.129 1199.55 150.47C1200.77 149.805 1202.16 149.473 1203.73 149.473ZM1203.73 152.944C1202.89 152.944 1202.14 153.113 1201.5 153.452C1200.86 153.784 1200.36 154.289 1200 154.967C1199.64 155.645 1199.46 156.491 1199.46 157.508C1199.46 158.479 1199.65 159.288 1200.01 159.934C1200.38 160.579 1200.89 161.062 1201.52 161.381C1202.16 161.701 1202.9 161.861 1203.73 161.861H1208.15C1208.99 161.861 1209.72 161.698 1210.35 161.372C1210.98 161.046 1211.47 160.56 1211.81 159.914C1212.16 159.269 1212.34 158.47 1212.34 157.517C1212.34 156.501 1212.16 155.654 1211.81 154.977C1211.47 154.299 1210.98 153.791 1210.35 153.452C1209.72 153.113 1208.99 152.944 1208.15 152.944H1203.73ZM1207.89 147.018V167.805H1203.95V147.018H1207.89ZM1219.27 167V147.364H1232.5V150.787H1223.42V155.466H1231.82V158.888H1223.42V163.577H1232.54V167H1219.27ZM1235.8 167V147.364H1243.67C1245.11 147.364 1246.32 147.578 1247.28 148.006C1248.25 148.434 1248.97 149.029 1249.46 149.789C1249.94 150.544 1250.19 151.413 1250.19 152.397C1250.19 153.164 1250.03 153.839 1249.73 154.42C1249.42 154.996 1249 155.469 1248.46 155.839C1247.93 156.204 1247.32 156.463 1246.64 156.616V156.808C1247.39 156.84 1248.09 157.051 1248.74 157.441C1249.4 157.831 1249.93 158.377 1250.34 159.08C1250.75 159.777 1250.95 160.608 1250.95 161.573C1250.95 162.615 1250.69 163.545 1250.18 164.363C1249.67 165.175 1248.91 165.817 1247.9 166.29C1246.9 166.763 1245.66 167 1244.19 167H1235.8ZM1239.96 163.606H1243.34C1244.5 163.606 1245.34 163.385 1245.87 162.944C1246.4 162.497 1246.67 161.902 1246.67 161.161C1246.67 160.618 1246.54 160.138 1246.27 159.723C1246.01 159.307 1245.64 158.981 1245.15 158.745C1244.67 158.508 1244.1 158.39 1243.44 158.39H1239.96V163.606ZM1239.96 155.581H1243.03C1243.6 155.581 1244.11 155.482 1244.55 155.283C1245 155.079 1245.35 154.791 1245.6 154.42C1245.87 154.05 1246 153.605 1246 153.088C1246 152.378 1245.74 151.806 1245.24 151.371C1244.74 150.937 1244.03 150.719 1243.11 150.719H1239.96V155.581ZM1253.65 167V147.364H1261.4C1262.89 147.364 1264.16 147.648 1265.21 148.217C1266.26 148.779 1267.06 149.562 1267.61 150.566C1268.16 151.563 1268.44 152.714 1268.44 154.018C1268.44 155.322 1268.16 156.472 1267.6 157.469C1267.03 158.467 1266.22 159.243 1265.15 159.799C1264.09 160.355 1262.81 160.634 1261.3 160.634H1256.36V157.306H1260.63C1261.42 157.306 1262.08 157.169 1262.6 156.894C1263.12 156.613 1263.51 156.226 1263.77 155.734C1264.03 155.235 1264.16 154.663 1264.16 154.018C1264.16 153.366 1264.03 152.797 1263.77 152.311C1263.51 151.819 1263.12 151.439 1262.6 151.17C1262.08 150.895 1261.41 150.758 1260.61 150.758H1257.81V167H1253.65ZM1272.25 167H1267.8L1274.58 147.364H1279.93L1286.7 167H1282.25L1277.34 151.851H1277.18L1272.25 167ZM1271.98 159.282H1282.48V162.522H1271.98V159.282ZM1288 167V163.663L1288.56 163.615C1289.27 163.558 1289.85 163.286 1290.29 162.8C1290.73 162.308 1291.06 161.525 1291.28 160.451C1291.5 159.371 1291.65 157.92 1291.71 156.098L1292.04 147.364H1305.37V167H1301.33V150.691H1295.89L1295.59 157.527C1295.48 159.726 1295.22 161.522 1294.8 162.915C1294.38 164.309 1293.72 165.338 1292.81 166.003C1291.9 166.668 1290.65 167 1289.08 167H1288ZM1323.86 167H1319.72V150.758H1316.92C1316.12 150.758 1315.46 150.876 1314.93 151.113C1314.4 151.343 1314.01 151.681 1313.75 152.129C1313.48 152.576 1313.35 153.126 1313.35 153.778C1313.35 154.424 1313.48 154.964 1313.75 155.398C1314.01 155.833 1314.4 156.159 1314.93 156.376C1315.45 156.594 1316.11 156.702 1316.9 156.702H1321.41V160.039H1316.23C1314.73 160.039 1313.44 159.79 1312.37 159.291C1311.31 158.793 1310.49 158.077 1309.93 157.143C1309.37 156.204 1309.09 155.082 1309.09 153.778C1309.09 152.48 1309.36 151.352 1309.91 150.393C1310.47 149.428 1311.27 148.684 1312.32 148.159C1313.37 147.629 1314.64 147.364 1316.12 147.364H1323.86V167ZM1313.27 158.064H1317.74L1312.97 167H1308.39L1313.27 158.064Z" fill="white"/>
<path d="M0.666667 97C0.666666 104.364 6.6362 110.333 14 110.333C21.3638 110.333 27.3333 104.364 27.3333 97C27.3333 89.6362 21.3638 83.6667 14 83.6667C6.6362 83.6667 0.666668 89.6362 0.666667 97ZM1605 97.0001L1580 82.5664L1580 111.434L1605 97.0001ZM18.9719 99.5C20.3526 99.5 21.4719 98.3807 21.4719 97C21.4719 95.6193 20.3526 94.5 18.9719 94.5L18.9719 99.5ZM28.9156 94.5C27.5349 94.5 26.4156 95.6193 26.4156 97C26.4156 98.3807 27.5349 99.5 28.9156 99.5L28.9156 94.5ZM38.8594 99.5C40.2401 99.5 41.3594 98.3807 41.3594 97C41.3594 95.6193 40.2401 94.5 38.8594 94.5L38.8594 99.5ZM48.8031 94.5C47.4224 94.5 46.3031 95.6193 46.3031 97C46.3031 98.3807 47.4224 99.5 48.8031 99.5L48.8031 94.5ZM58.7469 99.5C60.1276 99.5 61.2469 98.3807 61.2469 97C61.2469 95.6193 60.1276 94.5 58.7469 94.5L58.7469 99.5ZM68.6906 94.5C67.3099 94.5 66.1906 95.6193 66.1906 97C66.1906 98.3807 67.3099 99.5 68.6906 99.5L68.6906 94.5ZM78.6344 99.5C80.0151 99.5 81.1344 98.3807 81.1344 97C81.1344 95.6193 80.0151 94.5 78.6344 94.5L78.6344 99.5ZM88.5781 94.5C87.1974 94.5 86.0781 95.6193 86.0781 97C86.0781 98.3807 87.1974 99.5 88.5781 99.5L88.5781 94.5ZM98.5219 99.5C99.9026 99.5 101.022 98.3807 101.022 97C101.022 95.6193 99.9026 94.5 98.5219 94.5L98.5219 99.5ZM108.466 94.5C107.085 94.5 105.966 95.6193 105.966 97C105.966 98.3807 107.085 99.5 108.466 99.5L108.466 94.5ZM118.409 99.5C119.79 99.5 120.909 98.3807 120.909 97C120.909 95.6193 119.79 94.5 118.409 94.5L118.409 99.5ZM128.353 94.5C126.972 94.5 125.853 95.6193 125.853 97C125.853 98.3807 126.972 99.5 128.353 99.5L128.353 94.5ZM138.297 99.5C139.678 99.5 140.797 98.3807 140.797 97C140.797 95.6193 139.678 94.5 138.297 94.5L138.297 99.5ZM148.241 94.5C146.86 94.5 145.741 95.6193 145.741 97C145.741 98.3807 146.86 99.5 148.241 99.5L148.241 94.5ZM158.184 99.5C159.565 99.5 160.684 98.3807 160.684 97C160.684 95.6193 159.565 94.5 158.184 94.5L158.184 99.5ZM168.128 94.5C166.747 94.5 165.628 95.6193 165.628 97C165.628 98.3807 166.747 99.5 168.128 99.5L168.128 94.5ZM178.072 99.5C179.453 99.5 180.572 98.3807 180.572 97C180.572 95.6193 179.453 94.5 178.072 94.5L178.072 99.5ZM188.016 94.5C186.635 94.5 185.516 95.6193 185.516 97C185.516 98.3807 186.635 99.5 188.016 99.5L188.016 94.5ZM197.959 99.5C199.34 99.5 200.459 98.3807 200.459 97C200.459 95.6193 199.34 94.5 197.959 94.5L197.959 99.5ZM207.903 94.5C206.522 94.5 205.403 95.6193 205.403 97C205.403 98.3807 206.522 99.5 207.903 99.5L207.903 94.5ZM217.847 99.5C219.228 99.5 220.347 98.3807 220.347 97C220.347 95.6193 219.228 94.5 217.847 94.5L217.847 99.5ZM227.791 94.5C226.41 94.5 225.291 95.6193 225.291 97C225.291 98.3807 226.41 99.5 227.791 99.5L227.791 94.5ZM237.734 99.5C239.115 99.5 240.234 98.3807 240.234 97C240.234 95.6193 239.115 94.5 237.734 94.5L237.734 99.5ZM247.678 94.5C246.297 94.5 245.178 95.6193 245.178 97C245.178 98.3807 246.297 99.5 247.678 99.5L247.678 94.5ZM257.622 99.5C259.003 99.5 260.122 98.3807 260.122 97C260.122 95.6193 259.003 94.5 257.622 94.5L257.622 99.5ZM267.566 94.5C266.185 94.5 265.066 95.6193 265.066 97C265.066 98.3807 266.185 99.5 267.566 99.5L267.566 94.5ZM277.509 99.5C278.89 99.5 280.009 98.3807 280.009 97C280.009 95.6193 278.89 94.5 277.509 94.5L277.509 99.5ZM287.453 94.5C286.072 94.5 284.953 95.6193 284.953 97C284.953 98.3807 286.072 99.5 287.453 99.5L287.453 94.5ZM297.397 99.5C298.778 99.5 299.897 98.3807 299.897 97C299.897 95.6193 298.778 94.5 297.397 94.5L297.397 99.5ZM307.341 94.5C305.96 94.5 304.841 95.6193 304.841 97C304.841 98.3807 305.96 99.5 307.341 99.5L307.341 94.5ZM317.284 99.5C318.665 99.5 319.784 98.3807 319.784 97C319.784 95.6193 318.665 94.5 317.284 94.5L317.284 99.5ZM327.228 94.5C325.848 94.5 324.728 95.6193 324.728 97C324.728 98.3807 325.848 99.5 327.228 99.5L327.228 94.5ZM337.172 99.5C338.553 99.5 339.672 98.3807 339.672 97C339.672 95.6193 338.553 94.5 337.172 94.5L337.172 99.5ZM347.116 94.5C345.735 94.5 344.616 95.6193 344.616 97C344.616 98.3807 345.735 99.5 347.116 99.5L347.116 94.5ZM357.059 99.5C358.44 99.5 359.559 98.3807 359.559 97C359.559 95.6193 358.44 94.5 357.059 94.5L357.059 99.5ZM367.003 94.5C365.623 94.5 364.503 95.6193 364.503 97C364.503 98.3807 365.623 99.5 367.003 99.5L367.003 94.5ZM376.947 99.5C378.328 99.5 379.447 98.3807 379.447 97C379.447 95.6193 378.328 94.5 376.947 94.5L376.947 99.5ZM386.891 94.5C385.51 94.5 384.391 95.6193 384.391 97C384.391 98.3807 385.51 99.5 386.891 99.5L386.891 94.5ZM396.835 99.5C398.215 99.5 399.335 98.3807 399.335 97C399.335 95.6193 398.215 94.5 396.835 94.5L396.835 99.5ZM406.778 94.5C405.398 94.5 404.278 95.6193 404.278 97C404.278 98.3807 405.398 99.5 406.778 99.5L406.778 94.5ZM416.722 99.5C418.103 99.5 419.222 98.3807 419.222 97C419.222 95.6193 418.103 94.5 416.722 94.5L416.722 99.5ZM426.666 94.5C425.285 94.5 424.166 95.6193 424.166 97C424.166 98.3807 425.285 99.5 426.666 99.5L426.666 94.5ZM436.61 99.5C437.99 99.5 439.11 98.3807 439.11 97C439.11 95.6193 437.99 94.5 436.61 94.5L436.61 99.5ZM446.553 94.5C445.173 94.5 444.053 95.6193 444.053 97C444.053 98.3807 445.173 99.5 446.553 99.5L446.553 94.5ZM456.497 99.5C457.878 99.5 458.997 98.3808 458.997 97C458.997 95.6193 457.878 94.5 456.497 94.5L456.497 99.5ZM466.441 94.5C465.06 94.5 463.941 95.6193 463.941 97C463.941 98.3808 465.06 99.5 466.441 99.5L466.441 94.5ZM476.385 99.5C477.765 99.5 478.885 98.3808 478.885 97C478.885 95.6193 477.765 94.5 476.385 94.5L476.385 99.5ZM486.328 94.5C484.948 94.5 483.828 95.6193 483.828 97C483.828 98.3808 484.948 99.5 486.328 99.5L486.328 94.5ZM496.272 99.5C497.653 99.5 498.772 98.3808 498.772 97C498.772 95.6193 497.653 94.5 496.272 94.5L496.272 99.5ZM506.216 94.5C504.835 94.5 503.716 95.6193 503.716 97C503.716 98.3808 504.835 99.5 506.216 99.5L506.216 94.5ZM516.16 99.5C517.54 99.5 518.66 98.3808 518.66 97C518.66 95.6193 517.54 94.5 516.16 94.5L516.16 99.5ZM526.103 94.5C524.723 94.5 523.603 95.6193 523.603 97C523.603 98.3808 524.723 99.5 526.103 99.5L526.103 94.5ZM536.047 99.5C537.428 99.5 538.547 98.3808 538.547 97C538.547 95.6193 537.428 94.5 536.047 94.5L536.047 99.5ZM545.991 94.5C544.61 94.5 543.491 95.6193 543.491 97C543.491 98.3808 544.61 99.5 545.991 99.5L545.991 94.5ZM555.935 99.5C557.315 99.5 558.435 98.3808 558.435 97C558.435 95.6193 557.315 94.5 555.935 94.5L555.935 99.5ZM565.878 94.5C564.498 94.5 563.378 95.6193 563.378 97C563.378 98.3808 564.498 99.5 565.878 99.5L565.878 94.5ZM575.822 99.5C577.203 99.5 578.322 98.3808 578.322 97C578.322 95.6193 577.203 94.5 575.822 94.5L575.822 99.5ZM585.766 94.5C584.385 94.5 583.266 95.6193 583.266 97C583.266 98.3808 584.385 99.5 585.766 99.5L585.766 94.5ZM595.709 99.5001C597.09 99.5001 598.209 98.3808 598.209 97.0001C598.209 95.6193 597.09 94.5001 595.709 94.5001L595.709 99.5001ZM605.653 94.5001C604.272 94.5001 603.153 95.6193 603.153 97.0001C603.153 98.3808 604.272 99.5001 605.653 99.5001L605.653 94.5001ZM615.597 99.5001C616.978 99.5001 618.097 98.3808 618.097 97.0001C618.097 95.6193 616.978 94.5001 615.597 94.5001L615.597 99.5001ZM625.541 94.5001C624.16 94.5001 623.041 95.6193 623.041 97.0001C623.041 98.3808 624.16 99.5001 625.541 99.5001L625.541 94.5001ZM635.484 99.5001C636.865 99.5001 637.984 98.3808 637.984 97.0001C637.984 95.6193 636.865 94.5001 635.484 94.5001L635.484 99.5001ZM645.428 94.5001C644.047 94.5001 642.928 95.6193 642.928 97.0001C642.928 98.3808 644.047 99.5001 645.428 99.5001L645.428 94.5001ZM655.372 99.5001C656.753 99.5001 657.872 98.3808 657.872 97.0001C657.872 95.6193 656.753 94.5001 655.372 94.5001L655.372 99.5001ZM665.315 94.5001C663.935 94.5001 662.815 95.6193 662.815 97.0001C662.815 98.3808 663.935 99.5001 665.315 99.5001L665.315 94.5001ZM675.259 99.5001C676.64 99.5001 677.759 98.3808 677.759 97.0001C677.759 95.6193 676.64 94.5001 675.259 94.5001L675.259 99.5001ZM685.203 94.5001C683.822 94.5001 682.703 95.6193 682.703 97.0001C682.703 98.3808 683.822 99.5001 685.203 99.5001L685.203 94.5001ZM695.147 99.5001C696.527 99.5001 697.647 98.3808 697.647 97.0001C697.647 95.6193 696.527 94.5001 695.147 94.5001L695.147 99.5001ZM705.09 94.5001C703.71 94.5001 702.59 95.6193 702.59 97.0001C702.59 98.3808 703.71 99.5001 705.09 99.5001L705.09 94.5001ZM715.034 99.5001C716.415 99.5001 717.534 98.3808 717.534 97.0001C717.534 95.6193 716.415 94.5001 715.034 94.5001L715.034 99.5001ZM724.978 94.5001C723.597 94.5001 722.478 95.6194 722.478 97.0001C722.478 98.3808 723.597 99.5001 724.978 99.5001L724.978 94.5001ZM734.922 99.5001C736.302 99.5001 737.422 98.3808 737.422 97.0001C737.422 95.6194 736.302 94.5001 734.922 94.5001L734.922 99.5001ZM744.865 94.5001C743.485 94.5001 742.365 95.6194 742.365 97.0001C742.365 98.3808 743.485 99.5001 744.865 99.5001L744.865 94.5001ZM754.809 99.5001C756.19 99.5001 757.309 98.3808 757.309 97.0001C757.309 95.6194 756.19 94.5001 754.809 94.5001L754.809 99.5001ZM764.753 94.5001C763.372 94.5001 762.253 95.6194 762.253 97.0001C762.253 98.3808 763.372 99.5001 764.753 99.5001L764.753 94.5001ZM774.696 99.5001C776.077 99.5001 777.196 98.3808 777.196 97.0001C777.196 95.6194 776.077 94.5001 774.696 94.5001L774.696 99.5001ZM784.64 94.5001C783.26 94.5001 782.14 95.6194 782.14 97.0001C782.14 98.3808 783.26 99.5001 784.64 99.5001L784.64 94.5001ZM794.584 99.5001C795.965 99.5001 797.084 98.3808 797.084 97.0001C797.084 95.6194 795.965 94.5001 794.584 94.5001L794.584 99.5001ZM804.528 94.5001C803.147 94.5001 802.028 95.6194 802.028 97.0001C802.028 98.3808 803.147 99.5001 804.528 99.5001L804.528 94.5001ZM814.471 99.5001C815.852 99.5001 816.971 98.3808 816.971 97.0001C816.971 95.6194 815.852 94.5001 814.471 94.5001L814.471 99.5001ZM824.415 94.5001C823.034 94.5001 821.915 95.6194 821.915 97.0001C821.915 98.3808 823.034 99.5001 824.415 99.5001L824.415 94.5001ZM834.359 99.5001C835.74 99.5001 836.859 98.3808 836.859 97.0001C836.859 95.6194 835.74 94.5001 834.359 94.5001L834.359 99.5001ZM844.303 94.5001C842.922 94.5001 841.803 95.6194 841.803 97.0001C841.803 98.3808 842.922 99.5001 844.303 99.5001L844.303 94.5001ZM854.246 99.5001C855.627 99.5001 856.746 98.3808 856.746 97.0001C856.746 95.6194 855.627 94.5001 854.246 94.5001L854.246 99.5001ZM864.19 94.5001C862.809 94.5001 861.69 95.6194 861.69 97.0001C861.69 98.3808 862.809 99.5001 864.19 99.5001L864.19 94.5001ZM874.134 99.5001C875.515 99.5001 876.634 98.3808 876.634 97.0001C876.634 95.6194 875.515 94.5001 874.134 94.5001L874.134 99.5001ZM884.078 94.5001C882.697 94.5001 881.578 95.6194 881.578 97.0001C881.578 98.3808 882.697 99.5001 884.078 99.5001L884.078 94.5001ZM894.021 99.5001C895.402 99.5001 896.521 98.3808 896.521 97.0001C896.521 95.6194 895.402 94.5001 894.021 94.5001L894.021 99.5001ZM903.965 94.5001C902.584 94.5001 901.465 95.6194 901.465 97.0001C901.465 98.3808 902.584 99.5001 903.965 99.5001L903.965 94.5001ZM913.909 99.5001C915.289 99.5001 916.409 98.3808 916.409 97.0001C916.409 95.6194 915.289 94.5001 913.909 94.5001L913.909 99.5001ZM923.852 94.5001C922.472 94.5001 921.352 95.6194 921.352 97.0001C921.352 98.3808 922.472 99.5001 923.852 99.5001L923.852 94.5001ZM933.796 99.5001C935.177 99.5001 936.296 98.3808 936.296 97.0001C936.296 95.6194 935.177 94.5001 933.796 94.5001L933.796 99.5001ZM943.74 94.5001C942.359 94.5001 941.24 95.6194 941.24 97.0001C941.24 98.3808 942.359 99.5001 943.74 99.5001L943.74 94.5001ZM953.684 99.5001C955.064 99.5001 956.184 98.3808 956.184 97.0001C956.184 95.6194 955.064 94.5001 953.684 94.5001L953.684 99.5001ZM963.627 94.5001C962.247 94.5001 961.127 95.6194 961.127 97.0001C961.127 98.3808 962.247 99.5001 963.627 99.5001L963.627 94.5001ZM973.571 99.5001C974.952 99.5001 976.071 98.3808 976.071 97.0001C976.071 95.6194 974.952 94.5001 973.571 94.5001L973.571 99.5001ZM983.515 94.5001C982.134 94.5001 981.015 95.6194 981.015 97.0001C981.015 98.3808 982.134 99.5001 983.515 99.5001L983.515 94.5001ZM993.458 99.5001C994.839 99.5001 995.958 98.3808 995.958 97.0001C995.958 95.6194 994.839 94.5001 993.458 94.5001L993.458 99.5001ZM1003.4 94.5001C1002.02 94.5001 1000.9 95.6194 1000.9 97.0001C1000.9 98.3808 1002.02 99.5001 1003.4 99.5001L1003.4 94.5001ZM1013.35 99.5001C1014.73 99.5001 1015.85 98.3808 1015.85 97.0001C1015.85 95.6194 1014.73 94.5001 1013.35 94.5001L1013.35 99.5001ZM1023.29 94.5001C1021.91 94.5001 1020.79 95.6194 1020.79 97.0001C1020.79 98.3808 1021.91 99.5001 1023.29 99.5001L1023.29 94.5001ZM1033.23 99.5001C1034.61 99.5001 1035.73 98.3808 1035.73 97.0001C1035.73 95.6194 1034.61 94.5001 1033.23 94.5001L1033.23 99.5001ZM1043.18 94.5001C1041.8 94.5001 1040.68 95.6194 1040.68 97.0001C1040.68 98.3808 1041.8 99.5001 1043.18 99.5001L1043.18 94.5001ZM1053.12 99.5001C1054.5 99.5001 1055.62 98.3808 1055.62 97.0001C1055.62 95.6194 1054.5 94.5001 1053.12 94.5001L1053.12 99.5001ZM1063.06 94.5001C1061.68 94.5001 1060.56 95.6194 1060.56 97.0001C1060.56 98.3808 1061.68 99.5001 1063.06 99.5001L1063.06 94.5001ZM1073.01 99.5001C1074.39 99.5001 1075.51 98.3808 1075.51 97.0001C1075.51 95.6194 1074.39 94.5001 1073.01 94.5001L1073.01 99.5001ZM1082.95 94.5001C1081.57 94.5001 1080.45 95.6194 1080.45 97.0001C1080.45 98.3808 1081.57 99.5001 1082.95 99.5001L1082.95 94.5001ZM1092.9 99.5001C1094.28 99.5001 1095.4 98.3808 1095.4 97.0001C1095.4 95.6194 1094.28 94.5001 1092.9 94.5001L1092.9 99.5001ZM1102.84 94.5001C1101.46 94.5001 1100.34 95.6194 1100.34 97.0001C1100.34 98.3808 1101.46 99.5001 1102.84 99.5001L1102.84 94.5001ZM1112.78 99.5001C1114.16 99.5001 1115.28 98.3808 1115.28 97.0001C1115.28 95.6194 1114.16 94.5001 1112.78 94.5001L1112.78 99.5001ZM1122.73 94.5001C1121.35 94.5001 1120.23 95.6194 1120.23 97.0001C1120.23 98.3808 1121.35 99.5001 1122.73 99.5001L1122.73 94.5001ZM1132.67 99.5001C1134.05 99.5001 1135.17 98.3808 1135.17 97.0001C1135.17 95.6194 1134.05 94.5001 1132.67 94.5001L1132.67 99.5001ZM1142.61 94.5001C1141.23 94.5001 1140.11 95.6194 1140.11 97.0001C1140.11 98.3808 1141.23 99.5001 1142.61 99.5001L1142.61 94.5001ZM1152.56 99.5001C1153.94 99.5001 1155.06 98.3808 1155.06 97.0001C1155.06 95.6194 1153.94 94.5001 1152.56 94.5001L1152.56 99.5001ZM1162.5 94.5001C1161.12 94.5001 1160 95.6194 1160 97.0001C1160 98.3808 1161.12 99.5001 1162.5 99.5001L1162.5 94.5001ZM1172.45 99.5001C1173.83 99.5001 1174.95 98.3808 1174.95 97.0001C1174.95 95.6194 1173.83 94.5001 1172.45 94.5001L1172.45 99.5001ZM1182.39 94.5001C1181.01 94.5001 1179.89 95.6194 1179.89 97.0001C1179.89 98.3808 1181.01 99.5001 1182.39 99.5001L1182.39 94.5001ZM1192.33 99.5001C1193.71 99.5001 1194.83 98.3808 1194.83 97.0001C1194.83 95.6194 1193.71 94.5001 1192.33 94.5001L1192.33 99.5001ZM1202.28 94.5001C1200.9 94.5001 1199.78 95.6194 1199.78 97.0001C1199.78 98.3808 1200.9 99.5001 1202.28 99.5001L1202.28 94.5001ZM1212.22 99.5001C1213.6 99.5001 1214.72 98.3808 1214.72 97.0001C1214.72 95.6194 1213.6 94.5001 1212.22 94.5001L1212.22 99.5001ZM1222.16 94.5001C1220.78 94.5001 1219.66 95.6194 1219.66 97.0001C1219.66 98.3808 1220.78 99.5001 1222.16 99.5001L1222.16 94.5001ZM1232.11 99.5001C1233.49 99.5001 1234.61 98.3808 1234.61 97.0001C1234.61 95.6194 1233.49 94.5001 1232.11 94.5001L1232.11 99.5001ZM1242.05 94.5001C1240.67 94.5001 1239.55 95.6194 1239.55 97.0001C1239.55 98.3808 1240.67 99.5001 1242.05 99.5001L1242.05 94.5001ZM1252 99.5001C1253.38 99.5001 1254.5 98.3808 1254.5 97.0001C1254.5 95.6194 1253.38 94.5001 1252 94.5001L1252 99.5001ZM1261.94 94.5001C1260.56 94.5001 1259.44 95.6194 1259.44 97.0001C1259.44 98.3808 1260.56 99.5001 1261.94 99.5001L1261.94 94.5001ZM1271.88 99.5001C1273.26 99.5001 1274.38 98.3808 1274.38 97.0001C1274.38 95.6194 1273.26 94.5001 1271.88 94.5001L1271.88 99.5001ZM1281.83 94.5001C1280.45 94.5001 1279.33 95.6194 1279.33 97.0001C1279.33 98.3808 1280.45 99.5001 1281.83 99.5001L1281.83 94.5001ZM1291.77 99.5001C1293.15 99.5001 1294.27 98.3808 1294.27 97.0001C1294.27 95.6194 1293.15 94.5001 1291.77 94.5001L1291.77 99.5001ZM1301.71 94.5001C1300.33 94.5001 1299.21 95.6194 1299.21 97.0001C1299.21 98.3808 1300.33 99.5001 1301.71 99.5001L1301.71 94.5001ZM1311.66 99.5001C1313.04 99.5001 1314.16 98.3808 1314.16 97.0001C1314.16 95.6194 1313.04 94.5001 1311.66 94.5001L1311.66 99.5001ZM1321.6 94.5001C1320.22 94.5001 1319.1 95.6194 1319.1 97.0001C1319.1 98.3808 1320.22 99.5001 1321.6 99.5001L1321.6 94.5001ZM1331.55 99.5001C1332.93 99.5001 1334.05 98.3808 1334.05 97.0001C1334.05 95.6194 1332.93 94.5001 1331.55 94.5001L1331.55 99.5001ZM1341.49 94.5001C1340.11 94.5001 1338.99 95.6194 1338.99 97.0001C1338.99 98.3808 1340.11 99.5001 1341.49 99.5001L1341.49 94.5001ZM1351.43 99.5001C1352.81 99.5001 1353.93 98.3808 1353.93 97.0001C1353.93 95.6194 1352.81 94.5001 1351.43 94.5001L1351.43 99.5001ZM1361.38 94.5001C1360 94.5001 1358.88 95.6194 1358.88 97.0001C1358.88 98.3808 1360 99.5001 1361.38 99.5001L1361.38 94.5001ZM1371.32 99.5001C1372.7 99.5001 1373.82 98.3808 1373.82 97.0001C1373.82 95.6194 1372.7 94.5001 1371.32 94.5001L1371.32 99.5001ZM1381.26 94.5001C1379.88 94.5001 1378.76 95.6194 1378.76 97.0001C1378.76 98.3808 1379.88 99.5001 1381.26 99.5001L1381.26 94.5001ZM1391.21 99.5001C1392.59 99.5001 1393.71 98.3808 1393.71 97.0001C1393.71 95.6194 1392.59 94.5001 1391.21 94.5001L1391.21 99.5001ZM1401.15 94.5001C1399.77 94.5001 1398.65 95.6194 1398.65 97.0001C1398.65 98.3808 1399.77 99.5001 1401.15 99.5001L1401.15 94.5001ZM1411.1 99.5001C1412.48 99.5001 1413.6 98.3808 1413.6 97.0001C1413.6 95.6194 1412.48 94.5001 1411.1 94.5001L1411.1 99.5001ZM1421.04 94.5001C1419.66 94.5001 1418.54 95.6194 1418.54 97.0001C1418.54 98.3808 1419.66 99.5001 1421.04 99.5001L1421.04 94.5001ZM1430.98 99.5001C1432.36 99.5001 1433.48 98.3808 1433.48 97.0001C1433.48 95.6194 1432.36 94.5001 1430.98 94.5001L1430.98 99.5001ZM1440.93 94.5001C1439.55 94.5001 1438.43 95.6194 1438.43 97.0001C1438.43 98.3808 1439.55 99.5001 1440.93 99.5001L1440.93 94.5001ZM1450.87 99.5001C1452.25 99.5001 1453.37 98.3808 1453.37 97.0001C1453.37 95.6194 1452.25 94.5001 1450.87 94.5001L1450.87 99.5001ZM1460.81 94.5001C1459.43 94.5001 1458.31 95.6194 1458.31 97.0001C1458.31 98.3808 1459.43 99.5001 1460.81 99.5001L1460.81 94.5001ZM1470.76 99.5001C1472.14 99.5001 1473.26 98.3808 1473.26 97.0001C1473.26 95.6194 1472.14 94.5001 1470.76 94.5001L1470.76 99.5001ZM1480.7 94.5001C1479.32 94.5001 1478.2 95.6194 1478.2 97.0001C1478.2 98.3808 1479.32 99.5001 1480.7 99.5001L1480.7 94.5001ZM1490.64 99.5001C1492.03 99.5001 1493.14 98.3808 1493.14 97.0001C1493.14 95.6194 1492.03 94.5001 1490.64 94.5001L1490.64 99.5001ZM1500.59 94.5001C1499.21 94.5001 1498.09 95.6194 1498.09 97.0001C1498.09 98.3808 1499.21 99.5001 1500.59 99.5001L1500.59 94.5001ZM1510.53 99.5001C1511.91 99.5001 1513.03 98.3808 1513.03 97.0001C1513.03 95.6194 1511.91 94.5001 1510.53 94.5001L1510.53 99.5001ZM1520.48 94.5001C1519.1 94.5001 1517.98 95.6194 1517.98 97.0001C1517.98 98.3808 1519.1 99.5001 1520.48 99.5001L1520.48 94.5001ZM1530.42 99.5001C1531.8 99.5001 1532.92 98.3808 1532.92 97.0001C1532.92 95.6194 1531.8 94.5001 1530.42 94.5001L1530.42 99.5001ZM1540.36 94.5001C1538.98 94.5001 1537.86 95.6194 1537.86 97.0001C1537.86 98.3808 1538.98 99.5001 1540.36 99.5001L1540.36 94.5001ZM1550.31 99.5001C1551.69 99.5001 1552.81 98.3808 1552.81 97.0001C1552.81 95.6194 1551.69 94.5001 1550.31 94.5001L1550.31 99.5001ZM1560.25 94.5001C1558.87 94.5001 1557.75 95.6194 1557.75 97.0001C1557.75 98.3808 1558.87 99.5001 1560.25 99.5001L1560.25 94.5001ZM1570.19 99.5001C1571.58 99.5001 1572.69 98.3808 1572.69 97.0001C1572.69 95.6194 1571.58 94.5001 1570.19 94.5001L1570.19 99.5001ZM1580.14 94.5001C1578.76 94.5001 1577.64 95.6194 1577.64 97.0001C1577.64 98.3808 1578.76 99.5001 1580.14 99.5001L1580.14 94.5001ZM1590.08 99.5001C1591.46 99.5001 1592.58 98.3808 1592.58 97.0001C1592.58 95.6194 1591.46 94.5001 1590.08 94.5001L1590.08 99.5001ZM1600.03 94.5001C1598.65 94.5001 1597.53 95.6194 1597.53 97.0001C1597.53 98.3809 1598.65 99.5001 1600.03 99.5001L1600.03 94.5001ZM14 99.5L18.9719 99.5L18.9719 94.5L14 94.5L14 99.5ZM28.9156 99.5L38.8594 99.5L38.8594 94.5L28.9156 94.5L28.9156 99.5ZM48.8031 99.5L58.7469 99.5L58.7469 94.5L48.8031 94.5L48.8031 99.5ZM68.6906 99.5L78.6344 99.5L78.6344 94.5L68.6906 94.5L68.6906 99.5ZM88.5781 99.5L98.5219 99.5L98.5219 94.5L88.5781 94.5L88.5781 99.5ZM108.466 99.5L118.409 99.5L118.409 94.5L108.466 94.5L108.466 99.5ZM128.353 99.5L138.297 99.5L138.297 94.5L128.353 94.5L128.353 99.5ZM148.241 99.5L158.184 99.5L158.184 94.5L148.241 94.5L148.241 99.5ZM168.128 99.5L178.072 99.5L178.072 94.5L168.128 94.5L168.128 99.5ZM188.016 99.5L197.959 99.5L197.959 94.5L188.016 94.5L188.016 99.5ZM207.903 99.5L217.847 99.5L217.847 94.5L207.903 94.5L207.903 99.5ZM227.791 99.5L237.734 99.5L237.734 94.5L227.791 94.5L227.791 99.5ZM247.678 99.5L257.622 99.5L257.622 94.5L247.678 94.5L247.678 99.5ZM267.566 99.5L277.509 99.5L277.509 94.5L267.566 94.5L267.566 99.5ZM287.453 99.5L297.397 99.5L297.397 94.5L287.453 94.5L287.453 99.5ZM307.341 99.5L317.284 99.5L317.284 94.5L307.341 94.5L307.341 99.5ZM327.228 99.5L337.172 99.5L337.172 94.5L327.228 94.5L327.228 99.5ZM347.116 99.5L357.059 99.5L357.059 94.5L347.116 94.5L347.116 99.5ZM367.003 99.5L376.947 99.5L376.947 94.5L367.003 94.5L367.003 99.5ZM386.891 99.5L396.835 99.5L396.835 94.5L386.891 94.5L386.891 99.5ZM406.778 99.5L416.722 99.5L416.722 94.5L406.778 94.5L406.778 99.5ZM426.666 99.5L436.61 99.5L436.61 94.5L426.666 94.5L426.666 99.5ZM446.553 99.5L456.497 99.5L456.497 94.5L446.553 94.5L446.553 99.5ZM466.441 99.5L476.385 99.5L476.385 94.5L466.441 94.5L466.441 99.5ZM486.328 99.5L496.272 99.5L496.272 94.5L486.328 94.5L486.328 99.5ZM506.216 99.5L516.16 99.5L516.16 94.5L506.216 94.5L506.216 99.5ZM526.103 99.5L536.047 99.5L536.047 94.5L526.103 94.5L526.103 99.5ZM545.991 99.5L555.935 99.5L555.935 94.5L545.991 94.5L545.991 99.5ZM565.878 99.5L575.822 99.5L575.822 94.5L565.878 94.5L565.878 99.5ZM585.766 99.5L595.709 99.5001L595.709 94.5001L585.766 94.5L585.766 99.5ZM605.653 99.5001L615.597 99.5001L615.597 94.5001L605.653 94.5001L605.653 99.5001ZM625.541 99.5001L635.484 99.5001L635.484 94.5001L625.541 94.5001L625.541 99.5001ZM645.428 99.5001L655.372 99.5001L655.372 94.5001L645.428 94.5001L645.428 99.5001ZM665.315 99.5001L675.259 99.5001L675.259 94.5001L665.315 94.5001L665.315 99.5001ZM685.203 99.5001L695.147 99.5001L695.147 94.5001L685.203 94.5001L685.203 99.5001ZM705.09 99.5001L715.034 99.5001L715.034 94.5001L705.09 94.5001L705.09 99.5001ZM724.978 99.5001L734.922 99.5001L734.922 94.5001L724.978 94.5001L724.978 99.5001ZM744.865 99.5001L754.809 99.5001L754.809 94.5001L744.865 94.5001L744.865 99.5001ZM764.753 99.5001L774.696 99.5001L774.696 94.5001L764.753 94.5001L764.753 99.5001ZM784.64 99.5001L794.584 99.5001L794.584 94.5001L784.64 94.5001L784.64 99.5001ZM804.528 99.5001L814.471 99.5001L814.471 94.5001L804.528 94.5001L804.528 99.5001ZM824.415 99.5001L834.359 99.5001L834.359 94.5001L824.415 94.5001L824.415 99.5001ZM844.303 99.5001L854.246 99.5001L854.246 94.5001L844.303 94.5001L844.303 99.5001ZM864.19 99.5001L874.134 99.5001L874.134 94.5001L864.19 94.5001L864.19 99.5001ZM884.078 99.5001L894.021 99.5001L894.021 94.5001L884.078 94.5001L884.078 99.5001ZM903.965 99.5001L913.909 99.5001L913.909 94.5001L903.965 94.5001L903.965 99.5001ZM923.852 99.5001L933.796 99.5001L933.796 94.5001L923.852 94.5001L923.852 99.5001ZM943.74 99.5001L953.684 99.5001L953.684 94.5001L943.74 94.5001L943.74 99.5001ZM963.627 99.5001L973.571 99.5001L973.571 94.5001L963.627 94.5001L963.627 99.5001ZM983.515 99.5001L993.458 99.5001L993.458 94.5001L983.515 94.5001L983.515 99.5001ZM1003.4 99.5001L1013.35 99.5001L1013.35 94.5001L1003.4 94.5001L1003.4 99.5001ZM1023.29 99.5001L1033.23 99.5001L1033.23 94.5001L1023.29 94.5001L1023.29 99.5001ZM1043.18 99.5001L1053.12 99.5001L1053.12 94.5001L1043.18 94.5001L1043.18 99.5001ZM1063.06 99.5001L1073.01 99.5001L1073.01 94.5001L1063.06 94.5001L1063.06 99.5001ZM1082.95 99.5001L1092.9 99.5001L1092.9 94.5001L1082.95 94.5001L1082.95 99.5001ZM1102.84 99.5001L1112.78 99.5001L1112.78 94.5001L1102.84 94.5001L1102.84 99.5001ZM1122.73 99.5001L1132.67 99.5001L1132.67 94.5001L1122.73 94.5001L1122.73 99.5001ZM1142.61 99.5001L1152.56 99.5001L1152.56 94.5001L1142.61 94.5001L1142.61 99.5001ZM1162.5 99.5001L1172.45 99.5001L1172.45 94.5001L1162.5 94.5001L1162.5 99.5001ZM1182.39 99.5001L1192.33 99.5001L1192.33 94.5001L1182.39 94.5001L1182.39 99.5001ZM1202.28 99.5001L1212.22 99.5001L1212.22 94.5001L1202.28 94.5001L1202.28 99.5001ZM1222.16 99.5001L1232.11 99.5001L1232.11 94.5001L1222.16 94.5001L1222.16 99.5001ZM1242.05 99.5001L1252 99.5001L1252 94.5001L1242.05 94.5001L1242.05 99.5001ZM1261.94 99.5001L1271.88 99.5001L1271.88 94.5001L1261.94 94.5001L1261.94 99.5001ZM1281.83 99.5001L1291.77 99.5001L1291.77 94.5001L1281.83 94.5001L1281.83 99.5001ZM1301.71 99.5001L1311.66 99.5001L1311.66 94.5001L1301.71 94.5001L1301.71 99.5001ZM1321.6 99.5001L1331.55 99.5001L1331.55 94.5001L1321.6 94.5001L1321.6 99.5001ZM1341.49 99.5001L1351.43 99.5001L1351.43 94.5001L1341.49 94.5001L1341.49 99.5001ZM1361.38 99.5001L1371.32 99.5001L1371.32 94.5001L1361.38 94.5001L1361.38 99.5001ZM1381.26 99.5001L1391.21 99.5001L1391.21 94.5001L1381.26 94.5001L1381.26 99.5001ZM1401.15 99.5001L1411.1 99.5001L1411.1 94.5001L1401.15 94.5001L1401.15 99.5001ZM1421.04 99.5001L1430.98 99.5001L1430.98 94.5001L1421.04 94.5001L1421.04 99.5001ZM1440.93 99.5001L1450.87 99.5001L1450.87 94.5001L1440.93 94.5001L1440.93 99.5001ZM1460.81 99.5001L1470.76 99.5001L1470.76 94.5001L1460.81 94.5001L1460.81 99.5001ZM1480.7 99.5001L1490.64 99.5001L1490.64 94.5001L1480.7 94.5001L1480.7 99.5001ZM1500.59 99.5001L1510.53 99.5001L1510.53 94.5001L1500.59 94.5001L1500.59 99.5001ZM1520.48 99.5001L1530.42 99.5001L1530.42 94.5001L1520.48 94.5001L1520.48 99.5001ZM1540.36 99.5001L1550.31 99.5001L1550.31 94.5001L1540.36 94.5001L1540.36 99.5001ZM1560.25 99.5001L1570.19 99.5001L1570.19 94.5001L1560.25 94.5001L1560.25 99.5001ZM1580.14 99.5001L1590.08 99.5001L1590.08 94.5001L1580.14 94.5001L1580.14 99.5001Z" fill="white"/>
<circle cx="376.25" cy="97.25" r="13.25" fill="white"/>
<circle cx="14" cy="97" r="10" fill="#EF7C00"/>
<circle cx="376.25" cy="97.25" r="10.25" fill="#EF7C00"/>
<circle cx="773.25" cy="97.25" r="13.25" fill="white"/>
<circle cx="1170.25" cy="97.25" r="13.25" fill="white"/>
<circle cx="773.25" cy="97.25" r="10.25" fill="#EF7C00"/>
<circle cx="1170.25" cy="97.25" r="10.25" fill="#EF7C00"/>
</svg>
