<svg width="66" height="66" viewBox="0 0 66 66" fill="none" xmlns="http://www.w3.org/2000/svg">
<path d="M42.6974 65.9056H23.2082C4.77109 65.9056 0 61.1345 0 42.6974V23.2082C0 4.77109 4.77109 0 23.2082 0H42.6951C61.1345 0 65.9056 4.77109 65.9056 23.2082V42.6974C65.9056 61.1345 61.1345 65.9056 42.6974 65.9056ZM23.2082 2.35377C6.05625 2.35377 2.35377 6.05625 2.35377 23.2082V42.6974C2.35377 59.8493 6.05625 63.5518 23.2082 63.5518H42.6951C59.847 63.5518 63.5495 59.8493 63.5495 42.6974V23.2082C63.5518 6.05625 59.8493 2.35377 42.6974 2.35377H23.2082Z" fill="white"/>
<path d="M42.6974 65.9056H23.2082C4.77109 65.9056 0 61.1345 0 42.6974V23.2082C0 4.77109 4.77109 0 23.2082 0H42.6951C61.1345 0 65.9056 4.77109 65.9056 23.2082V42.6974C65.9056 61.1345 61.1345 65.9056 42.6974 65.9056ZM23.2082 2.35377C6.05625 2.35377 2.35377 6.05625 2.35377 23.2082V42.6974C2.35377 59.8493 6.05625 63.5518 23.2082 63.5518H42.6951C59.847 63.5518 63.5495 59.8493 63.5495 42.6974V23.2082C63.5518 6.05625 59.8493 2.35377 42.6974 2.35377H23.2082Z" stroke="white"/>
<path d="M54.6523 49.1374H49.5022C47.5996 49.1374 46.644 48.0756 45.0612 46.3168L45.0512 46.3058L44.9955 46.244C44.3796 45.5609 43.6277 44.7269 42.6386 43.7355C39.8282 41.0263 38.6372 40.7532 38.1994 40.7532C38.1829 40.8686 38.1688 41.0522 38.1688 41.3393V45.9574C38.1688 48.596 36.2293 49.1374 33.313 49.1374C27.2026 49.1374 20.9698 45.4255 16.6388 39.2092C10.4014 30.4649 8.29944 23.3565 8.29944 21.457C8.29944 19.7835 9.37276 18.8232 11.2417 18.8232H16.3917C18.6513 18.8232 19.341 20.266 19.8094 21.6171C22.1278 28.3748 25.5455 33.4095 26.9672 34.4145C26.979 34.2615 26.9884 34.0591 26.9884 33.7861V26.2022C26.8919 24.4863 26.3223 23.7802 25.8186 23.1588C25.4066 22.6504 24.9406 22.0737 24.9406 21.184C24.9406 20.0495 25.8915 18.8232 27.4285 18.8232H35.5208C36.7306 18.8232 38.1688 19.3551 38.1688 21.8925V32.0961C38.1688 32.1431 38.1711 32.1855 38.1735 32.2255C38.4395 32.0419 38.8184 31.6959 39.3622 31.1546C42.8434 27.2591 45.409 21.071 45.4349 21.0075C46.0492 19.5717 47.1979 18.8208 48.7655 18.8208H53.9155C55.0289 18.8208 55.8409 19.155 56.3281 19.8094C56.653 20.2448 56.9637 21.0192 56.6012 22.2291C55.9374 25.2866 50.1589 33.4871 49.4999 34.4122C49.4957 34.4192 49.4904 34.4279 49.4842 34.4381C49.4178 34.5481 49.2482 34.8288 49.2245 34.93C49.2263 34.93 49.2305 34.9378 49.2391 34.9537C49.2638 34.9992 49.3246 35.1113 49.4692 35.2996C49.702 35.6199 50.2687 36.1772 50.8248 36.7239L50.8603 36.7589C51.5618 37.4462 52.355 38.2253 52.9858 38.9714C55.7632 42.0949 57.0884 43.9661 57.5521 45.4066C57.9381 46.7389 57.5968 47.5768 57.239 48.0499C56.8742 48.5489 56.1257 49.1374 54.6523 49.1374ZM38.3406 38.3971C39.4045 38.3971 40.9439 38.8326 44.2862 42.0549C45.3596 43.1282 46.1551 44.0109 46.8024 44.7311C48.3418 46.447 48.716 46.7836 49.4999 46.7836H54.6499C55.1371 46.7836 55.3348 46.673 55.3607 46.6424C55.3607 46.6424 55.4196 46.4988 55.3042 46.101C54.8712 44.7547 52.8893 42.4079 51.211 40.5179C50.6061 39.8023 49.8694 39.0821 49.215 38.4442C48.4877 37.7334 47.9158 37.1708 47.5886 36.7142C46.4164 35.2054 46.8754 34.1909 47.5462 33.1129C49.2904 30.6509 53.8284 23.912 54.3251 21.6453C54.3933 21.4052 54.4098 21.2734 54.4098 21.2099C54.395 21.2115 54.3662 21.2083 54.3225 21.2034C54.2408 21.1943 54.1071 21.1793 53.9155 21.1793H48.7655C48.0617 21.1793 47.8075 21.4523 47.6074 21.9207C47.5038 22.1726 44.8723 28.5254 41.0733 32.774C39.8635 33.9861 39.0091 34.7488 37.7945 34.7488C36.8413 34.7488 35.815 33.9179 35.815 32.0984V21.8948C35.815 21.4429 35.7609 21.2522 35.735 21.1863C35.7206 21.1916 35.6947 21.1895 35.6531 21.1863C35.6197 21.1837 35.5763 21.1803 35.5208 21.1793H27.4285C27.3132 21.2687 27.5156 21.5182 27.6498 21.683C28.2688 22.448 29.2009 23.6037 29.3421 26.141L29.3445 33.7908C29.3445 34.7299 29.3445 36.9331 27.212 36.9331C24.1921 36.9331 19.6823 28.4854 17.5874 22.3891C17.1684 21.1816 16.9731 21.1816 16.3941 21.1816H11.244C10.7827 21.1816 10.6461 21.2711 10.6461 21.2711C10.6556 22.2856 12.1149 28.8126 18.5642 37.8557C22.4621 43.4507 27.9723 46.786 33.3153 46.786C35.8174 46.786 35.8174 46.4399 35.8174 45.9598V41.3417C35.8174 39.8847 36.1163 38.3971 38.3406 38.3971Z" fill="white"/>
<path d="M54.6523 49.1374H49.5022C47.5996 49.1374 46.644 48.0756 45.0612 46.3168L45.0512 46.3058L44.9955 46.244C44.3796 45.5609 43.6277 44.7269 42.6386 43.7355C39.8282 41.0263 38.6372 40.7532 38.1994 40.7532C38.1829 40.8686 38.1688 41.0522 38.1688 41.3393V45.9574C38.1688 48.596 36.2293 49.1374 33.313 49.1374C27.2026 49.1374 20.9698 45.4255 16.6388 39.2092C10.4014 30.4649 8.29944 23.3565 8.29944 21.457C8.29944 19.7835 9.37276 18.8232 11.2417 18.8232H16.3917C18.6513 18.8232 19.341 20.266 19.8094 21.6171C22.1278 28.3748 25.5455 33.4095 26.9672 34.4145C26.979 34.2615 26.9884 34.0591 26.9884 33.7861V26.2022C26.8919 24.4863 26.3223 23.7802 25.8186 23.1588C25.4066 22.6504 24.9406 22.0737 24.9406 21.184C24.9406 20.0495 25.8915 18.8232 27.4285 18.8232H35.5208C36.7306 18.8232 38.1688 19.3551 38.1688 21.8925V32.0961C38.1688 32.1431 38.1711 32.1855 38.1735 32.2255C38.4395 32.0419 38.8184 31.6959 39.3622 31.1546C42.8434 27.2591 45.409 21.071 45.4349 21.0075C46.0492 19.5717 47.1979 18.8208 48.7655 18.8208H53.9155C55.0289 18.8208 55.8409 19.155 56.3281 19.8094C56.653 20.2448 56.9637 21.0192 56.6012 22.2291C55.9374 25.2866 50.1589 33.4871 49.4999 34.4122C49.4957 34.4192 49.4904 34.4279 49.4842 34.4381C49.4178 34.5481 49.2482 34.8288 49.2245 34.93C49.2263 34.93 49.2305 34.9378 49.2391 34.9537C49.2638 34.9992 49.3246 35.1113 49.4692 35.2996C49.702 35.6199 50.2687 36.1772 50.8248 36.7239L50.8603 36.7589C51.5618 37.4462 52.355 38.2253 52.9858 38.9714C55.7632 42.0949 57.0884 43.9661 57.5521 45.4066C57.9381 46.7389 57.5968 47.5768 57.239 48.0499C56.8742 48.5489 56.1257 49.1374 54.6523 49.1374ZM38.3406 38.3971C39.4045 38.3971 40.9439 38.8326 44.2862 42.0549C45.3596 43.1282 46.1551 44.0109 46.8024 44.7311C48.3418 46.447 48.716 46.7836 49.4999 46.7836H54.6499C55.1371 46.7836 55.3348 46.673 55.3607 46.6424C55.3607 46.6424 55.4196 46.4988 55.3042 46.101C54.8712 44.7547 52.8893 42.4079 51.211 40.5179C50.6061 39.8023 49.8694 39.0821 49.215 38.4442C48.4877 37.7334 47.9158 37.1708 47.5886 36.7142C46.4164 35.2054 46.8754 34.1909 47.5462 33.1129C49.2904 30.6509 53.8284 23.912 54.3251 21.6453C54.3933 21.4052 54.4098 21.2734 54.4098 21.2099C54.395 21.2115 54.3662 21.2083 54.3225 21.2034C54.2408 21.1943 54.1071 21.1793 53.9155 21.1793H48.7655C48.0617 21.1793 47.8075 21.4523 47.6074 21.9207C47.5038 22.1726 44.8723 28.5254 41.0733 32.774C39.8635 33.9861 39.0091 34.7488 37.7945 34.7488C36.8413 34.7488 35.815 33.9179 35.815 32.0984V21.8948C35.815 21.4429 35.7609 21.2522 35.735 21.1863C35.7206 21.1916 35.6947 21.1895 35.6531 21.1863C35.6197 21.1837 35.5763 21.1803 35.5208 21.1793H27.4285C27.3132 21.2687 27.5156 21.5182 27.6498 21.683C28.2688 22.448 29.2009 23.6037 29.3421 26.141L29.3445 33.7908C29.3445 34.7299 29.3445 36.9331 27.212 36.9331C24.1921 36.9331 19.6823 28.4854 17.5874 22.3891C17.1684 21.1816 16.9731 21.1816 16.3941 21.1816H11.244C10.7827 21.1816 10.6461 21.2711 10.6461 21.2711C10.6556 22.2856 12.1149 28.8126 18.5642 37.8557C22.4621 43.4507 27.9723 46.786 33.3153 46.786C35.8174 46.786 35.8174 46.4399 35.8174 45.9598V41.3417C35.8174 39.8847 36.1163 38.3971 38.3406 38.3971Z" stroke="white"/>
</svg>
